<svg width="690" height="277" viewBox="0 0 690 277" fill="none" xmlns="http://www.w3.org/2000/svg">
<path d="M3 0H690V275.907H3V0Z" fill="url(#paint0_linear_42_392)"/>
<g filter="url(#filter0_d_42_392)">
<path d="M99.52 126.36C97.6267 129.08 96.2533 131.8 95.4 134.52C94.5467 137.213 94.12 140.373 94.12 144C94.12 147.627 94.5467 150.8 95.4 153.52C96.2533 156.213 97.6267 158.92 99.52 161.64L95.48 164.36C93.7467 161.96 92.36 159.88 91.32 158.12C90.28 156.387 89.4133 154.347 88.72 152C88.0533 149.653 87.72 146.987 87.72 144C87.72 141.013 88.0533 138.347 88.72 136C89.4133 133.653 90.28 131.613 91.32 129.88C92.36 128.12 93.7467 126.04 95.48 123.64L99.52 126.36ZM153.103 158V146.12H144.783V158H138.223V130.28H144.783V141H153.103V130.28H159.663V158H153.103ZM174.264 136.76V158H167.944V136.76H174.264ZM171.064 125.56C172.157 125.56 173.051 125.907 173.744 126.6C174.464 127.267 174.824 128.12 174.824 129.16C174.824 130.2 174.464 131.067 173.744 131.76C173.051 132.427 172.157 132.76 171.064 132.76C169.971 132.76 169.077 132.427 168.384 131.76C167.691 131.067 167.344 130.2 167.344 129.16C167.344 128.12 167.691 127.267 168.384 126.6C169.077 125.907 169.971 125.56 171.064 125.56ZM201.993 138C200.606 138.56 198.566 138.84 195.873 138.84C197.26 139.427 198.273 140.147 198.913 141C199.553 141.853 199.873 142.96 199.873 144.32C199.873 145.68 199.513 146.907 198.793 148C198.073 149.067 197.033 149.907 195.673 150.52C194.34 151.133 192.766 151.44 190.953 151.44C190.1 151.44 189.286 151.36 188.513 151.2C188.3 151.307 188.126 151.48 187.993 151.72C187.886 151.933 187.833 152.16 187.833 152.4C187.833 152.8 187.98 153.12 188.273 153.36C188.593 153.573 189.22 153.68 190.153 153.68H193.353C194.98 153.68 196.406 153.947 197.633 154.48C198.86 155.013 199.806 155.747 200.473 156.68C201.14 157.613 201.473 158.667 201.473 159.84C201.473 162.053 200.513 163.773 198.593 165C196.7 166.253 193.953 166.88 190.353 166.88C187.766 166.88 185.726 166.6 184.233 166.04C182.74 165.507 181.686 164.747 181.073 163.76C180.486 162.773 180.193 161.533 180.193 160.04H185.873C185.873 160.68 185.993 161.187 186.233 161.56C186.5 161.933 186.966 162.213 187.633 162.4C188.3 162.587 189.26 162.68 190.513 162.68C192.246 162.68 193.446 162.467 194.113 162.04C194.78 161.64 195.113 161.053 195.113 160.28C195.113 159.64 194.86 159.133 194.353 158.76C193.846 158.387 193.086 158.2 192.073 158.2H188.993C186.806 158.2 185.166 157.813 184.073 157.04C183.006 156.24 182.473 155.227 182.473 154C182.473 153.227 182.7 152.48 183.153 151.76C183.606 151.013 184.22 150.4 184.993 149.92C183.66 149.2 182.686 148.36 182.073 147.4C181.486 146.413 181.193 145.227 181.193 143.84C181.193 141.467 182.046 139.587 183.753 138.2C185.46 136.787 187.713 136.08 190.513 136.08C192.646 136.133 194.446 135.92 195.913 135.44C197.406 134.96 198.94 134.253 200.513 133.32L201.993 138ZM190.673 140.24C189.686 140.24 188.9 140.56 188.313 141.2C187.753 141.813 187.473 142.667 187.473 143.76C187.473 144.907 187.753 145.8 188.313 146.44C188.9 147.053 189.686 147.36 190.673 147.36C191.713 147.36 192.5 147.053 193.033 146.44C193.593 145.827 193.873 144.907 193.873 143.68C193.873 141.387 192.806 140.24 190.673 140.24ZM220.104 136.08C221.944 136.08 223.384 136.64 224.424 137.76C225.464 138.88 225.984 140.453 225.984 142.48V158H219.664V143.56C219.664 142.493 219.491 141.76 219.144 141.36C218.798 140.933 218.304 140.72 217.664 140.72C216.384 140.72 215.158 141.627 213.984 143.44V158H207.664V128.32L213.984 127.68V139.04C214.864 138.053 215.798 137.32 216.784 136.84C217.771 136.333 218.878 136.08 220.104 136.08ZM239.59 158.68C237.75 158.68 236.31 158.16 235.27 157.12C234.257 156.053 233.75 154.547 233.75 152.6V128.32L240.07 127.64V152.36C240.07 153.24 240.43 153.68 241.15 153.68C241.524 153.68 241.87 153.613 242.19 153.48L243.43 157.96C242.284 158.44 241.004 158.68 239.59 158.68ZM255.345 136.76V158H249.025V136.76H255.345ZM252.145 125.56C253.239 125.56 254.132 125.907 254.825 126.6C255.545 127.267 255.905 128.12 255.905 129.16C255.905 130.2 255.545 131.067 254.825 131.76C254.132 132.427 253.239 132.76 252.145 132.76C251.052 132.76 250.159 132.427 249.465 131.76C248.772 131.067 248.425 130.2 248.425 129.16C248.425 128.12 248.772 127.267 249.465 126.6C250.159 125.907 251.052 125.56 252.145 125.56ZM283.074 138C281.688 138.56 279.648 138.84 276.954 138.84C278.341 139.427 279.354 140.147 279.994 141C280.634 141.853 280.954 142.96 280.954 144.32C280.954 145.68 280.594 146.907 279.874 148C279.154 149.067 278.114 149.907 276.754 150.52C275.421 151.133 273.848 151.44 272.034 151.44C271.181 151.44 270.368 151.36 269.594 151.2C269.381 151.307 269.208 151.48 269.074 151.72C268.968 151.933 268.914 152.16 268.914 152.4C268.914 152.8 269.061 153.12 269.354 153.36C269.674 153.573 270.301 153.68 271.234 153.68H274.434C276.061 153.68 277.488 153.947 278.714 154.48C279.941 155.013 280.888 155.747 281.554 156.68C282.221 157.613 282.554 158.667 282.554 159.84C282.554 162.053 281.594 163.773 279.674 165C277.781 166.253 275.034 166.88 271.434 166.88C268.848 166.88 266.808 166.6 265.314 166.04C263.821 165.507 262.768 164.747 262.154 163.76C261.568 162.773 261.274 161.533 261.274 160.04H266.954C266.954 160.68 267.074 161.187 267.314 161.56C267.581 161.933 268.048 162.213 268.714 162.4C269.381 162.587 270.341 162.68 271.594 162.68C273.328 162.68 274.528 162.467 275.194 162.04C275.861 161.64 276.194 161.053 276.194 160.28C276.194 159.64 275.941 159.133 275.434 158.76C274.928 158.387 274.168 158.2 273.154 158.2H270.074C267.888 158.2 266.248 157.813 265.154 157.04C264.088 156.24 263.554 155.227 263.554 154C263.554 153.227 263.781 152.48 264.234 151.76C264.688 151.013 265.301 150.4 266.074 149.92C264.741 149.2 263.768 148.36 263.154 147.4C262.568 146.413 262.274 145.227 262.274 143.84C262.274 141.467 263.128 139.587 264.834 138.2C266.541 136.787 268.794 136.08 271.594 136.08C273.728 136.133 275.528 135.92 276.994 135.44C278.488 134.96 280.021 134.253 281.594 133.32L283.074 138ZM271.754 140.24C270.768 140.24 269.981 140.56 269.394 141.2C268.834 141.813 268.554 142.667 268.554 143.76C268.554 144.907 268.834 145.8 269.394 146.44C269.981 147.053 270.768 147.36 271.754 147.36C272.794 147.36 273.581 147.053 274.114 146.44C274.674 145.827 274.954 144.907 274.954 143.68C274.954 141.387 273.888 140.24 271.754 140.24ZM301.186 136.08C303.026 136.08 304.466 136.64 305.506 137.76C306.546 138.88 307.066 140.453 307.066 142.48V158H300.746V143.56C300.746 142.493 300.572 141.76 300.226 141.36C299.879 140.933 299.386 140.72 298.746 140.72C297.466 140.72 296.239 141.627 295.066 143.44V158H288.746V128.32L295.066 127.68V139.04C295.946 138.053 296.879 137.32 297.866 136.84C298.852 136.333 299.959 136.08 301.186 136.08ZM328.352 157C327.578 157.533 326.672 157.947 325.632 158.24C324.618 158.533 323.605 158.68 322.592 158.68C317.952 158.653 315.632 156.093 315.632 151V141.16H312.632V136.76H315.632V132.16L321.952 131.44V136.76H326.832L326.152 141.16H321.952V150.92C321.952 151.907 322.112 152.613 322.432 153.04C322.752 153.467 323.258 153.68 323.952 153.68C324.672 153.68 325.432 153.453 326.232 153L328.352 157ZM339.981 136.76V158H333.661V136.76H339.981ZM336.781 125.56C337.875 125.56 338.768 125.907 339.461 126.6C340.181 127.267 340.541 128.12 340.541 129.16C340.541 130.2 340.181 131.067 339.461 131.76C338.768 132.427 337.875 132.76 336.781 132.76C335.688 132.76 334.795 132.427 334.101 131.76C333.408 131.067 333.061 130.2 333.061 129.16C333.061 128.12 333.408 127.267 334.101 126.6C334.795 125.907 335.688 125.56 336.781 125.56ZM360.59 136.08C362.43 136.08 363.87 136.64 364.91 137.76C365.95 138.88 366.47 140.453 366.47 142.48V158H360.15V143.56C360.15 142.493 359.977 141.76 359.63 141.36C359.31 140.933 358.817 140.72 358.15 140.72C356.87 140.72 355.644 141.64 354.47 143.48V158H348.15V136.76H353.67L354.11 139.28C355.017 138.213 355.99 137.413 357.03 136.88C358.097 136.347 359.284 136.08 360.59 136.08ZM393.996 138C392.61 138.56 390.57 138.84 387.876 138.84C389.263 139.427 390.276 140.147 390.916 141C391.556 141.853 391.876 142.96 391.876 144.32C391.876 145.68 391.516 146.907 390.796 148C390.076 149.067 389.036 149.907 387.676 150.52C386.343 151.133 384.77 151.44 382.956 151.44C382.103 151.44 381.29 151.36 380.516 151.2C380.303 151.307 380.13 151.48 379.996 151.72C379.89 151.933 379.836 152.16 379.836 152.4C379.836 152.8 379.983 153.12 380.276 153.36C380.596 153.573 381.223 153.68 382.156 153.68H385.356C386.983 153.68 388.41 153.947 389.636 154.48C390.863 155.013 391.81 155.747 392.476 156.68C393.143 157.613 393.476 158.667 393.476 159.84C393.476 162.053 392.516 163.773 390.596 165C388.703 166.253 385.956 166.88 382.356 166.88C379.77 166.88 377.73 166.6 376.236 166.04C374.743 165.507 373.69 164.747 373.076 163.76C372.49 162.773 372.196 161.533 372.196 160.04H377.876C377.876 160.68 377.996 161.187 378.236 161.56C378.503 161.933 378.97 162.213 379.636 162.4C380.303 162.587 381.263 162.68 382.516 162.68C384.25 162.68 385.45 162.467 386.116 162.04C386.783 161.64 387.116 161.053 387.116 160.28C387.116 159.64 386.863 159.133 386.356 158.76C385.85 158.387 385.09 158.2 384.076 158.2H380.996C378.81 158.2 377.17 157.813 376.076 157.04C375.01 156.24 374.476 155.227 374.476 154C374.476 153.227 374.703 152.48 375.156 151.76C375.61 151.013 376.223 150.4 376.996 149.92C375.663 149.2 374.69 148.36 374.076 147.4C373.49 146.413 373.196 145.227 373.196 143.84C373.196 141.467 374.05 139.587 375.756 138.2C377.463 136.787 379.716 136.08 382.516 136.08C384.65 136.133 386.45 135.92 387.916 135.44C389.41 134.96 390.943 134.253 392.516 133.32L393.996 138ZM382.676 140.24C381.69 140.24 380.903 140.56 380.316 141.2C379.756 141.813 379.476 142.667 379.476 143.76C379.476 144.907 379.756 145.8 380.316 146.44C380.903 147.053 381.69 147.36 382.676 147.36C383.716 147.36 384.503 147.053 385.036 146.44C385.596 145.827 385.876 144.907 385.876 143.68C385.876 141.387 384.81 140.24 382.676 140.24ZM464.507 130.4C466.454 130.4 468.121 130.747 469.507 131.44C470.921 132.133 471.987 133.067 472.707 134.24C473.454 135.413 473.827 136.707 473.827 138.12C473.827 139.56 473.534 140.933 472.947 142.24C472.361 143.547 471.321 145.053 469.827 146.76C468.334 148.44 466.161 150.573 463.307 153.16H474.387L473.747 158H456.147V153.52C459.427 150.293 461.814 147.867 463.307 146.24C464.801 144.587 465.841 143.213 466.427 142.12C467.041 141.027 467.347 139.907 467.347 138.76C467.347 137.667 467.027 136.813 466.387 136.2C465.774 135.56 464.934 135.24 463.867 135.24C462.907 135.24 462.054 135.467 461.307 135.92C460.561 136.347 459.774 137.053 458.947 138.04L455.227 135.08C456.347 133.613 457.681 132.467 459.227 131.64C460.801 130.813 462.561 130.4 464.507 130.4ZM490.572 130.4C493.878 130.4 496.398 131.613 498.132 134.04C499.892 136.467 500.772 139.96 500.772 144.52C500.772 149.053 499.892 152.547 498.132 155C496.398 157.453 493.878 158.68 490.572 158.68C487.265 158.68 484.732 157.453 482.972 155C481.238 152.547 480.372 149.053 480.372 144.52C480.372 139.96 481.238 136.467 482.972 134.04C484.732 131.613 487.265 130.4 490.572 130.4ZM490.572 135.08C489.665 135.08 488.945 135.373 488.412 135.96C487.878 136.547 487.478 137.52 487.212 138.88C486.972 140.24 486.852 142.12 486.852 144.52C486.852 146.92 486.972 148.813 487.212 150.2C487.478 151.56 487.878 152.533 488.412 153.12C488.945 153.707 489.665 154 490.572 154C491.478 154 492.198 153.72 492.732 153.16C493.265 152.573 493.652 151.6 493.892 150.24C494.158 148.853 494.292 146.947 494.292 144.52C494.292 142.093 494.158 140.2 493.892 138.84C493.652 137.453 493.265 136.48 492.732 135.92C492.198 135.36 491.478 135.08 490.572 135.08ZM514.54 130.4C516.487 130.4 518.154 130.747 519.54 131.44C520.954 132.133 522.02 133.067 522.74 134.24C523.487 135.413 523.86 136.707 523.86 138.12C523.86 139.56 523.567 140.933 522.98 142.24C522.394 143.547 521.354 145.053 519.86 146.76C518.367 148.44 516.194 150.573 513.34 153.16H524.42L523.78 158H506.18V153.52C509.46 150.293 511.847 147.867 513.34 146.24C514.834 144.587 515.874 143.213 516.46 142.12C517.074 141.027 517.38 139.907 517.38 138.76C517.38 137.667 517.06 136.813 516.42 136.2C515.807 135.56 514.967 135.24 513.9 135.24C512.94 135.24 512.087 135.467 511.34 135.92C510.594 136.347 509.807 137.053 508.98 138.04L505.26 135.08C506.38 133.613 507.714 132.467 509.26 131.64C510.834 130.813 512.594 130.4 514.54 130.4ZM538.404 130.4C540.351 130.4 542.018 130.747 543.404 131.44C544.818 132.133 545.884 133.067 546.604 134.24C547.351 135.413 547.724 136.707 547.724 138.12C547.724 139.56 547.431 140.933 546.844 142.24C546.258 143.547 545.218 145.053 543.724 146.76C542.231 148.44 540.058 150.573 537.204 153.16H548.284L547.644 158H530.044V153.52C533.324 150.293 535.711 147.867 537.204 146.24C538.698 144.587 539.738 143.213 540.324 142.12C540.938 141.027 541.244 139.907 541.244 138.76C541.244 137.667 540.924 136.813 540.284 136.2C539.671 135.56 538.831 135.24 537.764 135.24C536.804 135.24 535.951 135.467 535.204 135.92C534.458 136.347 533.671 137.053 532.844 138.04L529.124 135.08C530.244 133.613 531.578 132.467 533.124 131.64C534.698 130.813 536.458 130.4 538.404 130.4ZM589.964 151.44C590.951 151.44 591.791 151.8 592.484 152.52C593.204 153.213 593.564 154.053 593.564 155.04C593.564 156.053 593.204 156.92 592.484 157.64C591.791 158.333 590.951 158.68 589.964 158.68C588.951 158.68 588.084 158.333 587.364 157.64C586.671 156.92 586.324 156.053 586.324 155.04C586.324 154.053 586.671 153.213 587.364 152.52C588.084 151.8 588.951 151.44 589.964 151.44Z" fill="#282828"/>
<path d="M115.728 126.36C113.834 129.08 112.461 131.8 111.608 134.52C110.754 137.213 110.328 140.373 110.328 144C110.328 147.627 110.754 150.8 111.608 153.52C112.461 156.213 113.834 158.92 115.728 161.64L111.688 164.36C109.954 161.96 108.568 159.88 107.528 158.12C106.488 156.387 105.621 154.347 104.928 152C104.261 149.653 103.928 146.987 103.928 144C103.928 141.013 104.261 138.347 104.928 136C105.621 133.653 106.488 131.613 107.528 129.88C108.568 128.12 109.954 126.04 111.688 123.64L115.728 126.36ZM131.936 126.36C130.042 129.08 128.669 131.8 127.816 134.52C126.962 137.213 126.536 140.373 126.536 144C126.536 147.627 126.962 150.8 127.816 153.52C128.669 156.213 130.042 158.92 131.936 161.64L127.896 164.36C126.162 161.96 124.776 159.88 123.736 158.12C122.696 156.387 121.829 154.347 121.136 152C120.469 149.653 120.136 146.987 120.136 144C120.136 141.013 120.469 138.347 121.136 136C121.829 133.653 122.696 131.613 123.736 129.88C124.776 128.12 126.162 126.04 127.896 123.64L131.936 126.36ZM401.708 123.64C403.441 126.067 404.814 128.147 405.828 129.88C406.868 131.613 407.721 133.653 408.388 136C409.081 138.347 409.428 141.013 409.428 144C409.428 146.987 409.081 149.653 408.388 152C407.721 154.347 406.868 156.387 405.828 158.12C404.814 159.853 403.441 161.933 401.708 164.36L397.668 161.64C399.561 158.893 400.934 156.173 401.788 153.48C402.641 150.76 403.067 147.6 403.067 144C403.067 140.4 402.641 137.253 401.788 134.56C400.934 131.84 399.561 129.107 397.668 126.36L401.708 123.64ZM451.3 126.36C449.406 129.08 448.033 131.8 447.18 134.52C446.326 137.213 445.9 140.373 445.9 144C445.9 147.627 446.326 150.8 447.18 153.52C448.033 156.213 449.406 158.92 451.3 161.64L447.26 164.36C445.526 161.96 444.14 159.88 443.1 158.12C442.06 156.387 441.193 154.347 440.5 152C439.833 149.653 439.5 146.987 439.5 144C439.5 141.013 439.833 138.347 440.5 136C441.193 133.653 442.06 131.613 443.1 129.88C444.14 128.12 445.526 126.04 447.26 123.64L451.3 126.36ZM557.268 123.64C559.002 126.067 560.375 128.147 561.388 129.88C562.428 131.613 563.282 133.653 563.948 136C564.642 138.347 564.988 141.013 564.988 144C564.988 146.987 564.642 149.653 563.948 152C563.282 154.347 562.428 156.387 561.388 158.12C560.375 159.853 559.002 161.933 557.268 164.36L553.228 161.64C555.122 158.893 556.495 156.173 557.348 153.48C558.202 150.76 558.628 147.6 558.628 144C558.628 140.4 558.202 137.253 557.348 134.56C556.495 131.84 555.122 129.107 553.228 126.36L557.268 123.64ZM573.476 123.64C575.21 126.067 576.583 128.147 577.596 129.88C578.636 131.613 579.49 133.653 580.156 136C580.85 138.347 581.196 141.013 581.196 144C581.196 146.987 580.85 149.653 580.156 152C579.49 154.347 578.636 156.387 577.596 158.12C576.583 159.853 575.21 161.933 573.476 164.36L569.436 161.64C571.33 158.893 572.703 156.173 573.556 153.48C574.41 150.76 574.836 147.6 574.836 144C574.836 140.4 574.41 137.253 573.556 134.56C572.703 131.84 571.33 129.107 569.436 126.36L573.476 123.64Z" fill="#FF22E9"/>
</g>
<defs>
<filter id="filter0_d_42_392" x="83" y="123.64" width="514.564" height="103.36" filterUnits="userSpaceOnUse" color-interpolation-filters="sRGB">
<feFlood flood-opacity="0" result="BackgroundImageFix"/>
<feColorMatrix in="SourceAlpha" type="matrix" values="0 0 0 0 0 0 0 0 0 0 0 0 0 0 0 0 0 0 127 0" result="hardAlpha"/>
<feOffset dy="4"/>
<feGaussianBlur stdDeviation="2"/>
<feComposite in2="hardAlpha" operator="out"/>
<feColorMatrix type="matrix" values="0 0 0 0 0 0 0 0 0 0 0 0 0 0 0 0 0 0 0.25 0"/>
<feBlend mode="normal" in2="BackgroundImageFix" result="effect1_dropShadow_42_392"/>
<feBlend mode="normal" in="SourceGraphic" in2="effect1_dropShadow_42_392" result="shape"/>
</filter>
<linearGradient id="paint0_linear_42_392" x1="348.869" y1="-45.7425" x2="355.793" y2="310.599" gradientUnits="userSpaceOnUse">
<stop stop-color="#60F32C"/>
<stop offset="1" stop-color="#3AD6F9"/>
</linearGradient>
</defs>
</svg>
