<svg width="1454" height="1083" viewBox="0 0 1454 1083" fill="none" xmlns="http://www.w3.org/2000/svg">
<g filter="url(#filter0_d_44_42)">
<rect x="6.5" width="407" height="784" fill="url(#paint0_radial_44_42)"/>
<rect width="275" height="784" transform="matrix(-1 0 0 1 688.5 0)" fill="url(#paint1_radial_44_42)"/>
<rect x="688.5" width="364" height="784" fill="url(#paint2_radial_44_42)"/>
<rect width="394" height="784" transform="matrix(-1 0 0 1 1446.5 0)" fill="url(#paint3_radial_44_42)"/>
<path d="M296.368 693.748L219.535 723.898C218.836 724.172 218.677 725.09 219.244 725.583L275.656 774.701C275.875 774.891 276.165 774.977 276.451 774.937L360.092 763.266C360.894 763.154 361.237 762.185 360.684 761.593L297.464 693.996C297.184 693.696 296.75 693.598 296.368 693.748Z" fill="#D897A9"/>
<path d="M568.462 708.145L469.944 769.413C469.482 769.7 469.252 769.843 469.126 770.07C469 770.297 469 770.568 469 771.111V823.476C469 824.429 469 824.906 469.297 825.199C469.594 825.493 470.071 825.487 471.024 825.475H471.024L1372.14 814.504C1372.32 814.502 1372.41 814.501 1372.5 814.484C1372.58 814.467 1372.67 814.434 1372.84 814.369L1444.72 786.495C1445.34 786.255 1445.65 786.136 1445.83 785.88C1446 785.625 1446 785.293 1446 784.63V612.613C1446 609.212 1446 607.512 1445.23 607.332C1444.45 607.153 1443.7 608.679 1442.2 611.731L1406.32 684.822C1405.93 685.617 1405.74 686.015 1405.37 686.155C1405 686.295 1404.59 686.127 1403.77 685.791L1376.3 674.531C1375.67 674.274 1375.36 674.146 1375.05 674.215C1374.74 674.285 1374.51 674.535 1374.06 675.036L1290.55 766.896L1290.55 766.896C1290.28 767.194 1290.14 767.343 1289.97 767.428C1289.79 767.512 1289.59 767.524 1289.18 767.547L1056.46 780.973C1056.23 780.987 1056.12 780.993 1056 780.974C1055.89 780.955 1055.79 780.91 1055.57 780.821L917.28 722.827C916.895 722.666 916.703 722.585 916.5 722.586C916.298 722.586 916.106 722.668 915.722 722.831L805.926 769.606C805.472 769.799 805.244 769.896 805.008 769.881C804.771 769.866 804.558 769.741 804.132 769.492L743.968 734.274C743.735 734.138 743.619 734.07 743.491 734.035C743.362 734 743.227 734 742.958 734H716.172C715.839 734 715.672 734 715.517 733.948C715.363 733.896 715.23 733.796 714.965 733.595L644.8 680.484C644.178 680.013 643.866 679.777 643.51 679.79C643.155 679.803 642.861 680.061 642.274 680.576L595.597 721.537C595.068 722.002 594.803 722.234 594.479 722.263C594.154 722.292 593.852 722.111 593.249 721.749L570.548 708.129C570.038 707.823 569.783 707.67 569.501 707.672C569.22 707.674 568.968 707.831 568.463 708.145L568.462 708.145Z" fill="url(#paint4_linear_44_42)"/>
<path d="M151.191 665.22L73.2919 737.83L73.2919 737.83C72.4632 738.602 72.0488 738.988 72.0799 739.462C72.111 739.935 72.5723 740.264 73.495 740.922L237.832 858.024L237.832 858.024C238.162 858.259 238.326 858.376 238.518 858.421C238.71 858.466 238.91 858.434 239.31 858.37L365.441 838.09C365.719 838.045 365.857 838.023 365.995 838.039C366.133 838.055 366.263 838.109 366.523 838.217L577.445 925.563C577.96 925.776 578.218 925.883 578.481 925.85C578.744 925.816 578.967 925.648 579.413 925.313L624.33 891.504C624.661 891.255 624.826 891.131 625.021 891.082C625.216 891.032 625.42 891.063 625.829 891.124L718.264 904.965C718.382 904.982 718.441 904.991 718.5 904.993C718.56 904.995 718.619 904.989 718.738 904.979L1003.29 879.519C1003.39 879.51 1003.45 879.505 1003.5 879.506C1003.55 879.507 1003.61 879.513 1003.71 879.527L1146.5 897.437C1146.75 897.468 1146.87 897.484 1147 897.469C1147.12 897.454 1147.24 897.408 1147.47 897.318L1370.41 811.001C1371.59 810.544 1372.18 810.316 1372.31 809.821C1372.44 809.326 1372.04 808.838 1371.24 807.863L1371.23 807.862L1281.96 699.764C1281.28 698.942 1280.94 698.532 1280.49 698.519C1280.03 698.506 1279.67 698.897 1278.95 699.679L1219.04 764.417C1218.77 764.705 1218.64 764.849 1218.47 764.931C1218.29 765.014 1218.1 765.027 1217.71 765.054L931.254 784.449C930.881 784.474 930.695 784.487 930.52 784.434C930.345 784.381 930.197 784.268 929.901 784.04L889.016 752.663C888.299 752.113 887.94 751.838 887.541 751.881C887.143 751.924 886.851 752.27 886.269 752.961L842.777 804.578C842.398 805.027 842.209 805.252 841.946 805.341C841.683 805.431 841.396 805.368 840.822 805.243L679.624 770.136C679.315 770.069 679.16 770.035 679.005 770.05C678.85 770.064 678.704 770.127 678.412 770.251L596.673 805.212C596.34 805.355 596.174 805.426 595.997 805.435C595.82 805.445 595.646 805.391 595.3 805.285L420.413 751.627C420.207 751.564 420.104 751.532 419.998 751.523C419.892 751.514 419.785 751.528 419.572 751.555L276.882 769.887C276.448 769.942 276.231 769.97 276.027 769.91C275.824 769.849 275.657 769.706 275.325 769.421L153.858 665.165C153.212 664.611 152.889 664.334 152.507 664.342C152.125 664.349 151.814 664.64 151.191 665.22Z" fill="url(#paint5_linear_44_42)" stroke="#86FAF3" stroke-width="4"/>
<circle cx="801.491" cy="595.205" r="3.62757" fill="white" fill-opacity="0.25"/>
<circle cx="669" cy="329.5" r="3.5" fill="white" fill-opacity="0.25"/>
<circle cx="221" cy="503.5" r="2.5" fill="white" fill-opacity="0.25"/>
<circle cx="275.946" cy="101.402" r="2.26723" fill="white" fill-opacity="0.25"/>
<circle cx="1316.86" cy="193.36" r="1.36034" fill="white" fill-opacity="0.25"/>
<circle cx="107.86" cy="154.36" r="1.36034" fill="white" fill-opacity="0.25"/>
<circle cx="90.8603" cy="523.36" r="1.36034" fill="white" fill-opacity="0.25"/>
<circle cx="885.314" cy="424.814" r="1.81379" fill="white" fill-opacity="0.25"/>
<circle cx="313.314" cy="157.814" r="1.81379" fill="white" fill-opacity="0.25"/>
<circle cx="411.314" cy="691.814" r="1.81379" fill="white" fill-opacity="0.25"/>
<circle cx="445.314" cy="286.814" r="1.81379" fill="white" fill-opacity="0.25"/>
<circle cx="1275.31" cy="86.8138" r="1.81379" fill="white" fill-opacity="0.25"/>
<circle cx="795.314" cy="303.814" r="1.81379" fill="white" fill-opacity="0.25"/>
<circle cx="456.314" cy="716.814" r="1.81379" fill="white" fill-opacity="0.25"/>
<circle cx="663.5" cy="516" r="2" fill="white" fill-opacity="0.25"/>
<circle cx="726.128" cy="711.628" r="3.62757" fill="white" fill-opacity="0.25"/>
<circle cx="68.1276" cy="680.628" r="3.62757" fill="white" fill-opacity="0.25"/>
<circle cx="377.518" cy="45.1741" r="3.17413" fill="white" fill-opacity="0.25"/>
<circle cx="111.767" cy="394.267" r="2.26723" fill="white" fill-opacity="0.25"/>
<circle cx="458.232" cy="454.183" r="3.17413" fill="white" fill-opacity="0.25"/>
<circle cx="1079.67" cy="199.174" r="3.17413" fill="white" fill-opacity="0.25"/>
<circle cx="808.674" cy="26.1741" r="3.17413" fill="white" fill-opacity="0.25"/>
<circle cx="1312" cy="644.5" r="1.5" fill="white" fill-opacity="0.25"/>
<circle cx="1419.22" cy="389.721" r="2.72068" fill="white" fill-opacity="0.25"/>
<circle cx="1414.22" cy="28.7207" r="2.72068" fill="white" fill-opacity="0.25"/>
<circle cx="624.221" cy="119.721" r="2.72068" fill="white" fill-opacity="0.25"/>
<circle cx="342.767" cy="626.267" r="2.26723" fill="white" fill-opacity="0.25"/>
<circle cx="199.314" cy="290.489" r="1.81379" fill="white" fill-opacity="0.25"/>
<circle cx="1306" cy="459.5" r="2.5" fill="white" fill-opacity="0.25"/>
<circle cx="1111.5" cy="147" r="3" fill="white" fill-opacity="0.25"/>
<circle cx="1147.5" cy="676" r="2" fill="white" fill-opacity="0.25"/>
<circle cx="1086.58" cy="425.081" r="4.08102" fill="white" fill-opacity="0.25"/>
<circle cx="1015.5" cy="707" r="3" fill="white" fill-opacity="0.25"/>
<path d="M237.831 842.023L9.16215 678.758C7.77715 677.769 7.08466 677.274 6.54233 677.554C6 677.833 6 678.684 6 680.385V1071C6 1071.94 6 1072.41 6.29289 1072.71C6.58579 1073 7.05719 1073 7.99999 1073H576.5C577.443 1073 577.914 1073 578.207 1072.71C578.5 1072.41 578.5 1071.94 578.5 1071V910.839C578.5 910.19 578.5 909.866 578.331 909.613C578.162 909.361 577.862 909.237 577.261 908.99L366.522 822.215C366.263 822.108 366.133 822.055 365.995 822.039C365.858 822.023 365.72 822.045 365.443 822.09L239.311 842.37H239.311C238.911 842.434 238.711 842.466 238.519 842.421C238.326 842.376 238.161 842.258 237.831 842.023Z" fill="url(#paint6_linear_44_42)" stroke="#86FAF3" stroke-width="4"/>
<path d="M624.281 843.109L364.528 1069.49C362.837 1070.96 361.991 1071.7 362.235 1072.35C362.478 1073 363.6 1073 365.843 1073H365.843L1444.5 1072.42C1445.44 1072.42 1445.91 1072.42 1446.21 1072.13C1446.5 1071.83 1446.5 1071.36 1446.5 1070.42V718.096C1446.5 716.701 1446.5 716.003 1446.04 715.708C1445.59 715.412 1444.95 715.699 1443.68 716.273L1147.53 849.81C1147.27 849.929 1147.14 849.989 1146.99 850.009C1146.85 850.029 1146.71 850.008 1146.42 849.966L1003.75 829.13C1003.62 829.112 1003.56 829.103 1003.5 829.102C1003.44 829.101 1003.38 829.107 1003.25 829.12L718.777 858.753L718.776 858.753C718.638 858.768 718.569 858.775 718.5 858.772C718.431 858.77 718.363 858.758 718.226 858.734L625.939 842.647C625.477 842.566 625.247 842.526 625.029 842.587C624.811 842.647 624.635 842.801 624.281 843.109Z" fill="url(#paint7_linear_44_42)" stroke="#86FAF3" stroke-width="4"/>
<circle cx="941" cy="790.5" r="12.5" fill="#EB00FF"/>
<circle cx="1250" cy="893.5" r="12.5" fill="#EB00FF"/>
<circle cx="1437" cy="771.5" r="12.5" fill="#EB00FF"/>
<circle cx="916" cy="914.5" r="12.5" fill="#EB00FF"/>
<circle cx="223" cy="729.5" r="12.5" fill="#EB00FF"/>
<circle cx="299" cy="695.5" r="12.5" fill="#EB00FF"/>
<circle cx="278" cy="778.5" r="12.5" fill="#EB00FF"/>
<circle cx="154" cy="665.5" r="12.5" fill="#EB00FF"/>
<circle cx="91" cy="724.5" r="12.5" fill="#EB00FF"/>
<circle cx="236" cy="838.5" r="12.5" fill="#EB00FF"/>
<circle cx="361" cy="826.5" r="12.5" fill="#EB00FF"/>
<circle cx="539" cy="901.5" r="12.5" fill="#EB00FF"/>
<circle cx="626" cy="849.5" r="12.5" fill="#EB00FF"/>
<circle cx="726" cy="863.5" r="12.5" fill="#EB00FF"/>
<circle cx="1003" cy="824.5" r="12.5" fill="#EB00FF"/>
<circle cx="1059" cy="874.5" r="12.5" fill="#EB00FF"/>
<circle cx="1162" cy="851.5" r="12.5" fill="#EB00FF"/>
<circle cx="1277" cy="702.5" r="12.5" fill="#EB00FF"/>
<circle cx="1326" cy="766.5" r="12.5" fill="#EB00FF"/>
<circle cx="1225" cy="778.5" r="12.5" fill="#EB00FF"/>
<circle cx="1434" cy="716.5" r="12.5" fill="#EB00FF"/>
<circle cx="348" cy="754.5" r="12.5" fill="#EB00FF"/>
<circle cx="426" cy="754.5" r="12.5" fill="#EB00FF"/>
<circle cx="591" cy="796.5" r="12.5" fill="#EB00FF"/>
<circle cx="688" cy="767.5" r="12.5" fill="#EB00FF"/>
<circle cx="833" cy="807.5" r="12.5" fill="#EB00FF"/>
<circle cx="883" cy="758.5" r="12.5" fill="#EB00FF"/>
<circle cx="808" cy="963.5" r="12.5" fill="#EB00FF"/>
<circle cx="688" cy="1004.5" r="12.5" fill="#EB00FF"/>
<path d="M1052 871.698L667.354 1023.66C667.178 1023.73 667.089 1023.77 666.997 1023.79C666.904 1023.8 666.809 1023.8 666.619 1023.8H1444C1444.94 1023.8 1445.41 1023.8 1445.71 1023.51C1446 1023.22 1446 1022.75 1446 1021.8V782.675C1446 781.054 1446 780.243 1445.48 779.959C1444.96 779.675 1444.28 780.115 1442.91 780.996L1442.91 780.996L1256.63 901.456C1256.32 901.659 1256.16 901.76 1255.99 901.799C1255.81 901.838 1255.62 901.81 1255.25 901.755L1053.03 871.58C1052.77 871.54 1052.64 871.521 1052.5 871.536C1052.37 871.551 1052.25 871.6 1052 871.698Z" fill="#D695E0" fill-opacity="0.66" style="mix-blend-mode:lighten"/>
<path d="M1052 871.698L667.354 1023.66C667.178 1023.73 667.089 1023.77 666.997 1023.79C666.904 1023.8 666.809 1023.8 666.619 1023.8H1444C1444.94 1023.8 1445.41 1023.8 1445.71 1023.51C1446 1023.22 1446 1022.75 1446 1021.8V782.675C1446 781.054 1446 780.243 1445.48 779.959C1444.96 779.675 1444.28 780.115 1442.91 780.996L1442.91 780.996L1256.63 901.456C1256.32 901.659 1256.16 901.76 1255.99 901.799C1255.81 901.838 1255.62 901.81 1255.25 901.755L1053.03 871.58C1052.77 871.54 1052.64 871.521 1052.5 871.536C1052.37 871.551 1052.25 871.6 1052 871.698Z" stroke="#00FFC2" stroke-width="4"/>
</g>
<defs>
<filter id="filter0_d_44_42" x="-6.86646e-05" y="0" width="1453.5" height="1083" filterUnits="userSpaceOnUse" color-interpolation-filters="sRGB">
<feFlood flood-opacity="0" result="BackgroundImageFix"/>
<feColorMatrix in="SourceAlpha" type="matrix" values="0 0 0 0 0 0 0 0 0 0 0 0 0 0 0 0 0 0 127 0" result="hardAlpha"/>
<feOffset dy="4"/>
<feGaussianBlur stdDeviation="2"/>
<feComposite in2="hardAlpha" operator="out"/>
<feColorMatrix type="matrix" values="0 0 0 0 0 0 0 0 0 0 0 0 0 0 0 0 0 0 0.25 0"/>
<feBlend mode="normal" in2="BackgroundImageFix" result="effect1_dropShadow_44_42"/>
<feBlend mode="normal" in="SourceGraphic" in2="effect1_dropShadow_44_42" result="shape"/>
</filter>
<radialGradient id="paint0_radial_44_42" cx="0" cy="0" r="1" gradientUnits="userSpaceOnUse" gradientTransform="translate(210 50.8702) rotate(90) scale(795.63 1733.36)">
<stop stop-color="#000D85"/>
<stop offset="0.225733" stop-color="#7011CE"/>
<stop offset="0.652253" stop-color="#FF5D53"/>
<stop offset="1" stop-color="#F5F95A"/>
</radialGradient>
<radialGradient id="paint1_radial_44_42" cx="0" cy="0" r="1" gradientUnits="userSpaceOnUse" gradientTransform="translate(137.5 50.8702) rotate(90) scale(795.63 1171.19)">
<stop stop-color="#000D85"/>
<stop offset="0.225733" stop-color="#7011CE"/>
<stop offset="0.652253" stop-color="#FF5D53"/>
<stop offset="1" stop-color="#F5F95A"/>
</radialGradient>
<radialGradient id="paint2_radial_44_42" cx="0" cy="0" r="1" gradientUnits="userSpaceOnUse" gradientTransform="translate(870.5 50.8702) rotate(90) scale(795.63 1550.23)">
<stop stop-color="#000D85"/>
<stop offset="0.225733" stop-color="#7011CE"/>
<stop offset="0.652253" stop-color="#FF5D53"/>
<stop offset="1" stop-color="#F5F95A"/>
</radialGradient>
<radialGradient id="paint3_radial_44_42" cx="0" cy="0" r="1" gradientUnits="userSpaceOnUse" gradientTransform="translate(197 50.8702) rotate(90) scale(795.63 1677.99)">
<stop stop-color="#000D85"/>
<stop offset="0.225733" stop-color="#7011CE"/>
<stop offset="0.652253" stop-color="#FF5D53"/>
<stop offset="1" stop-color="#F5F95A"/>
</radialGradient>
<linearGradient id="paint4_linear_44_42" x1="1409" y1="547.5" x2="588.5" y2="842.5" gradientUnits="userSpaceOnUse">
<stop stop-color="#C97FE2"/>
<stop offset="0.491021" stop-color="#FF594F"/>
<stop offset="0.732053" stop-color="#38368F"/>
<stop offset="1" stop-color="#E2857F"/>
</linearGradient>
<linearGradient id="paint5_linear_44_42" x1="910" y1="392" x2="722.25" y2="926" gradientUnits="userSpaceOnUse">
<stop stop-color="#EBB3F0"/>
<stop offset="1" stop-color="#C597D6"/>
</linearGradient>
<linearGradient id="paint6_linear_44_42" x1="441.5" y1="660.5" x2="39.5" y2="1126.5" gradientUnits="userSpaceOnUse">
<stop offset="0.299092" stop-color="#9F6BB1"/>
<stop offset="0.982227" stop-color="#9F6BB1"/>
<stop offset="1" stop-color="white" stop-opacity="0.25"/>
</linearGradient>
<linearGradient id="paint7_linear_44_42" x1="1004" y1="839.572" x2="260.606" y2="1063.77" gradientUnits="userSpaceOnUse">
<stop stop-color="#341B55"/>
<stop offset="1" stop-color="#4E2B7B"/>
</linearGradient>
</defs>
</svg>
