<svg width="1600" height="960" viewBox="0 0 1600 960" fill="none" xmlns="http://www.w3.org/2000/svg">
<g clip-path="url(#clip0)">
<rect width="1600" height="960" fill="url(#paint0_linear)"/>
<circle cx="660" cy="660" r="440" fill="url(#paint1_linear)" style="mix-blend-mode:hard-light"/>
<rect x="-1221.01" y="660" width="1840" height="1840" transform="rotate(-45 -1221.01 660)" stroke="url(#paint2_linear)" stroke-width="140" style="mix-blend-mode:hard-light"/>
</g>
<path d="M664.551 539H698.071V529.872H675.622V486.636H664.551V539ZM720.216 539.767C729.932 539.767 736.477 535.037 738.011 527.75L727.937 527.085C726.838 530.077 724.026 531.636 720.395 531.636C714.949 531.636 711.497 528.031 711.497 522.176V522.151H738.241V519.159C738.241 505.812 730.162 499.216 719.781 499.216C708.224 499.216 700.733 507.423 700.733 519.543C700.733 531.994 708.122 539.767 720.216 539.767ZM711.497 515.401C711.727 510.926 715.128 507.347 719.96 507.347C724.69 507.347 727.963 510.722 727.989 515.401H711.497ZM760.367 539.767C770.083 539.767 776.628 535.037 778.163 527.75L768.089 527.085C766.989 530.077 764.177 531.636 760.546 531.636C755.1 531.636 751.648 528.031 751.648 522.176V522.151H778.393V519.159C778.393 505.812 770.313 499.216 759.932 499.216C748.376 499.216 740.884 507.423 740.884 519.543C740.884 531.994 748.273 539.767 760.367 539.767ZM751.648 515.401C751.878 510.926 755.279 507.347 760.111 507.347C764.842 507.347 768.114 510.722 768.14 515.401H751.648ZM803.51 499.727H796.121V490.318H785.229V499.727H779.859V507.909H785.229V528.364C785.177 536.06 790.419 539.869 798.32 539.537C801.132 539.435 803.126 538.872 804.226 538.514L802.513 530.409C801.976 530.511 800.825 530.767 799.802 530.767C797.629 530.767 796.121 529.949 796.121 526.932V507.909H803.51V499.727ZM825.047 539.767C835.505 539.767 842.076 533.631 842.587 524.605H832.309C831.67 528.798 828.908 531.151 825.175 531.151C820.087 531.151 816.789 526.881 816.789 519.364C816.789 511.949 820.113 507.705 825.175 507.705C829.164 507.705 831.721 510.338 832.309 514.25H842.587C842.127 505.173 835.249 499.216 824.996 499.216C813.082 499.216 805.718 507.474 805.718 519.517C805.718 531.457 812.954 539.767 825.047 539.767ZM864.425 539.767C876.34 539.767 883.755 531.611 883.755 519.517C883.755 507.347 876.34 499.216 864.425 499.216C852.511 499.216 845.096 507.347 845.096 519.517C845.096 531.611 852.511 539.767 864.425 539.767ZM864.476 531.33C858.979 531.33 856.167 526.293 856.167 519.44C856.167 512.588 858.979 507.526 864.476 507.526C869.871 507.526 872.684 512.588 872.684 519.44C872.684 526.293 869.871 531.33 864.476 531.33ZM902.429 539.639C908.77 539.639 912.068 535.983 913.577 532.71H914.037V539H924.775V486.636H913.909V506.324H913.577C912.119 503.128 908.974 499.216 902.403 499.216C893.787 499.216 886.5 505.915 886.5 519.415C886.5 532.557 893.48 539.639 902.429 539.639ZM905.881 530.972C900.537 530.972 897.622 526.216 897.622 519.364C897.622 512.562 900.486 507.884 905.881 507.884C911.173 507.884 914.139 512.358 914.139 519.364C914.139 526.369 911.122 530.972 905.881 530.972ZM948.748 539.767C958.464 539.767 965.01 535.037 966.544 527.75L956.47 527.085C955.371 530.077 952.558 531.636 948.927 531.636C943.481 531.636 940.03 528.031 940.03 522.176V522.151H966.774V519.159C966.774 505.812 958.694 499.216 948.314 499.216C936.757 499.216 929.265 507.423 929.265 519.543C929.265 531.994 936.655 539.767 948.748 539.767ZM940.03 515.401C940.26 510.926 943.66 507.347 948.493 507.347C953.223 507.347 956.496 510.722 956.521 515.401H940.03ZM984.99 486.636V539H995.729V504.79H996.164L1009.71 538.744H1017.03L1030.58 504.918H1031.01V539H1041.75V486.636H1028.1L1013.68 521.818H1013.06L998.644 486.636H984.99ZM1047.79 539H1058.68V499.727H1047.79V539ZM1053.26 494.665C1056.51 494.665 1059.17 492.185 1059.17 489.142C1059.17 486.125 1056.51 483.645 1053.26 483.645C1050.04 483.645 1047.38 486.125 1047.38 489.142C1047.38 492.185 1050.04 494.665 1053.26 494.665ZM1075.42 516.295C1075.44 511.233 1078.46 508.267 1082.86 508.267C1087.23 508.267 1089.86 511.131 1089.84 515.938V539H1100.73V513.994C1100.73 504.841 1095.36 499.216 1087.18 499.216C1081.35 499.216 1077.13 502.08 1075.37 506.656H1074.91V499.727H1064.53V539H1075.42V516.295ZM1139.11 510.926C1138.14 503.69 1132.31 499.216 1122.39 499.216C1112.34 499.216 1105.72 503.869 1105.74 511.438C1105.72 517.318 1109.43 521.128 1117.1 522.662L1123.9 524.017C1127.32 524.707 1128.88 525.96 1128.94 527.929C1128.88 530.256 1126.35 531.918 1122.54 531.918C1118.66 531.918 1116.07 530.256 1115.41 527.06L1104.7 527.622C1105.72 535.139 1112.11 539.767 1122.52 539.767C1132.69 539.767 1139.98 534.577 1140.01 526.83C1139.98 521.153 1136.27 517.753 1128.65 516.193L1121.55 514.761C1117.89 513.969 1116.53 512.716 1116.56 510.824C1116.53 508.472 1119.19 506.938 1122.57 506.938C1126.35 506.938 1128.6 509.009 1129.14 511.54L1139.11 510.926ZM1164.87 499.727H1157.48V490.318H1146.59V499.727H1141.22V507.909H1146.59V528.364C1146.54 536.06 1151.78 539.869 1159.68 539.537C1162.5 539.435 1164.49 538.872 1165.59 538.514L1163.88 530.409C1163.34 530.511 1162.19 530.767 1161.17 530.767C1158.99 530.767 1157.48 529.949 1157.48 526.932V507.909H1164.87V499.727ZM1180.29 539.741C1186.09 539.741 1189.85 537.21 1191.77 533.554H1192.07V539H1202.4V512.511C1202.4 503.153 1194.48 499.216 1185.73 499.216C1176.32 499.216 1170.14 503.716 1168.63 510.875L1178.7 511.693C1179.44 509.085 1181.77 507.168 1185.68 507.168C1189.39 507.168 1191.51 509.034 1191.51 512.256V512.409C1191.51 514.94 1188.83 515.273 1182 515.938C1174.23 516.653 1167.25 519.261 1167.25 528.031C1167.25 535.804 1172.8 539.741 1180.29 539.741ZM1183.41 532.224C1180.06 532.224 1177.65 530.665 1177.65 527.673C1177.65 524.605 1180.19 523.097 1184.02 522.56C1186.4 522.227 1190.29 521.665 1191.59 520.795V524.963C1191.59 529.08 1188.19 532.224 1183.41 532.224ZM1225.72 539.767C1236.18 539.767 1242.75 533.631 1243.26 524.605H1232.98C1232.34 528.798 1229.58 531.151 1225.85 531.151C1220.76 531.151 1217.46 526.881 1217.46 519.364C1217.46 511.949 1220.78 507.705 1225.85 507.705C1229.84 507.705 1232.39 510.338 1232.98 514.25H1243.26C1242.8 505.173 1235.92 499.216 1225.67 499.216C1213.75 499.216 1206.39 507.474 1206.39 519.517C1206.39 531.457 1213.63 539.767 1225.72 539.767ZM1247.35 539H1258.24V526.523L1261.18 523.173L1271.9 539H1284.66L1269.34 516.73L1283.92 499.727H1271.41L1258.83 514.634H1258.24V486.636H1247.35V539ZM685.517 551.636V588.148C685.491 593.185 683.241 595.844 679.151 595.844C675.29 595.844 672.784 593.44 672.707 589.273H661.688C661.636 599.73 669.102 604.716 678.588 604.716C689.199 604.716 696.435 598.298 696.46 588.148V551.636H685.517ZM713.728 604.741C719.532 604.741 723.29 602.21 725.208 598.554H725.515V604H735.844V577.511C735.844 568.153 727.918 564.216 719.174 564.216C709.765 564.216 703.577 568.716 702.069 575.875L712.143 576.693C712.884 574.085 715.211 572.168 719.123 572.168C722.83 572.168 724.952 574.034 724.952 577.256V577.409C724.952 579.94 722.268 580.273 715.441 580.938C707.668 581.653 700.688 584.261 700.688 593.031C700.688 600.804 706.236 604.741 713.728 604.741ZM716.847 597.224C713.498 597.224 711.094 595.665 711.094 592.673C711.094 589.605 713.626 588.097 717.461 587.56C719.839 587.227 723.725 586.665 725.029 585.795V589.963C725.029 594.08 721.629 597.224 716.847 597.224ZM776.622 564.727H765.091L756.96 592.827H756.551L748.395 564.727H736.889L750.619 604H762.892L776.622 564.727ZM789.39 604.741C795.194 604.741 798.952 602.21 800.87 598.554H801.177V604H811.506V577.511C811.506 568.153 803.58 564.216 794.836 564.216C785.427 564.216 779.239 568.716 777.731 575.875L787.805 576.693C788.546 574.085 790.873 572.168 794.785 572.168C798.492 572.168 800.614 574.034 800.614 577.256V577.409C800.614 579.94 797.93 580.273 791.103 580.938C783.33 581.653 776.35 584.261 776.35 593.031C776.35 600.804 781.898 604.741 789.39 604.741ZM792.509 597.224C789.16 597.224 786.756 595.665 786.756 592.673C786.756 589.605 789.288 588.097 793.123 587.56C795.501 587.227 799.387 586.665 800.691 585.795V589.963C800.691 594.08 797.29 597.224 792.509 597.224ZM849.753 575.926C848.781 568.69 842.952 564.216 833.031 564.216C822.983 564.216 816.361 568.869 816.386 576.438C816.361 582.318 820.068 586.128 827.739 587.662L834.54 589.017C837.966 589.707 839.525 590.96 839.577 592.929C839.525 595.256 836.994 596.918 833.185 596.918C829.298 596.918 826.716 595.256 826.051 592.06L815.338 592.622C816.361 600.139 822.753 604.767 833.159 604.767C843.335 604.767 850.622 599.577 850.648 591.83C850.622 586.153 846.915 582.753 839.295 581.193L832.187 579.761C828.531 578.969 827.176 577.716 827.202 575.824C827.176 573.472 829.835 571.938 833.21 571.938C836.994 571.938 839.244 574.009 839.781 576.54L849.753 575.926ZM872.371 604.767C882.828 604.767 889.399 598.631 889.91 589.605H879.632C878.993 593.798 876.231 596.151 872.498 596.151C867.41 596.151 864.112 591.881 864.112 584.364C864.112 576.949 867.436 572.705 872.498 572.705C876.487 572.705 879.044 575.338 879.632 579.25H889.91C889.45 570.173 882.572 564.216 872.319 564.216C860.405 564.216 853.041 572.474 853.041 584.517C853.041 596.457 860.277 604.767 872.371 604.767ZM894.004 604H904.896V581.781C904.896 576.949 908.425 573.625 913.231 573.625C914.74 573.625 916.811 573.881 917.834 574.213V564.548C916.862 564.318 915.507 564.165 914.408 564.165C910.01 564.165 906.405 566.722 904.973 571.58H904.564V564.727H894.004V604ZM920.585 604H931.477V564.727H920.585V604ZM926.057 559.665C929.304 559.665 931.963 557.185 931.963 554.142C931.963 551.125 929.304 548.645 926.057 548.645C922.835 548.645 920.176 551.125 920.176 554.142C920.176 557.185 922.835 559.665 926.057 559.665ZM937.322 618.727H948.214V597.71H948.547C950.055 600.983 953.353 604.639 959.694 604.639C968.643 604.639 975.623 597.557 975.623 584.415C975.623 570.915 968.336 564.216 959.72 564.216C953.149 564.216 950.004 568.128 948.547 571.324H948.061V564.727H937.322V618.727ZM947.984 584.364C947.984 577.358 950.95 572.884 956.243 572.884C961.638 572.884 964.501 577.562 964.501 584.364C964.501 591.216 961.586 595.972 956.243 595.972C951.001 595.972 947.984 591.369 947.984 584.364ZM1000.89 564.727H993.505V555.318H982.613V564.727H977.243V572.909H982.613V593.364C982.562 601.06 987.803 604.869 995.704 604.537C998.516 604.435 1000.51 603.872 1001.61 603.514L999.897 595.409C999.36 595.511 998.209 595.767 997.187 595.767C995.013 595.767 993.505 594.949 993.505 591.932V572.909H1000.89V564.727ZM1047.5 566.696H1058.11C1057.96 557.364 1050.29 550.92 1038.63 550.92C1027.15 550.92 1018.74 557.261 1018.79 566.773C1018.77 574.494 1024.21 578.918 1033.06 581.04L1038.76 582.472C1044.46 583.852 1047.63 585.489 1047.66 589.017C1047.63 592.852 1044 595.46 1038.38 595.46C1032.62 595.46 1028.48 592.801 1028.12 587.56H1017.41C1017.69 598.886 1025.8 604.741 1038.5 604.741C1051.29 604.741 1058.81 598.631 1058.83 589.043C1058.81 580.324 1052.23 575.696 1043.13 573.651L1038.43 572.526C1033.88 571.477 1030.07 569.79 1030.14 566.031C1030.14 562.656 1033.13 560.176 1038.56 560.176C1043.85 560.176 1047.09 562.58 1047.5 566.696ZM1080.94 604.767C1092.85 604.767 1100.27 596.611 1100.27 584.517C1100.27 572.347 1092.85 564.216 1080.94 564.216C1069.02 564.216 1061.61 572.347 1061.61 584.517C1061.61 596.611 1069.02 604.767 1080.94 604.767ZM1080.99 596.33C1075.49 596.33 1072.68 591.293 1072.68 584.44C1072.68 577.588 1075.49 572.526 1080.99 572.526C1086.38 572.526 1089.2 577.588 1089.2 584.44C1089.2 591.293 1086.38 596.33 1080.99 596.33ZM1115.36 551.636H1104.47V604H1115.36V551.636ZM1146.39 587.278C1146.42 592.545 1142.81 595.307 1138.9 595.307C1134.78 595.307 1132.12 592.418 1132.1 587.79V564.727H1121.21V589.733C1121.23 598.912 1126.6 604.511 1134.5 604.511C1140.41 604.511 1144.65 601.469 1146.42 596.866H1146.83V604H1157.28V564.727H1146.39V587.278ZM1184 564.727H1176.62V555.318H1165.72V564.727H1160.35V572.909H1165.72V593.364C1165.67 601.06 1170.91 604.869 1178.81 604.537C1181.63 604.435 1183.62 603.872 1184.72 603.514L1183.01 595.409C1182.47 595.511 1181.32 595.767 1180.3 595.767C1178.12 595.767 1176.62 594.949 1176.62 591.932V572.909H1184V564.727ZM1188.22 604H1199.11V564.727H1188.22V604ZM1193.69 559.665C1196.94 559.665 1199.6 557.185 1199.6 554.142C1199.6 551.125 1196.94 548.645 1193.69 548.645C1190.47 548.645 1187.81 551.125 1187.81 554.142C1187.81 557.185 1190.47 559.665 1193.69 559.665ZM1222.7 604.767C1234.62 604.767 1242.03 596.611 1242.03 584.517C1242.03 572.347 1234.62 564.216 1222.7 564.216C1210.79 564.216 1203.37 572.347 1203.37 584.517C1203.37 596.611 1210.79 604.767 1222.7 604.767ZM1222.75 596.33C1217.26 596.33 1214.44 591.293 1214.44 584.44C1214.44 577.588 1217.26 572.526 1222.75 572.526C1228.15 572.526 1230.96 577.588 1230.96 584.44C1230.96 591.293 1228.15 596.33 1222.75 596.33ZM1257.13 581.295C1257.15 576.233 1260.17 573.267 1264.57 573.267C1268.94 573.267 1271.57 576.131 1271.55 580.938V604H1282.44V578.994C1282.44 569.841 1277.07 564.216 1268.89 564.216C1263.06 564.216 1258.84 567.08 1257.07 571.656H1256.61V564.727H1246.23V604H1257.13V581.295Z" fill="white"/>
<defs>
<linearGradient id="paint0_linear" x1="0" y1="480" x2="1600" y2="480" gradientUnits="userSpaceOnUse">
<stop offset="0.0191516" stop-color="#09DACF"/>
<stop offset="0.5" stop-color="#F3A4E9"/>
<stop offset="1" stop-color="#488455"/>
</linearGradient>
<linearGradient id="paint1_linear" x1="220" y1="660" x2="1100" y2="660" gradientUnits="userSpaceOnUse">
<stop stop-color="#09CAE5"/>
<stop offset="1" stop-color="#09ED97"/>
</linearGradient>
<linearGradient id="paint2_linear" x1="-1320" y1="1650" x2="660" y2="1650" gradientUnits="userSpaceOnUse">
<stop stop-color="#6A11CB"/>
<stop offset="1" stop-color="#2575FC"/>
</linearGradient>
<clipPath id="clip0">
<rect width="1600" height="960" fill="white"/>
</clipPath>
</defs>
</svg>
