<svg width="1600" height="960" viewBox="0 0 1600 960" fill="none" xmlns="http://www.w3.org/2000/svg">
<g clip-path="url(#clip0)">
<path d="M1760 0H-160V960H1760V0Z" fill="#7A69BE"/>
<path d="M1612.47 980.41C1809.33 980.41 1968.92 820.822 1968.92 623.962C1968.92 427.101 1809.33 267.514 1612.47 267.514C1415.61 267.514 1256.02 427.101 1256.02 623.962C1256.02 820.822 1415.61 980.41 1612.47 980.41Z" fill="url(#paint0_linear)"/>
<path d="M883.731 1431.4C1080.59 1431.4 1240.18 1271.81 1240.18 1074.95C1240.18 878.09 1080.59 718.502 883.731 718.502C686.87 718.502 527.283 878.09 527.283 1074.95C527.283 1271.81 686.87 1431.4 883.731 1431.4Z" stroke="#F8F0E4" stroke-miterlimit="10"/>
<path d="M1634.95 493.709C1831.81 493.709 1991.4 334.122 1991.4 137.261C1991.4 -59.6 1831.81 -219.187 1634.95 -219.187C1438.09 -219.187 1278.5 -59.6 1278.5 137.261C1278.5 334.122 1438.09 493.709 1634.95 493.709Z" stroke="#F8F0E4" stroke-miterlimit="10"/>
<path d="M973.626 356.39C1022.7 356.39 1062.48 316.607 1062.48 267.533C1062.48 218.458 1022.7 178.675 973.626 178.675C924.551 178.675 884.768 218.458 884.768 267.533C884.768 316.607 924.551 356.39 973.626 356.39Z" fill="url(#paint1_linear)"/>
<path d="M404.883 820.032C421.934 820.032 435.757 806.21 435.757 789.159C435.757 772.108 421.934 758.285 404.883 758.285C387.832 758.285 374.01 772.108 374.01 789.159C374.01 806.21 387.832 820.032 404.883 820.032Z" fill="url(#paint2_linear)"/>
<path d="M1278.5 1200.13C1411.5 1200.13 1519.31 1092.32 1519.31 959.328C1519.31 826.334 1411.5 718.522 1278.5 718.522C1145.51 718.522 1037.7 826.334 1037.7 959.328C1037.7 1092.32 1145.51 1200.13 1278.5 1200.13Z" fill="url(#paint3_linear)"/>
<path d="M79.3281 789.158C276.189 789.158 435.776 629.571 435.776 432.71C435.776 235.85 276.189 76.2624 79.3281 76.2624C-117.533 76.2624 -277.12 235.85 -277.12 432.71C-277.12 629.571 -117.533 789.158 79.3281 789.158Z" fill="url(#paint4_linear)"/>
<path d="M79.328 240.134C212.322 240.134 320.134 132.322 320.134 -0.672028C320.134 -133.666 212.322 -241.478 79.328 -241.478C-53.6656 -241.478 -161.478 -133.666 -161.478 -0.672028C-161.478 132.322 -53.6656 240.134 79.328 240.134Z" fill="url(#paint5_linear)"/>
<path d="M299.89 352.703C299.997 323.765 276.625 300.219 247.688 300.112C218.75 300.005 195.204 323.377 195.097 352.315C194.989 381.253 218.361 404.798 247.299 404.906C276.237 405.013 299.783 381.641 299.89 352.703Z" stroke="#F8F0E4" stroke-miterlimit="10"/>
<path d="M1488.24 34.3872L1432.91 89.7024" stroke="#F8F0E4" stroke-miterlimit="10"/>
<path d="M1488.24 89.7024L1432.91 34.3872" stroke="#F8F0E4" stroke-miterlimit="10"/>
<path d="M1488.24 109.594L1432.91 164.928" stroke="#F8F0E4" stroke-miterlimit="10"/>
<path d="M1488.24 164.928L1432.91 109.594" stroke="#F8F0E4" stroke-miterlimit="10"/>
<path d="M1488.24 184.8L1432.91 240.134" stroke="#F8F0E4" stroke-miterlimit="10"/>
<path d="M1488.24 240.134L1432.91 184.8" stroke="#F8F0E4" stroke-miterlimit="10"/>
<path d="M114.387 870.662L169.702 925.997" stroke="#F8F0E4" stroke-miterlimit="10"/>
<path d="M169.702 870.662L114.387 925.997" stroke="#F8F0E4" stroke-miterlimit="10"/>
<path d="M189.594 870.662L244.928 925.997" stroke="#F8F0E4" stroke-miterlimit="10"/>
<path d="M244.928 870.662L189.594 925.997" stroke="#F8F0E4" stroke-miterlimit="10"/>
<path d="M264.8 870.662L320.134 925.997" stroke="#F8F0E4" stroke-miterlimit="10"/>
<path d="M320.134 870.662L264.8 925.997" stroke="#F8F0E4" stroke-miterlimit="10"/>
<rect width="1440" height="263" transform="translate(133 280)" fill="url(#paint6_linear)"/>
<circle cx="1440.5" cy="538.5" r="4.5" fill="#F9D6FF"/>
<rect x="133" y="280" width="1440" height="94" fill="url(#paint7_linear)"/>
<path d="M832.257 334.308V345.46H830.801V340.404H825.121V345.46H823.665V334.308H825.121V339.204H830.801V334.308H832.257ZM838.567 345.604C837.746 345.604 836.999 345.418 836.327 345.044C835.666 344.671 835.143 344.143 834.759 343.46C834.386 342.767 834.199 341.967 834.199 341.06C834.199 340.164 834.391 339.375 834.775 338.692C835.17 337.999 835.703 337.471 836.375 337.108C837.047 336.735 837.799 336.548 838.631 336.548C839.463 336.548 840.215 336.735 840.887 337.108C841.559 337.471 842.087 337.994 842.471 338.676C842.866 339.359 843.063 340.154 843.063 341.06C843.063 341.967 842.861 342.767 842.455 343.46C842.061 344.143 841.522 344.671 840.839 345.044C840.157 345.418 839.399 345.604 838.567 345.604ZM838.567 344.324C839.09 344.324 839.581 344.202 840.039 343.956C840.498 343.711 840.866 343.343 841.143 342.852C841.431 342.362 841.575 341.764 841.575 341.06C841.575 340.356 841.437 339.759 841.159 339.268C840.882 338.778 840.519 338.415 840.071 338.18C839.623 337.935 839.138 337.812 838.615 337.812C838.082 337.812 837.591 337.935 837.143 338.18C836.706 338.415 836.354 338.778 836.087 339.268C835.821 339.759 835.687 340.356 835.687 341.06C835.687 341.775 835.815 342.378 836.071 342.868C836.338 343.359 836.69 343.727 837.127 343.972C837.565 344.207 838.045 344.324 838.567 344.324ZM855.522 336.532C856.205 336.532 856.813 336.676 857.346 336.964C857.879 337.242 858.301 337.663 858.61 338.228C858.919 338.794 859.074 339.482 859.074 340.292V345.46H857.634V340.5C857.634 339.626 857.415 338.959 856.978 338.5C856.551 338.031 855.97 337.796 855.234 337.796C854.477 337.796 853.874 338.042 853.426 338.532C852.978 339.012 852.754 339.711 852.754 340.628V345.46H851.314V340.5C851.314 339.626 851.095 338.959 850.658 338.5C850.231 338.031 849.65 337.796 848.914 337.796C848.157 337.796 847.554 338.042 847.106 338.532C846.658 339.012 846.434 339.711 846.434 340.628V345.46H844.978V336.692H846.434V337.956C846.722 337.498 847.106 337.146 847.586 336.9C848.077 336.655 848.615 336.532 849.202 336.532C849.938 336.532 850.589 336.698 851.154 337.028C851.719 337.359 852.141 337.844 852.418 338.484C852.663 337.866 853.069 337.386 853.634 337.044C854.199 336.703 854.829 336.532 855.522 336.532ZM869.462 340.74C869.462 341.018 869.446 341.311 869.414 341.62H862.406C862.46 342.484 862.753 343.162 863.286 343.652C863.83 344.132 864.486 344.372 865.254 344.372C865.884 344.372 866.406 344.228 866.822 343.94C867.249 343.642 867.548 343.247 867.718 342.756H869.286C869.052 343.599 868.582 344.287 867.878 344.82C867.174 345.343 866.3 345.604 865.254 345.604C864.422 345.604 863.676 345.418 863.014 345.044C862.364 344.671 861.852 344.143 861.478 343.46C861.105 342.767 860.918 341.967 860.918 341.06C860.918 340.154 861.1 339.359 861.462 338.676C861.825 337.994 862.332 337.471 862.982 337.108C863.644 336.735 864.401 336.548 865.254 336.548C866.086 336.548 866.822 336.73 867.462 337.092C868.102 337.455 868.593 337.956 868.934 338.596C869.286 339.226 869.462 339.94 869.462 340.74ZM867.958 340.436C867.958 339.882 867.836 339.407 867.59 339.012C867.345 338.607 867.009 338.303 866.582 338.1C866.166 337.887 865.702 337.78 865.19 337.78C864.454 337.78 863.825 338.015 863.302 338.484C862.79 338.954 862.497 339.604 862.422 340.436H867.958Z" fill="black"/>
<path d="M968.354 342.98H963.49L962.594 345.46H961.058L965.09 334.372H966.77L970.786 345.46H969.25L968.354 342.98ZM967.938 341.796L965.922 336.164L963.906 341.796H967.938ZM973.999 338.324C974.298 337.802 974.735 337.375 975.311 337.044C975.887 336.714 976.543 336.548 977.279 336.548C978.069 336.548 978.778 336.735 979.407 337.108C980.037 337.482 980.533 338.01 980.895 338.692C981.258 339.364 981.439 340.148 981.439 341.044C981.439 341.93 981.258 342.719 980.895 343.412C980.533 344.106 980.031 344.644 979.391 345.028C978.762 345.412 978.058 345.604 977.279 345.604C976.522 345.604 975.855 345.439 975.279 345.108C974.714 344.778 974.287 344.356 973.999 343.844V345.46H972.543V333.62H973.999V338.324ZM979.951 341.044C979.951 340.383 979.818 339.807 979.551 339.316C979.285 338.826 978.922 338.452 978.463 338.196C978.015 337.94 977.519 337.812 976.975 337.812C976.442 337.812 975.946 337.946 975.487 338.212C975.039 338.468 974.677 338.847 974.399 339.348C974.133 339.839 973.999 340.41 973.999 341.06C973.999 341.722 974.133 342.303 974.399 342.804C974.677 343.295 975.039 343.674 975.487 343.94C975.946 344.196 976.442 344.324 976.975 344.324C977.519 344.324 978.015 344.196 978.463 343.94C978.922 343.674 979.285 343.295 979.551 342.804C979.818 342.303 979.951 341.716 979.951 341.044ZM987.18 345.604C986.358 345.604 985.612 345.418 984.94 345.044C984.278 344.671 983.756 344.143 983.372 343.46C982.998 342.767 982.812 341.967 982.812 341.06C982.812 340.164 983.004 339.375 983.388 338.692C983.782 337.999 984.316 337.471 984.988 337.108C985.66 336.735 986.412 336.548 987.244 336.548C988.076 336.548 988.828 336.735 989.5 337.108C990.172 337.471 990.7 337.994 991.084 338.676C991.478 339.359 991.676 340.154 991.676 341.06C991.676 341.967 991.473 342.767 991.068 343.46C990.673 344.143 990.134 344.671 989.452 345.044C988.769 345.418 988.012 345.604 987.18 345.604ZM987.18 344.324C987.702 344.324 988.193 344.202 988.652 343.956C989.11 343.711 989.478 343.343 989.756 342.852C990.044 342.362 990.188 341.764 990.188 341.06C990.188 340.356 990.049 339.759 989.772 339.268C989.494 338.778 989.132 338.415 988.684 338.18C988.236 337.935 987.75 337.812 987.228 337.812C986.694 337.812 986.204 337.935 985.756 338.18C985.318 338.415 984.966 338.778 984.7 339.268C984.433 339.759 984.3 340.356 984.3 341.06C984.3 341.775 984.428 342.378 984.684 342.868C984.95 343.359 985.302 343.727 985.74 343.972C986.177 344.207 986.657 344.324 987.18 344.324ZM1001.37 336.692V345.46H999.91V344.164C999.633 344.612 999.243 344.964 998.742 345.22C998.251 345.466 997.707 345.588 997.11 345.588C996.427 345.588 995.814 345.45 995.27 345.172C994.726 344.884 994.294 344.458 993.974 343.892C993.665 343.327 993.51 342.639 993.51 341.828V336.692H994.95V341.636C994.95 342.5 995.169 343.167 995.606 343.636C996.043 344.095 996.641 344.324 997.398 344.324C998.177 344.324 998.79 344.084 999.238 343.604C999.686 343.124 999.91 342.426 999.91 341.508V336.692H1001.37ZM1005.6 337.892V343.06C1005.6 343.487 1005.69 343.791 1005.87 343.972C1006.05 344.143 1006.37 344.228 1006.82 344.228H1007.89V345.46H1006.58C1005.77 345.46 1005.16 345.274 1004.75 344.9C1004.35 344.527 1004.14 343.914 1004.14 343.06V337.892H1003.01V336.692H1004.14V334.484H1005.6V336.692H1007.89V337.892H1005.6ZM1021.69 336.692V345.46H1020.24V344.164C1019.96 344.612 1019.57 344.964 1019.07 345.22C1018.58 345.466 1018.04 345.588 1017.44 345.588C1016.76 345.588 1016.14 345.45 1015.6 345.172C1015.05 344.884 1014.62 344.458 1014.3 343.892C1013.99 343.327 1013.84 342.639 1013.84 341.828V336.692H1015.28V341.636C1015.28 342.5 1015.5 343.167 1015.93 343.636C1016.37 344.095 1016.97 344.324 1017.73 344.324C1018.5 344.324 1019.12 344.084 1019.57 343.604C1020.01 343.124 1020.24 342.426 1020.24 341.508V336.692H1021.69ZM1027.26 345.604C1026.58 345.604 1025.98 345.492 1025.45 345.268C1024.92 345.034 1024.49 344.714 1024.18 344.308C1023.88 343.892 1023.7 343.418 1023.67 342.884H1025.18C1025.22 343.322 1025.42 343.679 1025.78 343.956C1026.16 344.234 1026.64 344.372 1027.24 344.372C1027.8 344.372 1028.23 344.25 1028.55 344.004C1028.87 343.759 1029.03 343.45 1029.03 343.076C1029.03 342.692 1028.86 342.41 1028.52 342.228C1028.18 342.036 1027.65 341.85 1026.94 341.668C1026.29 341.498 1025.75 341.327 1025.34 341.156C1024.93 340.975 1024.58 340.714 1024.28 340.372C1023.99 340.02 1023.85 339.562 1023.85 338.996C1023.85 338.548 1023.98 338.138 1024.25 337.764C1024.52 337.391 1024.89 337.098 1025.38 336.884C1025.88 336.66 1026.44 336.548 1027.06 336.548C1028.04 336.548 1028.82 336.794 1029.42 337.284C1030.01 337.775 1030.33 338.447 1030.38 339.3H1028.92C1028.89 338.842 1028.7 338.474 1028.36 338.196C1028.03 337.919 1027.58 337.78 1027.02 337.78C1026.49 337.78 1026.08 337.892 1025.77 338.116C1025.46 338.34 1025.3 338.634 1025.3 338.996C1025.3 339.284 1025.4 339.524 1025.58 339.716C1025.77 339.898 1026 340.047 1026.28 340.164C1026.57 340.271 1026.96 340.394 1027.46 340.532C1028.09 340.703 1028.61 340.874 1029 341.044C1029.4 341.204 1029.73 341.45 1030.01 341.78C1030.3 342.111 1030.45 342.543 1030.46 343.076C1030.46 343.556 1030.32 343.988 1030.06 344.372C1029.79 344.756 1029.41 345.06 1028.92 345.284C1028.44 345.498 1027.89 345.604 1027.26 345.604Z" fill="black"/>
<path d="M1114.99 345.572C1114.25 345.572 1113.59 345.444 1113.01 345.188C1112.43 344.922 1111.98 344.559 1111.65 344.1C1111.32 343.631 1111.15 343.092 1111.13 342.484H1112.69C1112.74 343.007 1112.95 343.45 1113.33 343.812C1113.71 344.164 1114.27 344.34 1114.99 344.34C1115.68 344.34 1116.23 344.17 1116.62 343.828C1117.03 343.476 1117.23 343.028 1117.23 342.484C1117.23 342.058 1117.11 341.711 1116.88 341.444C1116.64 341.178 1116.35 340.975 1116 340.836C1115.65 340.698 1115.17 340.548 1114.57 340.388C1113.84 340.196 1113.25 340.004 1112.8 339.812C1112.36 339.62 1111.98 339.322 1111.66 338.916C1111.35 338.5 1111.2 337.946 1111.2 337.252C1111.2 336.644 1111.35 336.106 1111.66 335.636C1111.97 335.167 1112.4 334.804 1112.96 334.548C1113.52 334.292 1114.17 334.164 1114.89 334.164C1115.94 334.164 1116.79 334.426 1117.45 334.948C1118.13 335.471 1118.51 336.164 1118.59 337.028H1116.99C1116.94 336.602 1116.71 336.228 1116.32 335.908C1115.92 335.578 1115.4 335.412 1114.75 335.412C1114.14 335.412 1113.65 335.572 1113.26 335.892C1112.88 336.202 1112.69 336.639 1112.69 337.204C1112.69 337.61 1112.8 337.94 1113.02 338.196C1113.26 338.452 1113.54 338.65 1113.87 338.788C1114.21 338.916 1114.69 339.066 1115.29 339.236C1116.03 339.439 1116.62 339.642 1117.07 339.844C1117.52 340.036 1117.9 340.34 1118.22 340.756C1118.54 341.162 1118.7 341.716 1118.7 342.42C1118.7 342.964 1118.56 343.476 1118.27 343.956C1117.98 344.436 1117.56 344.826 1116.99 345.124C1116.43 345.423 1115.76 345.572 1114.99 345.572ZM1128.85 340.74C1128.85 341.018 1128.83 341.311 1128.8 341.62H1121.79C1121.84 342.484 1122.14 343.162 1122.67 343.652C1123.21 344.132 1123.87 344.372 1124.64 344.372C1125.27 344.372 1125.79 344.228 1126.21 343.94C1126.63 343.642 1126.93 343.247 1127.1 342.756H1128.67C1128.43 343.599 1127.97 344.287 1127.26 344.82C1126.56 345.343 1125.68 345.604 1124.64 345.604C1123.81 345.604 1123.06 345.418 1122.4 345.044C1121.75 344.671 1121.23 344.143 1120.86 343.46C1120.49 342.767 1120.3 341.967 1120.3 341.06C1120.3 340.154 1120.48 339.359 1120.85 338.676C1121.21 337.994 1121.71 337.471 1122.37 337.108C1123.03 336.735 1123.78 336.548 1124.64 336.548C1125.47 336.548 1126.21 336.73 1126.85 337.092C1127.49 337.455 1127.98 337.956 1128.32 338.596C1128.67 339.226 1128.85 339.94 1128.85 340.74ZM1127.34 340.436C1127.34 339.882 1127.22 339.407 1126.97 339.012C1126.73 338.607 1126.39 338.303 1125.97 338.1C1125.55 337.887 1125.09 337.78 1124.57 337.78C1123.84 337.78 1123.21 338.015 1122.69 338.484C1122.17 338.954 1121.88 339.604 1121.81 340.436H1127.34ZM1132.22 338.116C1132.48 337.615 1132.84 337.226 1133.31 336.948C1133.79 336.671 1134.37 336.532 1135.05 336.532V338.036H1134.67C1133.04 338.036 1132.22 338.922 1132.22 340.692V345.46H1130.77V336.692H1132.22V338.116ZM1140 344.116L1142.72 336.692H1144.27L1140.83 345.46H1139.14L1135.7 336.692H1137.26L1140 344.116ZM1146.46 335.268C1146.18 335.268 1145.94 335.172 1145.75 334.98C1145.56 334.788 1145.46 334.554 1145.46 334.276C1145.46 333.999 1145.56 333.764 1145.75 333.572C1145.94 333.38 1146.18 333.284 1146.46 333.284C1146.72 333.284 1146.95 333.38 1147.13 333.572C1147.32 333.764 1147.42 333.999 1147.42 334.276C1147.42 334.554 1147.32 334.788 1147.13 334.98C1146.95 335.172 1146.72 335.268 1146.46 335.268ZM1147.16 336.692V345.46H1145.7V336.692H1147.16ZM1149.1 341.06C1149.1 340.154 1149.28 339.364 1149.64 338.692C1150 338.01 1150.51 337.482 1151.15 337.108C1151.8 336.735 1152.54 336.548 1153.37 336.548C1154.45 336.548 1155.33 336.81 1156.03 337.332C1156.73 337.855 1157.19 338.58 1157.42 339.508H1155.85C1155.7 338.975 1155.41 338.554 1154.97 338.244C1154.54 337.935 1154.01 337.78 1153.37 337.78C1152.54 337.78 1151.87 338.068 1151.35 338.644C1150.84 339.21 1150.59 340.015 1150.59 341.06C1150.59 342.116 1150.84 342.932 1151.35 343.508C1151.87 344.084 1152.54 344.372 1153.37 344.372C1154.01 344.372 1154.54 344.223 1154.97 343.924C1155.4 343.626 1155.69 343.199 1155.85 342.644H1157.42C1157.18 343.54 1156.71 344.26 1156.01 344.804C1155.31 345.338 1154.43 345.604 1153.37 345.604C1152.54 345.604 1151.8 345.418 1151.15 345.044C1150.51 344.671 1150 344.143 1149.64 343.46C1149.28 342.778 1149.1 341.978 1149.1 341.06ZM1167.36 340.74C1167.36 341.018 1167.34 341.311 1167.31 341.62H1160.3C1160.36 342.484 1160.65 343.162 1161.18 343.652C1161.73 344.132 1162.38 344.372 1163.15 344.372C1163.78 344.372 1164.3 344.228 1164.72 343.94C1165.15 343.642 1165.45 343.247 1165.62 342.756H1167.18C1166.95 343.599 1166.48 344.287 1165.78 344.82C1165.07 345.343 1164.2 345.604 1163.15 345.604C1162.32 345.604 1161.57 345.418 1160.91 345.044C1160.26 344.671 1159.75 344.143 1159.38 343.46C1159 342.767 1158.82 341.967 1158.82 341.06C1158.82 340.154 1159 339.359 1159.36 338.676C1159.72 337.994 1160.23 337.471 1160.88 337.108C1161.54 336.735 1162.3 336.548 1163.15 336.548C1163.98 336.548 1164.72 336.73 1165.36 337.092C1166 337.455 1166.49 337.956 1166.83 338.596C1167.18 339.226 1167.36 339.94 1167.36 340.74ZM1165.86 340.436C1165.86 339.882 1165.73 339.407 1165.49 339.012C1165.24 338.607 1164.91 338.303 1164.48 338.1C1164.06 337.887 1163.6 337.78 1163.09 337.78C1162.35 337.78 1161.72 338.015 1161.2 338.484C1160.69 338.954 1160.4 339.604 1160.32 340.436H1165.86ZM1172.39 345.604C1171.71 345.604 1171.11 345.492 1170.58 345.268C1170.05 345.034 1169.62 344.714 1169.31 344.308C1169.01 343.892 1168.83 343.418 1168.8 342.884H1170.31C1170.35 343.322 1170.55 343.679 1170.91 343.956C1171.29 344.234 1171.77 344.372 1172.37 344.372C1172.93 344.372 1173.36 344.25 1173.68 344.004C1174 343.759 1174.16 343.45 1174.16 343.076C1174.16 342.692 1173.99 342.41 1173.65 342.228C1173.31 342.036 1172.78 341.85 1172.07 341.668C1171.42 341.498 1170.88 341.327 1170.47 341.156C1170.06 340.975 1169.71 340.714 1169.41 340.372C1169.12 340.02 1168.98 339.562 1168.98 338.996C1168.98 338.548 1169.11 338.138 1169.38 337.764C1169.65 337.391 1170.02 337.098 1170.51 336.884C1171.01 336.66 1171.57 336.548 1172.19 336.548C1173.17 336.548 1173.95 336.794 1174.55 337.284C1175.14 337.775 1175.46 338.447 1175.51 339.3H1174.05C1174.02 338.842 1173.83 338.474 1173.49 338.196C1173.16 337.919 1172.71 337.78 1172.15 337.78C1171.62 337.78 1171.21 337.892 1170.9 338.116C1170.59 338.34 1170.43 338.634 1170.43 338.996C1170.43 339.284 1170.53 339.524 1170.71 339.716C1170.9 339.898 1171.13 340.047 1171.41 340.164C1171.7 340.271 1172.09 340.394 1172.59 340.532C1173.22 340.703 1173.74 340.874 1174.13 341.044C1174.53 341.204 1174.86 341.45 1175.14 341.78C1175.43 342.111 1175.58 342.543 1175.59 343.076C1175.59 343.556 1175.45 343.988 1175.19 344.372C1174.92 344.756 1174.54 345.06 1174.05 345.284C1173.57 345.498 1173.02 345.604 1172.39 345.604Z" fill="black"/>
<path d="M1245.69 339.416C1245.69 338.328 1245.93 337.352 1246.42 336.488C1246.91 335.613 1247.58 334.931 1248.42 334.44C1249.28 333.949 1250.22 333.704 1251.26 333.704C1252.47 333.704 1253.53 333.997 1254.44 334.584C1255.35 335.171 1256.01 336.003 1256.42 337.08H1254.68C1254.37 336.408 1253.92 335.891 1253.34 335.528C1252.76 335.165 1252.07 334.984 1251.26 334.984C1250.48 334.984 1249.78 335.165 1249.16 335.528C1248.54 335.891 1248.06 336.408 1247.7 337.08C1247.35 337.741 1247.18 338.52 1247.18 339.416C1247.18 340.301 1247.35 341.08 1247.7 341.752C1248.06 342.413 1248.54 342.925 1249.16 343.288C1249.78 343.651 1250.48 343.832 1251.26 343.832C1252.07 343.832 1252.76 343.656 1253.34 343.304C1253.92 342.941 1254.37 342.424 1254.68 341.752H1256.42C1256.01 342.819 1255.35 343.645 1254.44 344.232C1253.53 344.808 1252.47 345.096 1251.26 345.096C1250.22 345.096 1249.28 344.856 1248.42 344.376C1247.58 343.885 1246.91 343.208 1246.42 342.344C1245.93 341.48 1245.69 340.504 1245.69 339.416ZM1262.42 345.144C1261.59 345.144 1260.85 344.957 1260.18 344.584C1259.51 344.211 1258.99 343.683 1258.61 343C1258.23 342.307 1258.05 341.507 1258.05 340.6C1258.05 339.704 1258.24 338.915 1258.62 338.232C1259.02 337.539 1259.55 337.011 1260.22 336.648C1260.9 336.275 1261.65 336.088 1262.48 336.088C1263.31 336.088 1264.06 336.275 1264.74 336.648C1265.41 337.011 1265.94 337.533 1266.32 338.216C1266.71 338.899 1266.91 339.693 1266.91 340.6C1266.91 341.507 1266.71 342.307 1266.3 343C1265.91 343.683 1265.37 344.211 1264.69 344.584C1264 344.957 1263.25 345.144 1262.42 345.144ZM1262.42 343.864C1262.94 343.864 1263.43 343.741 1263.89 343.496C1264.35 343.251 1264.71 342.883 1264.99 342.392C1265.28 341.901 1265.42 341.304 1265.42 340.6C1265.42 339.896 1265.28 339.299 1265.01 338.808C1264.73 338.317 1264.37 337.955 1263.92 337.72C1263.47 337.475 1262.99 337.352 1262.46 337.352C1261.93 337.352 1261.44 337.475 1260.99 337.72C1260.55 337.955 1260.2 338.317 1259.94 338.808C1259.67 339.299 1259.54 339.896 1259.54 340.6C1259.54 341.315 1259.66 341.917 1259.92 342.408C1260.19 342.899 1260.54 343.267 1260.98 343.512C1261.41 343.747 1261.89 343.864 1262.42 343.864ZM1273.1 336.072C1274.16 336.072 1275.03 336.397 1275.69 337.048C1276.35 337.688 1276.68 338.616 1276.68 339.832V345H1275.24V340.04C1275.24 339.165 1275.02 338.499 1274.59 338.04C1274.15 337.571 1273.55 337.336 1272.79 337.336C1272.03 337.336 1271.41 337.576 1270.95 338.056C1270.51 338.536 1270.28 339.235 1270.28 340.152V345H1268.83V336.232H1270.28V337.48C1270.57 337.032 1270.96 336.685 1271.45 336.44C1271.95 336.195 1272.5 336.072 1273.1 336.072ZM1280.84 337.432V342.6C1280.84 343.027 1280.93 343.331 1281.11 343.512C1281.29 343.683 1281.6 343.768 1282.05 343.768H1283.12V345H1281.81C1281 345 1280.39 344.813 1279.99 344.44C1279.58 344.067 1279.38 343.453 1279.38 342.6V337.432H1278.24V336.232H1279.38V334.024H1280.84V336.232H1283.12V337.432H1280.84ZM1284.34 340.584C1284.34 339.688 1284.53 338.904 1284.89 338.232C1285.25 337.549 1285.75 337.021 1286.38 336.648C1287.02 336.275 1287.73 336.088 1288.5 336.088C1289.27 336.088 1289.94 336.253 1290.5 336.584C1291.07 336.915 1291.49 337.331 1291.77 337.832V336.232H1293.24V345H1291.77V343.368C1291.48 343.88 1291.05 344.307 1290.47 344.648C1289.91 344.979 1289.25 345.144 1288.49 345.144C1287.71 345.144 1287.01 344.952 1286.38 344.568C1285.75 344.184 1285.25 343.645 1284.89 342.952C1284.53 342.259 1284.34 341.469 1284.34 340.584ZM1291.77 340.6C1291.77 339.939 1291.63 339.363 1291.37 338.872C1291.1 338.381 1290.74 338.008 1290.28 337.752C1289.83 337.485 1289.34 337.352 1288.79 337.352C1288.25 337.352 1287.75 337.48 1287.3 337.736C1286.86 337.992 1286.5 338.365 1286.23 338.856C1285.97 339.347 1285.83 339.923 1285.83 340.584C1285.83 341.256 1285.97 341.843 1286.23 342.344C1286.5 342.835 1286.86 343.213 1287.3 343.48C1287.75 343.736 1288.25 343.864 1288.79 343.864C1289.34 343.864 1289.83 343.736 1290.28 343.48C1290.74 343.213 1291.1 342.835 1291.37 342.344C1291.63 341.843 1291.77 341.261 1291.77 340.6ZM1295.16 340.6C1295.16 339.693 1295.34 338.904 1295.7 338.232C1296.06 337.549 1296.56 337.021 1297.2 336.648C1297.86 336.275 1298.6 336.088 1299.43 336.088C1300.51 336.088 1301.39 336.349 1302.08 336.872C1302.79 337.395 1303.25 338.12 1303.48 339.048H1301.91C1301.76 338.515 1301.47 338.093 1301.03 337.784C1300.6 337.475 1300.07 337.32 1299.43 337.32C1298.6 337.32 1297.92 337.608 1297.41 338.184C1296.9 338.749 1296.64 339.555 1296.64 340.6C1296.64 341.656 1296.9 342.472 1297.41 343.048C1297.92 343.624 1298.6 343.912 1299.43 343.912C1300.07 343.912 1300.6 343.763 1301.03 343.464C1301.46 343.165 1301.75 342.739 1301.91 342.184H1303.48C1303.24 343.08 1302.77 343.8 1302.07 344.344C1301.36 344.877 1300.48 345.144 1299.43 345.144C1298.6 345.144 1297.86 344.957 1297.2 344.584C1296.56 344.211 1296.06 343.683 1295.7 343C1295.34 342.317 1295.16 341.517 1295.16 340.6ZM1307.2 337.432V342.6C1307.2 343.027 1307.29 343.331 1307.47 343.512C1307.65 343.683 1307.96 343.768 1308.41 343.768H1309.48V345H1308.17C1307.36 345 1306.75 344.813 1306.35 344.44C1305.94 344.067 1305.74 343.453 1305.74 342.6V337.432H1304.6V336.232H1305.74V334.024H1307.2V336.232H1309.48V337.432H1307.2Z" fill="black"/>
<path d="M201.825 344.7H207.425V348H197.55V330.45H201.825V344.7ZM217.764 348.175C216.114 348.175 214.597 347.792 213.214 347.025C211.847 346.258 210.756 345.192 209.939 343.825C209.139 342.442 208.739 340.892 208.739 339.175C208.739 337.458 209.139 335.917 209.939 334.55C210.756 333.183 211.847 332.117 213.214 331.35C214.597 330.583 216.114 330.2 217.764 330.2C219.414 330.2 220.922 330.583 222.289 331.35C223.672 332.117 224.756 333.183 225.539 334.55C226.339 335.917 226.739 337.458 226.739 339.175C226.739 340.892 226.339 342.442 225.539 343.825C224.739 345.192 223.656 346.258 222.289 347.025C220.922 347.792 219.414 348.175 217.764 348.175ZM217.764 344.275C219.164 344.275 220.281 343.808 221.114 342.875C221.964 341.942 222.389 340.708 222.389 339.175C222.389 337.625 221.964 336.392 221.114 335.475C220.281 334.542 219.164 334.075 217.764 334.075C216.347 334.075 215.214 334.533 214.364 335.45C213.531 336.367 213.114 337.608 213.114 339.175C213.114 340.725 213.531 341.967 214.364 342.9C215.214 343.817 216.347 344.275 217.764 344.275ZM240.767 336C240.451 335.417 239.992 334.975 239.392 334.675C238.809 334.358 238.117 334.2 237.317 334.2C235.934 334.2 234.826 334.658 233.992 335.575C233.159 336.475 232.742 337.683 232.742 339.2C232.742 340.817 233.176 342.083 234.042 343C234.926 343.9 236.134 344.35 237.667 344.35C238.717 344.35 239.601 344.083 240.317 343.55C241.051 343.017 241.584 342.25 241.917 341.25H236.492V338.1H245.792V342.075C245.476 343.142 244.934 344.133 244.167 345.05C243.417 345.967 242.459 346.708 241.292 347.275C240.126 347.842 238.809 348.125 237.342 348.125C235.609 348.125 234.059 347.75 232.692 347C231.342 346.233 230.284 345.175 229.517 343.825C228.767 342.475 228.392 340.933 228.392 339.2C228.392 337.467 228.767 335.925 229.517 334.575C230.284 333.208 231.342 332.15 232.692 331.4C234.042 330.633 235.584 330.25 237.317 330.25C239.417 330.25 241.184 330.758 242.617 331.775C244.067 332.792 245.026 334.2 245.492 336H240.767ZM256.46 348.175C254.81 348.175 253.294 347.792 251.91 347.025C250.544 346.258 249.452 345.192 248.635 343.825C247.835 342.442 247.435 340.892 247.435 339.175C247.435 337.458 247.835 335.917 248.635 334.55C249.452 333.183 250.544 332.117 251.91 331.35C253.294 330.583 254.81 330.2 256.46 330.2C258.11 330.2 259.619 330.583 260.985 331.35C262.369 332.117 263.452 333.183 264.235 334.55C265.035 335.917 265.435 337.458 265.435 339.175C265.435 340.892 265.035 342.442 264.235 343.825C263.435 345.192 262.352 346.258 260.985 347.025C259.619 347.792 258.11 348.175 256.46 348.175ZM256.46 344.275C257.86 344.275 258.977 343.808 259.81 342.875C260.66 341.942 261.085 340.708 261.085 339.175C261.085 337.625 260.66 336.392 259.81 335.475C258.977 334.542 257.86 334.075 256.46 334.075C255.044 334.075 253.91 334.533 253.06 335.45C252.227 336.367 251.81 337.608 251.81 339.175C251.81 340.725 252.227 341.967 253.06 342.9C253.91 343.817 255.044 344.275 256.46 344.275Z" fill="black"/>
<circle cx="809.5" cy="340.5" r="5.5" fill="white"/>
<path d="M407.944 345.252C406.264 345.252 404.752 344.964 403.408 344.388C402.064 343.788 401.008 342.948 400.24 341.868C399.472 340.788 399.088 339.528 399.088 338.088H403.48C403.576 339.168 403.996 340.056 404.74 340.752C405.508 341.448 406.576 341.796 407.944 341.796C409.36 341.796 410.464 341.46 411.256 340.788C412.048 340.092 412.444 339.204 412.444 338.124C412.444 337.284 412.192 336.6 411.688 336.072C411.208 335.544 410.596 335.136 409.852 334.848C409.132 334.56 408.124 334.248 406.828 333.912C405.196 333.48 403.864 333.048 402.832 332.616C401.824 332.16 400.96 331.464 400.24 330.528C399.52 329.592 399.16 328.344 399.16 326.784C399.16 325.344 399.52 324.084 400.24 323.004C400.96 321.924 401.968 321.096 403.264 320.52C404.56 319.944 406.06 319.656 407.764 319.656C410.188 319.656 412.168 320.268 413.704 321.492C415.264 322.692 416.128 324.348 416.296 326.46H411.76C411.688 325.548 411.256 324.768 410.464 324.12C409.672 323.472 408.628 323.148 407.332 323.148C406.156 323.148 405.196 323.448 404.452 324.048C403.708 324.648 403.336 325.512 403.336 326.64C403.336 327.408 403.564 328.044 404.02 328.548C404.5 329.028 405.1 329.412 405.82 329.7C406.54 329.988 407.524 330.3 408.772 330.636C410.428 331.092 411.772 331.548 412.804 332.004C413.86 332.46 414.748 333.168 415.468 334.128C416.212 335.064 416.584 336.324 416.584 337.908C416.584 339.18 416.236 340.38 415.54 341.508C414.868 342.636 413.872 343.548 412.552 344.244C411.256 344.916 409.72 345.252 407.944 345.252ZM437.591 319.98V323.328H430.931V345H426.827V323.328H420.131V319.98H437.591ZM445.851 319.98V345H441.747V319.98H445.851ZM449.871 332.436C449.871 329.988 450.435 327.792 451.563 325.848C452.715 323.904 454.263 322.392 456.207 321.312C458.175 320.208 460.323 319.656 462.651 319.656C465.315 319.656 467.679 320.316 469.743 321.636C471.831 322.932 473.343 324.78 474.279 327.18H469.347C468.699 325.86 467.799 324.876 466.647 324.228C465.495 323.58 464.163 323.256 462.651 323.256C460.995 323.256 459.519 323.628 458.223 324.372C456.927 325.116 455.907 326.184 455.163 327.576C454.443 328.968 454.083 330.588 454.083 332.436C454.083 334.284 454.443 335.904 455.163 337.296C455.907 338.688 456.927 339.768 458.223 340.536C459.519 341.28 460.995 341.652 462.651 341.652C464.163 341.652 465.495 341.328 466.647 340.68C467.799 340.032 468.699 339.048 469.347 337.728H474.279C473.343 340.128 471.831 341.976 469.743 343.272C467.679 344.568 465.315 345.216 462.651 345.216C460.299 345.216 458.151 344.676 456.207 343.596C454.263 342.492 452.715 340.968 451.563 339.024C450.435 337.08 449.871 334.884 449.871 332.436ZM492.871 345L483.187 333.804V345H479.083V319.98H483.187V331.392L492.907 319.98H498.055L487.183 332.508L498.235 345H492.871ZM520.404 319.98L512.124 335.928V345H508.02V335.928L499.704 319.98H504.276L510.072 332.256L515.868 319.98H520.404ZM552.993 319.98V345H548.889V334.056H537.117V345H533.013V319.98H537.117V330.708H548.889V319.98H552.993ZM562.499 323.292V330.636H571.139V333.984H562.499V341.652H572.219V345H558.395V319.944H572.219V323.292H562.499ZM592.358 339.888H581.882L580.082 345H575.798L584.762 319.944H589.514L598.478 345H594.158L592.358 339.888ZM591.206 336.54L587.138 324.912L583.034 336.54H591.206ZM610.548 319.98C613.212 319.98 615.54 320.496 617.532 321.528C619.548 322.536 621.096 324 622.176 325.92C623.28 327.816 623.832 330.036 623.832 332.58C623.832 335.124 623.28 337.332 622.176 339.204C621.096 341.076 619.548 342.516 617.532 343.524C615.54 344.508 613.212 345 610.548 345H602.376V319.98H610.548ZM610.548 341.652C613.476 341.652 615.72 340.86 617.28 339.276C618.84 337.692 619.62 335.46 619.62 332.58C619.62 329.676 618.84 327.408 617.28 325.776C615.72 324.144 613.476 323.328 610.548 323.328H606.48V341.652H610.548ZM632.003 323.292V330.636H640.643V333.984H632.003V341.652H641.723V345H627.899V319.944H641.723V323.292H632.003ZM659.774 345L654.014 334.992H650.882V345H646.778V319.98H655.418C657.338 319.98 658.958 320.316 660.278 320.988C661.622 321.66 662.618 322.56 663.266 323.688C663.938 324.816 664.274 326.076 664.274 327.468C664.274 329.1 663.794 330.588 662.834 331.932C661.898 333.252 660.446 334.152 658.478 334.632L664.67 345H659.774ZM650.882 331.716H655.418C656.954 331.716 658.106 331.332 658.874 330.564C659.666 329.796 660.062 328.764 660.062 327.468C660.062 326.172 659.678 325.164 658.91 324.444C658.142 323.7 656.978 323.328 655.418 323.328H650.882V331.716Z" fill="black"/>
</g>
<defs>
<linearGradient id="paint0_linear" x1="1612.47" y1="980.409" x2="1612.47" y2="267.532" gradientUnits="userSpaceOnUse">
<stop stop-color="#40A4FF"/>
<stop offset="1" stop-color="#311996"/>
</linearGradient>
<linearGradient id="paint1_linear" x1="973.626" y1="356.387" x2="973.626" y2="178.676" gradientUnits="userSpaceOnUse">
<stop stop-color="#40A4FF"/>
<stop offset="1" stop-color="#311996"/>
</linearGradient>
<linearGradient id="paint2_linear" x1="435.758" y1="789.149" x2="374.015" y2="789.149" gradientUnits="userSpaceOnUse">
<stop stop-color="#40A4FF"/>
<stop offset="1" stop-color="#311996"/>
</linearGradient>
<linearGradient id="paint3_linear" x1="1037.7" y1="959.319" x2="1519.32" y2="959.319" gradientUnits="userSpaceOnUse">
<stop stop-color="#E12179"/>
<stop offset="1" stop-color="#311996"/>
</linearGradient>
<linearGradient id="paint4_linear" x1="79.319" y1="789.149" x2="79.319" y2="76.2716" gradientUnits="userSpaceOnUse">
<stop stop-color="#E12179"/>
<stop offset="1" stop-color="#311996"/>
</linearGradient>
<linearGradient id="paint5_linear" x1="79.319" y1="240.13" x2="79.319" y2="-241.492" gradientUnits="userSpaceOnUse">
<stop stop-color="#E12179"/>
<stop offset="1" stop-color="#311996"/>
</linearGradient>
<linearGradient id="paint6_linear" x1="720" y1="0" x2="720" y2="263" gradientUnits="userSpaceOnUse">
<stop stop-color="#531357"/>
<stop offset="1" stop-color="#D654DE" stop-opacity="0.17"/>
</linearGradient>
<linearGradient id="paint7_linear" x1="830.5" y1="280" x2="835.613" y2="599.942" gradientUnits="userSpaceOnUse">
<stop stop-color="#FFFBFB"/>
<stop offset="0.357093" stop-color="#A7A7A7"/>
</linearGradient>
<clipPath id="clip0">
<rect width="1600" height="960" fill="white"/>
</clipPath>
</defs>
</svg>
