<svg width="1920" height="1165" viewBox="0 0 1920 1165" fill="none" xmlns="http://www.w3.org/2000/svg">
<g clip-path="url(#clip0_202_305)">
<rect width="1920" height="1165" fill="#242424"/>
<path d="M961 0V1165M1121 0V1165M1281 0V1165M1441 0V1165" stroke="#373737" stroke-width="2.11642"/>
<path d="M1441 0V1165M1600.67 0V1165M1760.33 0V1165M1920 0V1165" stroke="#373737" stroke-width="2.11642"/>
<path d="M960.857 720.098L1919.6 720.098M960.857 559.955H1919.6M960.857 399.812L1919.6 399.812M960.857 239.669L1919.6 239.669" stroke="#373737" stroke-width="2.11642"/>
<circle cx="1120.76" cy="399.574" r="159.904" fill="url(#paint0_linear_202_305)"/>
<circle cx="735.904" cy="367.904" r="159.904" fill="#383838"/>
<circle cx="1840.33" cy="479.527" r="79.9522" fill="url(#paint1_linear_202_305)"/>
<path d="M1280.67 559.48H1360.62V639.432H1280.67V559.48Z" fill="#AFAFAF"/>
<path d="M1440.57 399.575H1520.52V479.528H1440.57V399.575Z" fill="#AFAFAF"/>
<path d="M1360.62 479.528H1440.57V559.48H1360.62V479.528Z" fill="#AFAFAF"/>
<path d="M1520.52 319.623H1600.47V399.575H1520.52V319.623Z" fill="#AFAFAF"/>
<path d="M1280.67 479.526H1360.62V559.478H1280.67V479.526Z" fill="url(#paint2_linear_202_305)"/>
<path d="M1520.52 239.669H1600.47V319.622H1520.52V239.669Z" fill="url(#paint3_linear_202_305)"/>
<path d="M1600.47 479.526H1520.52V559.478H1600.47V479.526Z" fill="url(#paint4_linear_202_305)"/>
<path d="M1360.62 239.669H1280.67V319.622H1360.62V239.669Z" fill="url(#paint5_linear_202_305)"/>
<path d="M117.422 780.486C117.472 790.727 110.462 796.097 102.855 796.097C94.8509 796.097 89.6804 790.479 89.6307 781.48V736.636H68.4517V785.259C68.5014 803.107 78.9418 813.994 94.304 813.994C105.788 813.994 114.041 808.078 117.472 799.129H118.267V813H138.601V736.636H117.422V780.486ZM214.878 758.412C212.989 744.342 201.654 735.642 182.364 735.642C162.826 735.642 149.95 744.69 149.999 759.406C149.95 770.841 157.158 778.249 172.073 781.232L185.298 783.866C191.959 785.209 194.992 787.645 195.092 791.473C194.992 795.997 190.07 799.229 182.663 799.229C175.106 799.229 170.084 795.997 168.792 789.783L147.961 790.876C149.95 805.493 162.378 814.491 182.613 814.491C202.4 814.491 216.569 804.399 216.619 789.335C216.569 778.298 209.36 771.686 194.545 768.653L180.724 765.869C173.614 764.328 170.979 761.892 171.029 758.213C170.979 753.639 176.15 750.656 182.712 750.656C190.07 750.656 194.445 754.683 195.489 759.605L214.878 758.412ZM260.556 814.491C279.448 814.491 292.175 805.294 295.158 791.125L275.57 789.832C273.432 795.649 267.964 798.682 260.904 798.682C250.314 798.682 243.603 791.672 243.603 780.287V780.237H295.606V774.42C295.606 748.469 279.895 735.642 259.711 735.642C237.239 735.642 222.672 751.601 222.672 775.166C222.672 799.378 237.04 814.491 260.556 814.491ZM243.603 767.112C244.05 758.412 250.663 751.452 260.059 751.452C269.256 751.452 275.62 758.014 275.67 767.112H243.603ZM305.624 813H370.802V795.251H327.151V711.182H305.624V813ZM402.236 814.442C413.521 814.442 420.83 809.52 424.558 802.411H425.155V813H445.24V761.494C445.24 743.298 429.828 735.642 412.825 735.642C394.53 735.642 382.499 744.392 379.565 758.312L399.153 759.903C400.595 754.832 405.119 751.104 412.726 751.104C419.935 751.104 424.061 754.733 424.061 760.997V761.295C424.061 766.217 418.841 766.864 405.567 768.156C390.453 769.548 376.881 774.619 376.881 791.672C376.881 806.786 387.669 814.442 402.236 814.442ZM408.301 799.825C401.788 799.825 397.115 796.793 397.115 790.976C397.115 785.01 402.037 782.077 409.494 781.033C414.118 780.386 421.675 779.293 424.21 777.602V785.706C424.21 793.71 417.598 799.825 408.301 799.825ZM467.812 841.636C483.572 841.636 491.924 833.582 496.25 821.253L525.93 736.736L503.508 736.636L487.549 792.716H486.754L470.944 736.636H448.672L476.065 815.188L474.822 818.419C472.038 825.578 466.718 825.926 459.261 823.639L454.488 839.449C457.521 840.741 462.443 841.636 467.812 841.636ZM564.473 814.491C587.641 814.491 602.059 798.632 602.059 775.116C602.059 751.452 587.641 735.642 564.473 735.642C541.306 735.642 526.888 751.452 526.888 775.116C526.888 798.632 541.306 814.491 564.473 814.491ZM564.573 798.085C553.884 798.085 548.415 788.291 548.415 774.967C548.415 761.643 553.884 751.8 564.573 751.8C575.063 751.8 580.532 761.643 580.532 774.967C580.532 788.291 575.063 798.085 564.573 798.085ZM660.6 780.486C660.65 790.727 653.64 796.097 646.033 796.097C638.029 796.097 632.858 790.479 632.809 781.48V736.636H611.63V785.259C611.68 803.107 622.12 813.994 637.482 813.994C648.966 813.994 657.219 808.078 660.65 799.129H661.445V813H681.779V736.636H660.6V780.486ZM735.138 736.636H720.77V718.341H699.591V736.636H689.15V752.545H699.591V792.318C699.491 807.283 709.683 814.69 725.045 814.044C730.514 813.845 734.392 812.751 736.53 812.055L733.199 796.295C732.155 796.494 729.917 796.991 727.929 796.991C723.703 796.991 720.77 795.401 720.77 789.534V752.545H735.138V736.636ZM746.772 813H815.579V795.251H768.299V770.94H811.85V753.192H768.299V728.93H815.38V711.182H746.772V813ZM868.962 736.636H853.799V731.516C853.799 726.345 855.887 723.312 862.102 723.312C864.637 723.312 867.222 723.859 868.913 724.406L872.641 708.497C870.006 707.702 864.19 706.409 857.677 706.409C843.309 706.409 832.62 714.513 832.62 731.118V736.636H821.832V752.545H832.62V813H853.799V752.545H868.962V736.636ZM918.766 736.636H903.603V731.516C903.603 726.345 905.691 723.312 911.905 723.312C914.441 723.312 917.026 723.859 918.717 724.406L922.445 708.497C919.81 707.702 913.994 706.409 907.481 706.409C893.113 706.409 882.424 714.513 882.424 731.118V736.636H871.636V752.545H882.424V813H903.603V752.545H918.766V736.636ZM959.572 814.491C978.464 814.491 991.191 805.294 994.174 791.125L974.586 789.832C972.448 795.649 966.979 798.682 959.92 798.682C949.33 798.682 942.618 791.672 942.618 780.287V780.237H994.621V774.42C994.621 748.469 978.911 735.642 958.726 735.642C936.255 735.642 921.688 751.601 921.688 775.166C921.688 799.378 936.056 814.491 959.572 814.491ZM942.618 767.112C943.066 758.412 949.678 751.452 959.074 751.452C968.272 751.452 974.635 758.014 974.685 767.112H942.618ZM1038.75 814.491C1059.08 814.491 1071.86 802.56 1072.85 785.01H1052.86C1051.62 793.163 1046.25 797.737 1038.99 797.737C1029.1 797.737 1022.69 789.435 1022.69 774.818C1022.69 760.401 1029.15 752.148 1038.99 752.148C1046.75 752.148 1051.72 757.268 1052.86 764.875H1072.85C1071.96 747.226 1058.58 735.642 1038.65 735.642C1015.48 735.642 1001.16 751.7 1001.16 775.116C1001.16 798.334 1015.23 814.491 1038.75 814.491ZM1122.83 736.636H1108.46V718.341H1087.28V736.636H1076.84V752.545H1087.28V792.318C1087.18 807.283 1097.37 814.69 1112.74 814.044C1118.2 813.845 1122.08 812.751 1124.22 812.055L1120.89 796.295C1119.85 796.494 1117.61 796.991 1115.62 796.991C1111.39 796.991 1108.46 795.401 1108.46 789.534V752.545H1122.83V736.636Z" fill="#C4C4C4"/>
<path d="M1443.4 559.25V874.597M1469.68 559.25V874.597M1495.96 559.25V874.597M1522.24 559.25V874.597M1679.91 559.25V874.597M1706.19 559.25V874.597M1732.47 559.25V874.597M1758.75 559.25V874.597" stroke="#09EDE4" stroke-width="4.23285"/>
<path d="M736.503 407.503C758.191 407.503 775.774 389.423 775.774 367.12C775.774 344.818 758.191 326.738 736.503 326.738C714.814 326.738 697.232 344.818 697.232 367.12C697.232 389.423 714.814 407.503 736.503 407.503Z" fill="#00D8FF"/>
<path fill-rule="evenodd" clip-rule="evenodd" d="M736.504 285.015C789.23 285.015 838.212 292.795 875.143 305.869C919.641 321.622 947 345.499 947 367.12C947 389.651 918.005 415.018 870.22 431.298C834.094 443.606 786.554 450.031 736.504 450.031C685.188 450.031 636.594 444 600.061 431.163C553.84 414.917 526 389.222 526 367.12C526 345.675 552.122 321.982 595.994 306.253C633.064 292.963 683.255 285.015 736.496 285.015H736.504Z" stroke="#00D8FF" stroke-width="8"/>
<path fill-rule="evenodd" clip-rule="evenodd" d="M666.995 326.304C693.337 279.337 724.359 239.591 753.824 213.224C789.324 181.456 823.107 169.015 841.321 179.815C860.302 191.07 867.186 229.572 857.029 280.27C849.358 318.6 831.014 364.156 806.009 408.741C780.373 454.452 751.017 494.726 721.954 520.848C685.178 553.906 649.623 565.87 631.004 554.828C612.937 544.122 606.028 509.01 614.695 462.071C622.019 422.41 640.396 373.731 666.987 326.304L666.995 326.304Z" stroke="#00D8FF" stroke-width="8"/>
<path fill-rule="evenodd" clip-rule="evenodd" d="M667.061 408.861C640.645 361.946 622.66 314.45 615.153 275.033C606.117 227.54 612.506 191.229 630.703 180.397C649.666 169.109 685.542 182.204 723.183 216.572C751.643 242.556 780.866 281.642 805.944 326.185C831.654 371.853 850.923 418.119 858.42 457.056C867.905 506.33 860.228 543.979 841.626 555.052C823.577 565.796 790.548 554.421 755.33 523.256C725.573 496.926 693.737 456.241 667.061 408.86V408.861Z" stroke="#00D8FF" stroke-width="8"/>
</g>
<defs>
<linearGradient id="paint0_linear_202_305" x1="1120.76" y1="239.669" x2="1120.76" y2="559.478" gradientUnits="userSpaceOnUse">
<stop stop-color="#00D8FF"/>
<stop offset="1" stop-color="#929292" stop-opacity="0"/>
</linearGradient>
<linearGradient id="paint1_linear_202_305" x1="1840.33" y1="399.575" x2="1840.33" y2="559.48" gradientUnits="userSpaceOnUse">
<stop stop-color="#929292"/>
<stop offset="1" stop-color="#929292" stop-opacity="0"/>
</linearGradient>
<linearGradient id="paint2_linear_202_305" x1="1440.57" y1="239.669" x2="1440.57" y2="559.478" gradientUnits="userSpaceOnUse">
<stop stop-color="#00D8FF"/>
<stop offset="1" stop-color="#929292" stop-opacity="0"/>
</linearGradient>
<linearGradient id="paint3_linear_202_305" x1="1440.57" y1="239.669" x2="1440.57" y2="559.478" gradientUnits="userSpaceOnUse">
<stop stop-color="#00D8FF"/>
<stop offset="1" stop-color="#929292" stop-opacity="0"/>
</linearGradient>
<linearGradient id="paint4_linear_202_305" x1="1440.57" y1="239.669" x2="1440.57" y2="559.478" gradientUnits="userSpaceOnUse">
<stop stop-color="#00D8FF"/>
<stop offset="1" stop-color="#929292" stop-opacity="0"/>
</linearGradient>
<linearGradient id="paint5_linear_202_305" x1="1440.57" y1="239.669" x2="1440.57" y2="559.478" gradientUnits="userSpaceOnUse">
<stop stop-color="#00D8FF"/>
<stop offset="1" stop-color="#929292" stop-opacity="0"/>
</linearGradient>
<clipPath id="clip0_202_305">
<rect width="1920" height="1165" fill="white"/>
</clipPath>
</defs>
</svg>
