<svg width="2712" height="1384" viewBox="0 0 2712 1384" fill="none" xmlns="http://www.w3.org/2000/svg">
<g clip-path="url(#clip0)">
<rect width="2712" height="1384" fill="white"/>
<rect width="216" height="155" fill="#EDFAE7"/>
<ellipse cx="2651" cy="61" rx="148" ry="129" fill="#EDFAE7"/>
<path d="M180 663L242.354 762.75H117.646L180 663Z" fill="#C4C4C4"/>
<path d="M325 663L387.354 762.75H262.646L325 663Z" fill="#EDFAE7"/>
<path d="M180.5 663L243.287 762.75H117.713L180.5 663Z" fill="#DFF8FD"/>
<path d="M322.5 861L388.287 762.75H262.713L322.5 861Z" fill="#DFFFD0"/>
<line x1="1710.11" y1="1107.59" x2="1800.1" y2="991.861" stroke="#DFF8FD" stroke-width="20"/>
<path d="M1559 1077L1639.23 973.831M1828.06 1109.98L1911.33 997.557" stroke="#DFF8FD" stroke-width="20"/>
<line x1="1631.36" y1="974.52" x2="1707.36" y2="1090.52" stroke="#DFF8FD" stroke-width="20"/>
<line x1="1793.64" y1="991.546" x2="1891.64" y2="1107.55" stroke="#DFF8FD" stroke-width="20"/>
<ellipse cx="108.5" cy="1349.5" rx="170.5" ry="98.5" fill="#DFFBFF"/>
<path d="M474 1357.5C474 1390.91 426.766 1418 368.5 1418C310.234 1418 263 1390.91 263 1357.5C263 1304.5 336.234 1331 394.5 1331C452.766 1331 474 1324.09 474 1357.5Z" fill="#DFFBFF"/>
<path d="M599 1183C520.667 1208.33 334.4 1243.8 216 1183L95 1099.5L7.5 1213.5V1384H2711.5L2613 1289.5L2461.5 1156.5C2437.33 1122.33 2326.1 1085.9 2074.5 1213.5L1649.5 1183L1282 1077C1318.53 1198.11 1230.76 1189.04 1009 1126.5L800 1289.5L599 1183Z" fill="#EDFAE7" stroke="#EDFAE7"/>
<path d="M450.194 1154.91L267.778 1047.1C261.973 1043.84 256.989 1038.48 262.653 1034.98L445.728 929.42C448.479 927.715 452.651 926.598 455.442 928.222L646.932 1039.37C652.737 1042.74 653.783 1052.16 647.947 1055.54L474.27 1154.74C470.619 1156.86 466.478 1157.99 462.255 1158.02C458.032 1158.05 453.875 1156.98 450.194 1154.91Z" fill="#FFE7E7"/>
<path d="M568.574 1006.9C569.67 1006.11 570.797 1005.36 571.954 1004.67C572.175 1004.53 572.333 1004.31 572.395 1004.06C572.457 1003.8 572.419 1003.53 572.288 1003.31C572.157 1003.08 571.943 1002.91 571.692 1002.84C571.441 1002.77 571.171 1002.8 570.939 1002.92C569.455 1003.8 568.019 1004.75 566.635 1005.78L563.915 1004.2C565.072 1003.74 566.209 1003.25 567.325 1002.68C568.442 1002.11 567.467 1000.34 566.31 1000.93C564.906 1001.66 563.455 1002.3 561.966 1002.84C561.89 1002.87 561.818 1002.91 561.753 1002.97L560.423 1002.2L564.707 999.648C564.927 999.508 565.086 999.287 565.148 999.033C565.21 998.779 565.172 998.51 565.041 998.284C564.91 998.057 564.696 997.89 564.445 997.817C564.193 997.744 563.924 997.771 563.692 997.892L558.505 1000.94L558.444 1001L556.637 999.983L560.91 997.314C562.017 996.623 561.002 994.867 559.895 995.558L554.638 998.775L552.425 997.537C553.724 996.735 555.044 995.974 556.394 995.284C557.561 994.695 556.536 992.939 555.379 993.528C553.688 994.395 552.041 995.347 550.446 996.38L549.228 995.669C550.715 994.471 552.336 993.449 554.059 992.624C555.237 992.066 554.211 990.32 553.044 990.868C551 991.841 549.09 993.072 547.36 994.533L545.685 993.518C547.299 992.553 548.903 991.569 550.466 990.472C551.552 989.752 550.537 987.996 549.451 988.717C547.57 989.975 545.652 991.169 543.696 992.299L542.194 991.427C543.248 990.811 544.265 990.133 545.239 989.397C546.254 988.615 545.239 986.859 544.224 987.641C542.94 988.601 541.582 989.46 540.164 990.209L538.54 989.265L542.021 986.89C543.097 986.159 542.082 984.403 541.006 985.134L536.611 988.179L534.845 987.164C536.256 986.291 537.697 985.448 539.169 984.667C540.326 984.058 539.301 982.302 538.154 982.911C536.347 983.865 534.585 984.88 532.866 985.956L531.354 985.073C532.673 984.139 533.983 983.175 535.241 982.149C536.256 981.327 534.815 979.896 533.81 980.718C532.399 981.855 530.938 982.931 529.435 983.956L527.05 982.738C528.116 981.987 529.171 981.195 530.176 980.353C531.181 979.51 529.74 978.079 528.745 978.922C527.591 979.887 526.384 980.788 525.132 981.622L523.244 980.505L526.847 977.694C527.862 976.892 526.431 975.461 525.416 976.262L521.356 979.419L519.032 978.069C520.273 977.223 521.454 976.29 522.564 975.278C523.528 974.385 522.087 972.954 521.133 973.847C519.873 975 518.515 976.039 517.073 976.953L515.631 976.11C516.466 975.389 517.37 974.754 518.331 974.212C518.552 974.072 518.71 973.851 518.773 973.597C518.835 973.343 518.796 973.074 518.665 972.848C518.534 972.621 518.321 972.454 518.069 972.381C517.818 972.308 517.548 972.335 517.316 972.456C516.048 973.178 514.869 974.047 513.804 975.044L511.561 973.735L514.89 971.796C515.111 971.656 515.269 971.436 515.332 971.181C515.394 970.927 515.356 970.659 515.225 970.432C515.094 970.205 514.88 970.038 514.629 969.965C514.377 969.892 514.107 969.919 513.875 970.041L510.039 972.274C509.891 972.363 509.769 972.489 509.683 972.639L507.562 971.37C508.43 970.802 509.347 970.313 510.303 969.909C511.5 969.401 510.465 967.655 509.288 968.153C507.991 968.703 506.765 969.405 505.634 970.244L505.512 970.172L338.26 1065.66C336.359 1066.5 334.527 1067.48 332.779 1068.6C331.683 1069.3 332.698 1071.05 333.794 1070.35C335.57 1069.22 337.433 1068.22 339.366 1067.38L341.051 1068.39L335.905 1071.44C335.684 1071.58 335.526 1071.8 335.464 1072.05C335.402 1072.31 335.44 1072.58 335.571 1072.8C335.702 1073.03 335.916 1073.2 336.167 1073.27C336.418 1073.34 336.688 1073.32 336.92 1073.19L343.01 1069.58L343.782 1070.04L339.387 1072.87C338.301 1073.58 339.316 1075.34 340.402 1074.63L345.73 1071.14L347.517 1072.16C345.783 1073.11 344.115 1074.17 342.523 1075.34C341.508 1076.1 342.523 1077.86 343.538 1077.09C345.445 1075.7 347.461 1074.45 349.567 1073.38L350.328 1073.83L345.812 1077.45C344.797 1078.26 346.238 1079.69 347.243 1078.88L352.186 1074.93L354.51 1076.31C352.797 1077.32 351.15 1078.43 349.577 1079.64C348.562 1080.44 349.993 1081.86 351.008 1081.07C352.689 1079.78 354.464 1078.61 356.317 1077.58C356.368 1077.54 356.416 1077.5 356.459 1077.46L357.748 1078.22C355.907 1079.23 354.252 1080.56 352.856 1082.13C352.064 1083.14 353.485 1084.59 354.287 1083.56C355.627 1081.83 357.789 1080.59 359.707 1079.38L361.473 1080.39C360.012 1081.62 358.53 1082.82 357.007 1083.96C355.992 1084.75 357.007 1086.5 358.022 1085.72C359.829 1084.37 361.592 1082.95 363.31 1081.48L364.64 1082.27C362.873 1083.5 361.222 1084.9 359.707 1086.43C358.794 1087.36 360.225 1088.8 361.138 1087.86C362.786 1086.19 364.606 1084.7 366.568 1083.41L368.842 1084.76C368.699 1084.74 368.554 1084.75 368.416 1084.79C368.278 1084.83 368.15 1084.9 368.04 1084.99L363.929 1088.29C362.914 1089.11 364.356 1090.53 365.361 1089.72L369.471 1086.42C369.565 1086.35 369.644 1086.27 369.703 1086.17C369.763 1086.07 369.8 1085.96 369.815 1085.85C369.829 1085.74 369.82 1085.62 369.787 1085.51C369.754 1085.4 369.698 1085.3 369.624 1085.21L373.125 1087.24C371.268 1088.34 369.431 1089.47 367.634 1090.66C366.548 1091.38 367.563 1093.14 368.649 1092.42C370.76 1091.01 372.916 1089.68 375.115 1088.43L376.617 1089.32C375.348 1090.26 374.012 1091.11 372.618 1091.85C371.461 1092.47 372.486 1094.22 373.633 1093.61C375.335 1092.69 376.955 1091.63 378.474 1090.43L381.814 1092.41L377.348 1095.45C376.282 1096.19 377.297 1097.95 378.363 1097.21L383.722 1093.5L385.813 1094.73L380.372 1098.66C379.357 1099.42 380.372 1101.18 381.387 1100.42L387.701 1095.85L388.716 1096.45C387.071 1097.81 385.397 1099.12 383.641 1100.34C382.626 1101.08 383.641 1102.84 384.656 1102.09C386.686 1100.67 388.655 1099.14 390.553 1097.54L392.796 1098.86C391.497 1099.81 390.218 1100.77 388.959 1101.77C387.944 1102.58 389.386 1104.01 390.39 1103.2C391.791 1102.08 393.232 1101.02 394.694 1099.98L395.821 1100.65C394.664 1101.56 393.527 1102.51 392.42 1103.49C391.314 1104.48 392.877 1105.8 393.852 1104.92C395.09 1103.82 396.379 1102.77 397.688 1101.76L398.703 1102.34C397.83 1103.09 396.937 1103.82 396.014 1104.51C395.09 1105.2 396.014 1107.06 397.029 1106.26C398.226 1105.35 399.383 1104.4 400.52 1103.41L401.769 1104.15C400.253 1105.22 398.693 1106.24 397.089 1107.2C396.869 1107.34 396.71 1107.56 396.648 1107.81C396.586 1108.07 396.624 1108.34 396.755 1108.56C396.886 1108.79 397.1 1108.96 397.351 1109.03C397.603 1109.1 397.872 1109.07 398.104 1108.95C400.316 1107.65 402.451 1106.21 404.499 1104.66L572.573 1009.23L568.574 1006.9Z" fill="#FFE1E1"/>
<path style="mix-blend-mode:multiply" opacity="0.32" d="M449.443 1058.03L370.882 1104.11L340.767 1083.62L395.212 1053.29" fill="url(#paint0_linear)"/>
<path d="M390.664 1054.88L385.062 1065.7H380.9L384.402 1072.22L392.096 1069.76L401.86 1058.92" fill="#32416A"/>
<path d="M382.067 1084.8L394.247 1079.61L392.055 1067.07C392.055 1067.07 389.294 1072.27 383.935 1067.54C382.92 1066.67 377.845 1049.45 367.583 1054.08" fill="#3353C2"/>
<path d="M367.604 1054.08C371.958 1052.58 375.531 1058.84 377.398 1061.8C380.839 1067.24 382.057 1073.88 383.346 1080.07C383.543 1080.8 383.548 1081.58 383.358 1082.32C383.169 1083.06 382.793 1083.74 382.266 1084.29C381.739 1084.84 381.078 1085.25 380.349 1085.47C379.619 1085.69 378.844 1085.72 378.099 1085.56C374.556 1084.95 371.755 1077.62 371.755 1073.96C371.755 1070.29 364.061 1055.3 367.604 1054.08Z" fill="#32416A"/>
<path d="M522.787 1011.79C524.279 1013.48 525.946 1015.01 527.761 1016.35C528.897 1017.09 534.865 1014.08 536.774 1013.81C538.682 1013.53 546.863 1013.94 546.995 1015.01C547.127 1016.09 545.513 1018.06 542.935 1019.32C540.357 1020.58 535.14 1020.12 534.866 1020.93C534.591 1021.74 541.717 1022.01 541.585 1023.35C541.453 1024.69 536.743 1025.76 532.978 1025.23C529.212 1024.69 527.598 1024.69 526.116 1023.74C524.634 1022.8 516.565 1018.57 516.565 1018.57L522.787 1011.79Z" fill="#FFC99C"/>
<path d="M457.644 1011.53C457.644 1011.53 424.505 1007.53 417.044 1009.56C409.584 1011.59 402.347 1029.01 402.347 1029.01L387.447 1055.47L406.377 1062.66C406.377 1062.66 422.018 1031.5 424.058 1030.36C426.098 1029.22 461.826 1034.83 461.826 1034.83C461.826 1034.83 479.254 1026.08 479.589 1019.97C479.924 1013.86 457.644 1011.53 457.644 1011.53Z" fill="#DFF8FD"/>
<path d="M486.937 1016.35C486.937 1016.35 493.728 1031.29 483.09 1040.11C472.453 1048.93 434.918 1064.3 434.918 1064.3C434.918 1064.3 392.847 1082.57 392.623 1081.94C392.4 1081.31 386.29 1074.03 387.65 1066.11L452.955 1033.09L486.937 1016.35Z" fill="#DFF8FD"/>
<path d="M517.012 1001.42C512.718 997.8 502.538 975.409 494.621 966.823C489.713 961.662 482.962 958.655 475.843 958.459C470.96 957.326 465.864 957.508 461.075 958.987C453.737 962.976 453.28 975.866 453.016 983.113C452.752 990.36 453.605 997.821 453.097 1005.09C452.965 1009.01 453.006 1011.37 453.006 1011.37L454.762 1012.15C464.912 1027.31 490.764 1020.66 490.764 1020.66L489.18 993.06C496.194 1004.82 519.031 1022.5 519.031 1022.5L526.948 1011.41C523.826 1007.9 520.508 1004.56 517.012 1001.42Z" fill="#DFFFD0"/>
<path d="M459.045 942.371C459.045 942.371 457.36 959.058 465.338 960.327C467.46 960.778 469.671 960.496 471.613 959.529C473.554 958.561 475.109 956.964 476.026 954.998C476.026 954.998 477.274 943.224 471.722 939.773C466.17 936.322 459.045 942.371 459.045 942.371Z" fill="#FFC99C"/>
<path d="M468.058 944.777C465.87 945.549 463.577 945.98 461.258 946.056C457.989 946.056 455.777 946.513 455.229 944.026C454.681 941.539 453.655 936.921 458.274 933.876C462.892 930.831 476.432 927.583 482.278 938.677C488.125 949.771 487.14 955.841 484.024 959.444C480.908 963.047 472.788 963.423 470.981 959.748C469.175 956.074 468.058 944.777 468.058 944.777Z" fill="#FFEDBB"/>
<path d="M451.28 961.545L449.342 963.27C449.342 963.27 452.021 972.284 460.892 972.558C460.892 972.558 466.982 973.207 470.413 969.421L469.398 967.574C469.398 967.574 464.323 970.386 461.126 969.827C458.903 969.429 456.824 968.454 455.097 967.001C453.369 965.548 452.053 963.666 451.28 961.545Z" fill="#68E1FD"/>
<path opacity="0.19" d="M469.408 967.563C469.408 967.563 464.333 970.365 461.176 969.837C461.176 970.751 461.065 971.654 461.004 972.567C461.816 972.628 467.216 972.923 470.413 969.421L469.408 967.563Z" fill="#606060"/>
<path d="M461.176 969.837C458.983 969.346 456.939 968.335 455.217 966.891C453.495 965.446 452.145 963.609 451.28 961.534L450.143 962.549C450.785 964.152 451.714 965.624 452.884 966.893C454.968 969.315 457.921 970.821 461.105 971.085C461.126 970.669 461.156 970.283 461.176 969.837Z" fill="#FFE89F"/>
<path d="M469.408 967.563C469.408 967.563 464.333 970.365 461.177 969.837C461.177 970.263 461.149 970.686 461.095 971.106C461.508 971.128 461.921 971.128 462.334 971.106C464.135 971.068 465.901 970.594 467.48 969.725C468.18 969.33 468.86 968.903 469.51 968.497L469.794 968.325L469.408 967.563Z" fill="#FFEDBB"/>
<path d="M464.922 957.739C464.592 958.001 464.175 958.129 463.755 958.094C463.235 958.046 462.75 957.816 462.384 957.444C462.308 957.556 462.22 957.658 462.12 957.749L461.105 969.827C461.105 969.827 466.607 970.741 469.388 967.564L464.922 957.739Z" fill="#E91837"/>
<path d="M461.38 958.094C460.992 958.117 460.608 958.004 460.295 957.775C459.981 957.545 459.758 957.212 459.664 956.835C459.36 956.909 459.039 956.873 458.759 956.734C458.479 956.595 458.257 956.361 458.132 956.074L451.27 961.545C452.067 963.653 453.39 965.522 455.113 966.973C456.837 968.425 458.903 969.411 461.116 969.838L462.131 957.759C461.926 957.953 461.661 958.071 461.38 958.094Z" fill="#CC1B3D"/>
<path d="M458.371 958.018C458.431 957.773 458.356 957.544 458.204 957.507C458.051 957.469 457.879 957.638 457.819 957.883C457.759 958.128 457.834 958.357 457.986 958.394C458.139 958.431 458.311 958.263 458.371 958.018Z" fill="#66390C"/>
<path d="M460.641 959.598C460.701 959.353 460.626 959.124 460.474 959.087C460.322 959.049 460.149 959.218 460.089 959.463C460.029 959.708 460.104 959.937 460.256 959.974C460.409 960.011 460.581 959.843 460.641 959.598Z" fill="#66390C"/>
<path d="M460.418 962.401C460.478 962.156 460.404 961.927 460.251 961.89C460.099 961.852 459.926 962.02 459.866 962.265C459.806 962.51 459.881 962.739 460.033 962.777C460.186 962.814 460.358 962.646 460.418 962.401Z" fill="#66390C"/>
<path d="M457.578 962.425C457.638 962.18 457.564 961.951 457.411 961.914C457.259 961.877 457.086 962.045 457.026 962.29C456.966 962.535 457.041 962.764 457.193 962.801C457.346 962.839 457.518 962.67 457.578 962.425Z" fill="#66390C"/>
<path d="M459.931 966.83C459.991 966.585 459.916 966.356 459.764 966.318C459.612 966.281 459.439 966.449 459.379 966.694C459.319 966.939 459.394 967.168 459.546 967.205C459.699 967.243 459.871 967.075 459.931 966.83Z" fill="#66390C"/>
<path d="M456.312 960.308C456.372 960.063 456.297 959.834 456.145 959.797C455.992 959.759 455.82 959.928 455.76 960.173C455.7 960.418 455.775 960.647 455.927 960.684C456.08 960.721 456.252 960.553 456.312 960.308Z" fill="#66390C"/>
<path d="M453.986 961.553C454.047 961.308 453.972 961.079 453.819 961.042C453.667 961.004 453.495 961.173 453.434 961.418C453.374 961.663 453.449 961.892 453.602 961.929C453.754 961.966 453.926 961.798 453.986 961.553Z" fill="#66390C"/>
<path d="M456.914 965.143C456.974 964.898 456.899 964.669 456.747 964.632C456.595 964.594 456.422 964.763 456.362 965.008C456.302 965.253 456.377 965.482 456.529 965.519C456.682 965.556 456.854 965.388 456.914 965.143Z" fill="#66390C"/>
<path d="M465.548 964.14C465.609 963.895 465.534 963.666 465.381 963.629C465.229 963.591 465.057 963.76 464.996 964.005C464.936 964.25 465.011 964.479 465.164 964.516C465.316 964.553 465.488 964.385 465.548 964.14Z" fill="#66390C"/>
<path d="M463.476 966.1C463.536 965.855 463.461 965.626 463.309 965.589C463.156 965.551 462.984 965.72 462.924 965.965C462.864 966.21 462.939 966.439 463.091 966.476C463.244 966.513 463.416 966.345 463.476 966.1Z" fill="#66390C"/>
<path d="M466.804 967.877C466.864 967.632 466.789 967.404 466.637 967.366C466.485 967.329 466.312 967.497 466.252 967.742C466.192 967.987 466.267 968.216 466.419 968.253C466.572 968.291 466.744 968.122 466.804 967.877Z" fill="#66390C"/>
<path d="M464.545 961.756C464.606 961.511 464.531 961.282 464.378 961.245C464.226 961.208 464.054 961.376 463.993 961.621C463.933 961.866 464.008 962.095 464.161 962.132C464.313 962.17 464.485 962.001 464.545 961.756Z" fill="#66390C"/>
<path d="M449.423 974.578V969.848C449.423 969.848 448.946 963.473 449.9 963.017C450.854 962.56 451.199 967.858 451.199 967.858C451.199 967.858 453.229 963.21 454.315 962.326C455.401 961.443 459.593 964.285 460.456 966.386C461.319 968.488 457.675 974.984 457.675 974.984L456 977.186L449.423 974.578Z" fill="#FFC99C"/>
<path d="M443.221 978.719C441.259 982.89 439.603 987.198 438.268 991.609C437.192 995.284 435.071 1000.87 437.253 1004.48C439.77 1008.54 444.754 1007.43 447.565 1004.32C450.001 1001.62 451.23 997.293 452.64 993.995C453.168 992.777 460.04 976.222 460.091 976.242L447.119 971.736C446.865 971.604 445.14 974.527 443.221 978.719Z" fill="#EDFAE7"/>
<path d="M460.811 954.298C462.635 954.544 464.491 954.302 466.191 953.598C466.191 953.598 466.353 957.242 464.465 957.658C462.577 958.074 460.953 955.222 460.811 954.298Z" fill="#66390C"/>
<path d="M575.181 1005.55L571.121 1007.76C569.974 1008.39 571 1010.14 572.136 1009.51L576.196 1007.31C577.353 1006.68 576.328 1004.93 575.181 1005.55Z" fill="#FFE1E1"/>
<path style="mix-blend-mode:multiply" opacity="0.32" d="M458.761 1096.57L413.37 1121.83L453.27 1144.67L514.373 1111.89C503.116 1106.73 468.89 1103.81 458.761 1096.57Z" fill="url(#paint1_linear)"/>
<path d="M457.949 1092.95L453.3 1099.71C453.3 1099.71 468.302 1125.37 495.757 1119.48C495.757 1119.48 514.809 1116.93 522.614 1102.68L518.118 1097.73C518.118 1097.73 504.618 1110.24 494.408 1110.92C469.804 1112.6 457.949 1092.95 457.949 1092.95Z" fill="#68E1FD"/>
<path opacity="0.19" d="M518.118 1097.75C518.118 1097.75 504.72 1110.13 494.57 1110.93C495.108 1113.76 495.585 1116.62 496.093 1119.45C498.64 1119.03 515.378 1115.85 522.615 1102.69L518.118 1097.75Z" fill="#606060"/>
<path d="M494.57 1110.93C470.758 1111.9 457.949 1092.95 457.949 1092.95L455.219 1096.91C458.132 1101.49 462.598 1105.03 466.901 1108.2C475.579 1114.66 485.821 1116.09 495.321 1114.88C495.057 1113.52 494.844 1112.28 494.57 1110.93Z" fill="#FFE89F"/>
<path d="M518.118 1097.75C518.118 1097.75 504.72 1110.13 494.57 1110.93C494.82 1112.25 495.061 1113.56 495.291 1114.88C496.587 1114.67 497.872 1114.39 499.138 1114.04C504.628 1112.56 509.678 1109.78 513.855 1105.92C515.713 1104.19 517.468 1102.35 519.306 1100.58L520.057 1099.84L518.118 1097.75Z" fill="#FFEDBB"/>
<path d="M518.118 1097.75L485.78 1056.83L494.418 1110.96C494.418 1110.96 511.987 1109.59 518.118 1097.75Z" fill="#E91837"/>
<path d="M481.669 1071.21C482.157 1071.21 482.552 1070.55 482.552 1069.74C482.552 1068.94 482.157 1068.28 481.669 1068.28C481.182 1068.28 480.786 1068.94 480.786 1069.74C480.786 1070.55 481.182 1071.21 481.669 1071.21Z" fill="#66390C"/>
<path d="M476.188 1078.25C476.676 1078.25 477.071 1077.59 477.071 1076.79C477.071 1075.98 476.676 1075.33 476.188 1075.33C475.701 1075.33 475.305 1075.98 475.305 1076.79C475.305 1077.59 475.701 1078.25 476.188 1078.25Z" fill="#66390C"/>
<path d="M484.318 1081.41C484.806 1081.41 485.202 1080.75 485.202 1079.94C485.202 1079.14 484.806 1078.48 484.318 1078.48C483.831 1078.48 483.435 1079.14 483.435 1079.94C483.435 1080.75 483.831 1081.41 484.318 1081.41Z" fill="#66390C"/>
<path d="M485.78 1090.18C486.268 1090.18 486.663 1089.52 486.663 1088.71C486.663 1087.91 486.268 1087.25 485.78 1087.25C485.292 1087.25 484.897 1087.91 484.897 1088.71C484.897 1089.52 485.292 1090.18 485.78 1090.18Z" fill="#66390C"/>
<path d="M477.061 1092.38C477.549 1092.38 477.944 1091.72 477.944 1090.92C477.944 1090.11 477.549 1089.46 477.061 1089.46C476.574 1089.46 476.178 1090.11 476.178 1090.92C476.178 1091.72 476.574 1092.38 477.061 1092.38Z" fill="#66390C"/>
<path d="M487.638 1104.11C488.125 1104.11 488.521 1103.46 488.521 1102.65C488.521 1101.84 488.125 1101.19 487.638 1101.19C487.15 1101.19 486.755 1101.84 486.755 1102.65C486.755 1103.46 487.15 1104.11 487.638 1104.11Z" fill="#66390C"/>
<path d="M471.58 1086.81C472.068 1086.81 472.463 1086.15 472.463 1085.34C472.463 1084.54 472.068 1083.88 471.58 1083.88C471.093 1083.88 470.697 1084.54 470.697 1085.34C470.697 1086.15 471.093 1086.81 471.58 1086.81Z" fill="#66390C"/>
<path d="M465.399 1092.38C465.887 1092.38 466.282 1091.72 466.282 1090.92C466.282 1090.11 465.887 1089.46 465.399 1089.46C464.911 1089.46 464.516 1090.11 464.516 1090.92C464.516 1091.72 464.911 1092.38 465.399 1092.38Z" fill="#66390C"/>
<path d="M477.061 1101.2C477.549 1101.2 477.944 1100.54 477.944 1099.74C477.944 1098.93 477.549 1098.28 477.061 1098.28C476.574 1098.28 476.178 1098.93 476.178 1099.74C476.178 1100.54 476.574 1101.2 477.061 1101.2Z" fill="#66390C"/>
<path d="M502.832 1091.63C503.32 1091.63 503.715 1090.97 503.715 1090.17C503.715 1089.36 503.32 1088.7 502.832 1088.7C502.344 1088.7 501.949 1089.36 501.949 1090.17C501.949 1090.97 502.344 1091.63 502.832 1091.63Z" fill="#66390C"/>
<path d="M497.95 1099.21C498.438 1099.21 498.833 1098.55 498.833 1097.75C498.833 1096.94 498.438 1096.29 497.95 1096.29C497.462 1096.29 497.067 1096.94 497.067 1097.75C497.067 1098.55 497.462 1099.21 497.95 1099.21Z" fill="#66390C"/>
<path d="M509.48 1102.16C509.968 1102.16 510.363 1101.51 510.363 1100.7C510.363 1099.89 509.968 1099.24 509.48 1099.24C508.993 1099.24 508.597 1099.89 508.597 1100.7C508.597 1101.51 508.993 1102.16 509.48 1102.16Z" fill="#66390C"/>
<path d="M497.95 1085.08C498.438 1085.08 498.833 1084.43 498.833 1083.62C498.833 1082.81 498.438 1082.16 497.95 1082.16C497.462 1082.16 497.067 1082.81 497.067 1083.62C497.067 1084.43 497.462 1085.08 497.95 1085.08Z" fill="#66390C"/>
<path d="M492.246 1074.92C492.733 1074.92 493.129 1074.27 493.129 1073.46C493.129 1072.65 492.733 1072 492.246 1072C491.758 1072 491.363 1072.65 491.363 1073.46C491.363 1074.27 491.758 1074.92 492.246 1074.92Z" fill="#66390C"/>
<path style="mix-blend-mode:multiply" opacity="0.32" d="M592.995 1061.94L557.531 1082.74L543.94 1073.48L578.287 1057.43" fill="url(#paint2_linear)"/>
<path d="M572.552 1044.55L575.831 1059.84C575.94 1060.35 576.163 1060.82 576.483 1061.23C576.803 1061.64 577.212 1061.97 577.678 1062.2C579.586 1063.14 583.514 1064.11 590.985 1062.75C591.656 1062.63 592.276 1062.31 592.767 1061.84C593.258 1061.37 593.599 1060.76 593.746 1060.09L597.085 1044.55" fill="#68E1FD"/>
<path d="M584.824 1049.58C591.601 1049.58 597.095 1047.33 597.095 1044.55C597.095 1041.78 591.601 1039.53 584.824 1039.53C578.047 1039.53 572.552 1041.78 572.552 1044.55C572.552 1047.33 578.047 1049.58 584.824 1049.58Z" fill="#124577"/>
<path d="M577.688 1033.28C577.112 1032.97 576.624 1032.52 576.267 1031.97L569.365 1021.28C566.168 1016.32 565.001 980.809 573.425 980.362C580.084 980.007 586.935 995.587 589.32 1000.12C591.553 1004.39 593.999 1008.92 595.329 1013.57C597.359 1020.58 592.781 1026.71 588.468 1032.27C586.336 1034.88 580.459 1034.78 577.688 1033.28Z" fill="#66C652"/>
<path d="M581.799 1040.25C582.726 1040.92 583.636 1041.6 584.53 1042.28C585.221 1026.45 583.023 1010.63 578.044 995.588C577.923 995.237 577.671 994.948 577.34 994.781C577.009 994.614 576.627 994.583 576.273 994.694C575.92 994.806 575.624 995.05 575.449 995.376C575.273 995.702 575.232 996.084 575.334 996.44C580.024 1010.55 582.212 1025.38 581.799 1040.25Z" fill="#488FD5"/>
<path d="M591.553 1030.37C591.398 1029.98 591.342 1029.56 591.391 1029.14L592.335 1021.07C592.771 1017.34 606.636 999.394 610.94 1002.58C614.36 1005.12 611.407 1015.56 610.727 1018.77C610.194 1021.86 609.354 1024.9 608.22 1027.82C606.362 1032.09 601.622 1033.25 597.247 1034.23C595.146 1034.71 592.294 1032.27 591.553 1030.37Z" fill="#49B230"/>
<path d="M604.312 1012.41C598.133 1022.84 593.194 1033.96 589.594 1045.55C590.299 1045.93 590.977 1046.37 591.624 1046.85C595.197 1035.19 600.145 1024 606.362 1013.51C607.123 1012.22 605.073 1011.13 604.312 1012.41Z" fill="#488FD5"/>
<path style="mix-blend-mode:multiply" opacity="0.32" d="M332.271 1001.82L290.261 1027.38L320.376 1047.87L372.019 1017.59C359.128 1013.51 343.944 1008.52 332.271 1001.82Z" fill="url(#paint3_linear)"/>
<path d="M326.456 1007.32C344.056 1002.5 373.562 977.997 381.093 971.562C379.097 969.35 376.769 967.463 374.191 965.97C373.815 965.757 373.44 965.554 373.064 965.351C332.556 982.108 326.456 1007.32 326.456 1007.32Z" fill="#68E1FD"/>
<path d="M387.914 985.479C366.924 1002.2 326.466 1007.33 326.466 1007.33C364.762 1010.15 381.824 1000.39 387.437 996.004C387.528 995.639 387.619 995.273 387.701 994.898C388.369 991.8 388.441 988.603 387.914 985.479Z" fill="#68E1FD"/>
<path d="M326.456 1007.32C326.456 1007.32 328.486 976.79 358.144 961.646C353.067 961.611 348.043 962.674 343.416 964.762L342.625 965.128C341.376 965.717 340.209 966.326 339.082 966.955C333.469 972.507 325.349 984.494 326.456 1007.32Z" fill="#68E1FD"/>
<path d="M326.456 1007.32C348.583 1018.98 364.457 1019.58 370.872 1018.07C374.87 1015.4 378.402 1012.1 381.326 1008.29C357.596 1018.33 326.456 1007.32 326.456 1007.32Z" fill="#68E1FD"/>
<path d="M326.456 1007.32C326.456 1007.32 320.589 995.029 322.396 982.961C319.88 987.656 318.621 992.922 318.742 998.247C320.599 1001.82 323.187 1005.72 326.456 1007.32Z" fill="#68E1FD"/>
<path d="M326.456 1007.32C328.18 1012.98 331.028 1018.23 334.829 1022.76C341.343 1025.98 348.81 1026.7 355.82 1024.79C339.204 1021.01 326.456 1007.32 326.456 1007.32Z" fill="#68E1FD"/>
<path d="M321.624 1010.24L321.898 1010.75C322.702 1012.09 323.612 1013.37 324.618 1014.57L326.466 1007.33L321.624 1010.24Z" fill="#68E1FD"/>
<path d="M327.988 1008.12C328.331 1008.5 328.745 1008.81 329.206 1009.03C329.805 1009.24 329.683 1008.95 330.495 1009.5C331.436 1010.16 332.435 1010.72 333.479 1011.19C334.657 1011.7 334.809 1011.24 335.509 1011.89C336.553 1012.85 337.854 1013.5 339.255 1013.74C340.666 1013.86 341.061 1013.57 342.3 1014.24C343.538 1014.91 344.827 1016.46 346.756 1016.54C348.684 1016.62 348.562 1016.26 350.115 1016.73C351.668 1017.2 352.754 1018.36 354.662 1018.31C356.571 1018.26 356.692 1017.7 358.327 1018.31C359.961 1018.92 361.91 1019.68 363.28 1019.46C364.65 1019.24 365.31 1018.73 366.467 1019.2C367.034 1019.46 367.641 1019.63 368.263 1019.68L370.923 1018.04L363.98 1017.24" fill="#68E1FD"/>
<path d="M326.354 1004.86C326.151 1004.47 326.06 1004.04 326.09 1003.6C326.196 1003.11 326.24 1002.62 326.222 1002.12C326.04 1001.17 326.04 1000.18 326.222 999.221C326.453 998.141 326.532 997.034 326.456 995.933C326.289 995.221 326.338 994.475 326.598 993.791C326.88 993.173 327.052 992.51 327.105 991.832C327.227 991.051 326.892 990.299 327.247 989.345C327.602 988.391 327.846 987.813 328.019 987.194C328.191 986.574 327.674 985.722 328.262 984.149C328.851 982.575 329.186 982.616 329.734 981.317C330.282 980.018 329.896 979.287 330.485 978.485C331.123 977.523 331.67 976.503 332.119 975.44C332.84 973.999 332.952 972.882 333.875 972.486C334.799 972.09 335.093 970.395 335.834 969.654C336.575 968.913 337.864 967.624 337.925 967.624L339.113 966.944" fill="#68E1FD"/>
<g opacity="0.52">
<path opacity="0.52" d="M326.456 1007.32C344.056 1002.5 373.562 977.998 381.093 971.563C379.097 969.351 376.769 967.464 374.191 965.971C373.815 965.758 373.44 965.555 373.064 965.352C332.556 982.109 326.456 1007.32 326.456 1007.32Z" fill="#093E3E"/>
<path opacity="0.52" d="M387.914 985.479C366.924 1002.2 326.466 1007.33 326.466 1007.33C364.762 1010.15 381.824 1000.39 387.437 996.004C387.528 995.639 387.619 995.273 387.701 994.898C388.369 991.8 388.441 988.603 387.914 985.479Z" fill="#093E3E"/>
<path opacity="0.52" d="M326.456 1007.32C326.456 1007.32 328.486 976.79 358.144 961.646C353.067 961.611 348.043 962.674 343.416 964.762L342.625 965.128C341.376 965.717 340.209 966.326 339.082 966.955C333.469 972.507 325.349 984.494 326.456 1007.32Z" fill="#093E3E"/>
<path opacity="0.52" d="M326.456 1007.32C348.583 1018.98 364.457 1019.58 370.872 1018.07C374.87 1015.4 378.402 1012.1 381.326 1008.29C357.596 1018.33 326.456 1007.32 326.456 1007.32Z" fill="#093E3E"/>
<path opacity="0.52" d="M326.456 1007.32C326.456 1007.32 320.589 995.029 322.396 982.961C319.88 987.656 318.621 992.922 318.742 998.247C320.599 1001.82 323.187 1005.72 326.456 1007.32Z" fill="#093E3E"/>
<path opacity="0.52" d="M326.456 1007.32C328.18 1012.98 331.028 1018.23 334.829 1022.76C341.343 1025.98 348.81 1026.7 355.82 1024.79C339.204 1021.01 326.456 1007.32 326.456 1007.32Z" fill="#093E3E"/>
<path opacity="0.52" d="M321.624 1010.24L321.898 1010.75C322.702 1012.09 323.612 1013.37 324.618 1014.57L326.466 1007.33L321.624 1010.24Z" fill="#093E3E"/>
<path opacity="0.52" d="M327.988 1008.12C328.331 1008.5 328.745 1008.81 329.206 1009.03C329.805 1009.24 329.683 1008.95 330.495 1009.5C331.436 1010.16 332.435 1010.72 333.479 1011.19C334.657 1011.7 334.809 1011.24 335.509 1011.89C336.553 1012.85 337.854 1013.5 339.255 1013.74C340.666 1013.86 341.061 1013.57 342.3 1014.24C343.538 1014.91 344.827 1016.46 346.756 1016.54C348.684 1016.62 348.562 1016.26 350.115 1016.73C351.668 1017.2 352.754 1018.36 354.662 1018.31C356.571 1018.26 356.692 1017.7 358.327 1018.31C359.961 1018.92 361.909 1019.68 363.28 1019.46C364.65 1019.24 365.31 1018.73 366.467 1019.2C367.034 1019.46 367.641 1019.63 368.263 1019.68L370.923 1018.04L363.98 1017.24" fill="#093E3E"/>
<path opacity="0.52" d="M326.354 1004.86C326.151 1004.47 326.06 1004.04 326.09 1003.6C326.196 1003.11 326.24 1002.62 326.222 1002.12C326.04 1001.17 326.04 1000.18 326.222 999.221C326.453 998.141 326.532 997.034 326.456 995.933C326.289 995.221 326.338 994.475 326.598 993.791C326.88 993.173 327.052 992.51 327.105 991.832C327.227 991.051 326.892 990.299 327.247 989.345C327.602 988.391 327.846 987.813 328.019 987.194C328.191 986.574 327.674 985.722 328.262 984.149C328.851 982.575 329.186 982.616 329.734 981.317C330.282 980.018 329.896 979.287 330.485 978.485C331.123 977.523 331.67 976.503 332.119 975.44C332.84 973.999 332.952 972.882 333.875 972.486C334.799 972.09 335.093 970.395 335.834 969.654C336.575 968.913 337.864 967.624 337.925 967.624L339.113 966.944" fill="#093E3E"/>
</g>
<path d="M326.456 1007.32C326.456 1007.32 339.204 1021.02 355.809 1024.81C360.16 1023.7 364.334 1021.99 368.213 1019.73C369.113 1019.22 369.999 1018.67 370.872 1018.09C364.467 1019.58 348.583 1018.98 326.456 1007.32Z" fill="#68E1FD"/>
<path d="M318.782 998.207C318.809 1002.38 319.777 1006.5 321.614 1010.24L326.445 1007.31C323.187 1005.72 320.599 1001.82 318.782 998.207Z" fill="#68E1FD"/>
<path d="M326.456 1007.32C325.349 984.494 333.469 972.496 339.082 966.995C330.648 971.674 325.461 977.277 322.436 982.91C320.599 995.04 326.456 1007.32 326.456 1007.32Z" fill="#68E1FD"/>
<path d="M387.914 985.479C387.519 983.121 386.809 980.826 385.803 978.658C384.603 976.066 383.019 973.671 381.103 971.553C373.562 977.988 344.045 1002.49 326.466 1007.31C326.456 1007.32 366.903 1002.19 387.914 985.479Z" fill="#68E1FD"/>
<path d="M324.618 1014.56C327.44 1017.96 330.925 1020.74 334.86 1022.75C331.058 1018.22 328.21 1012.97 326.486 1007.31L324.618 1014.56Z" fill="#68E1FD"/>
<path d="M326.456 1007.32C326.456 1007.32 357.596 1018.33 381.326 1008.28C384.153 1004.62 386.224 1000.44 387.416 995.983C381.814 1000.38 364.752 1010.15 326.456 1007.32Z" fill="#68E1FD"/>
<path d="M326.456 1007.32C326.456 1007.32 332.546 982.109 373.054 965.331C368.438 962.944 363.32 961.692 358.124 961.677C328.516 976.77 326.456 1007.32 326.456 1007.32Z" fill="#68E1FD"/>
<path d="M327.237 1005.06C327.611 1004.8 327.929 1004.47 328.172 1004.09C328.414 1003.71 328.576 1003.28 328.648 1002.83C328.922 1001.3 328.597 1001.82 329.521 1000.74C330.437 999.939 331.182 998.959 331.713 997.861C332.444 996.298 332.586 994.816 333.906 994.055C334.89 993.563 335.743 992.842 336.392 991.954C337.407 990.838 337.56 988.98 339.072 987.661C340.584 986.341 343.223 984.981 344.147 983.712C345.071 982.444 345.903 981.083 347.121 980.586C348.967 979.593 350.673 978.361 352.196 976.922C353.529 975.518 355.164 974.436 356.977 973.755C359.078 973.024 360.803 972.537 361.412 971.542C361.904 970.718 362.658 970.082 363.554 969.736C364.569 969.228 366.142 969.411 367.167 968.924C368.192 968.436 368.284 967.269 369.461 966.975C370.638 966.681 373.521 965.574 373.521 965.574L372.222 964.904L349.476 975.237L344.259 979.185L341.995 981.52L339.082 985.458L331.916 993.477L328.871 997.963L327.856 1001.32L327.237 1005.06Z" fill="#68E1FD"/>
<path d="M327.927 1006.23C327.927 1006.23 329.683 1005.53 331.317 1005.05C332.952 1004.57 333.408 1004.69 334.423 1003.84C335.438 1002.99 335.266 1002.21 337.083 1001.75C338.9 1001.29 340.3 1001.03 341.599 999.638C342.899 998.248 341.934 997.405 344.644 996.38C347.354 995.355 347.415 996.268 349.395 994.847C351.374 993.426 352.125 991.741 353.952 991.011C355.779 990.28 356.906 990.564 358.205 989.031C359.504 987.499 359.565 985.773 361.595 984.971C363.625 984.17 364.082 984.464 365.655 983.266C367.228 982.069 367.066 980.556 369.38 979.48C371.694 978.404 372.851 978.181 373.176 977.45C373.501 976.719 375.663 974.233 377.175 973.949C378.688 973.664 381.235 971.543 381.235 971.543L375.957 978.78L352.237 995.548L339.59 1002.84L333.449 1005.31L327.968 1006.9L327.927 1006.23Z" fill="#68E1FD"/>
<path d="M328.861 1006.99C329.233 1007.1 329.627 1007.12 330.008 1007.05C330.8 1006.95 331.155 1006.68 331.876 1006.6C333.424 1006.67 334.975 1006.52 336.484 1006.16C337.878 1005.68 339.311 1005.31 340.767 1005.07C342.675 1004.73 343.66 1004.89 344.949 1004.52C346.238 1004.15 347.222 1003.34 348.43 1003.2C349.638 1003.06 351.638 1003.27 353.759 1002.36C355.88 1001.44 357.484 1000.33 358.986 1000.08C361.366 999.647 363.708 999.022 365.99 998.217C369.522 997.009 368.903 995.852 372.222 995.172C375.541 994.492 377.52 994.349 379.702 992.685C381.885 991.02 381.367 990.036 383.965 989.488C385.541 989.145 386.983 988.351 388.117 987.204L387.721 984.555L353.008 998.247L327.907 1006.89" fill="#75DFF8"/>
<path d="M328.506 1007.45C329.518 1007.36 330.534 1007.31 331.551 1007.32C332.73 1007.45 333.918 1007.5 335.103 1007.45C337.021 1007.29 338.946 1007.25 340.869 1007.31C344.269 1007.41 344.705 1008.09 346.816 1007.31C348.928 1006.53 348.106 1006.36 350.653 1006.43C353.434 1006.64 356.231 1006.47 358.966 1005.92C361.514 1005.23 364.041 1004.45 365.523 1004.49C367.963 1004.25 370.355 1003.65 372.628 1002.73C374.049 1002.1 375.537 1001.62 377.063 1001.3C378.525 1001.05 382.047 998.461 384.047 997.75C385.391 997.222 386.611 996.42 387.63 995.396L387.122 997.233L375.277 1004.34L352.237 1008.62L342.269 1009.64L328.506 1007.45Z" fill="#68E1FD"/>
<path d="M328.313 1007.91C328.844 1008.29 329.434 1008.58 330.059 1008.76C331.773 1009.1 333.467 1009.54 335.134 1010.06C336.237 1010.65 337.437 1011.03 338.676 1011.19C340.777 1011.26 342.865 1011.54 344.908 1012.04C346.588 1012.55 348.342 1012.77 350.095 1012.69C352.201 1012.49 354.325 1012.61 356.398 1013.03C358.281 1013.49 360.25 1013.49 362.133 1013.03C364.368 1012.43 366.671 1012.14 368.984 1012.14C370.596 1012.34 372.233 1012.11 373.724 1011.46C375.125 1010.88 375.947 1010.09 377.368 1010.09C378.594 1009.94 379.777 1009.55 380.849 1008.94L381.357 1008.34L346.532 1010.31L337.976 1009.66L328.313 1007.91Z" fill="#68E1FD"/>
<path d="M327.4 1008.32C327.4 1008.32 327.247 1008.43 327.816 1009.03C328.384 1009.63 329.105 1009.82 329.724 1010.62C330.343 1011.42 330.14 1011.95 330.901 1012.31C331.588 1012.57 332.242 1012.91 332.85 1013.32C333.601 1013.87 333.865 1014.78 334.88 1015.22C335.541 1015.45 336.169 1015.76 336.748 1016.15C337.255 1016.57 337.367 1017.24 338.778 1017.88C340.189 1018.52 340.544 1018.31 341.264 1018.89C342.028 1019.83 342.992 1020.59 344.086 1021.11C345.497 1021.57 345.619 1021.44 346.674 1021.86C347.73 1022.27 348.38 1023.36 349.557 1023.49C350.734 1023.62 351.678 1023.36 352.511 1023.89C353.401 1024.33 354.341 1024.68 355.312 1024.9L356.175 1024.71L345.172 1019.97L334.829 1014.41L330.343 1010.71L328.729 1009.21L327.4 1008.32Z" fill="#68E1FD"/>
<path d="M326.851 1008.57C327.012 1008.73 327.131 1008.93 327.197 1009.15C327.339 1009.55 327.379 1009.95 327.45 1010.08C327.655 1010.32 327.807 1010.59 327.897 1010.89C327.934 1011.31 328.059 1011.72 328.262 1012.09C328.473 1012.34 328.644 1012.61 328.77 1012.91C328.829 1013.22 328.924 1013.51 329.054 1013.8C329.237 1014.11 329.399 1014.11 329.561 1014.45C329.721 1015.01 329.936 1015.55 330.201 1016.07C330.842 1016.72 331.404 1017.45 331.876 1018.23C332.125 1019.01 332.569 1019.71 333.165 1020.26C333.806 1020.76 334.332 1021.4 334.708 1022.12C334.812 1022.32 334.867 1022.54 334.87 1022.77L333.337 1021.67L329.541 1016.37L326.851 1009.55V1008.57Z" fill="#68E1FD"/>
<path d="M358.388 961.707H356.804C356.804 961.707 355.657 962.549 354.876 963.189C354.094 963.828 353.201 963.808 351.831 964.508C350.46 965.209 350.937 965.605 350.095 966.264C349.15 966.818 348.166 967.303 347.151 967.716C346.136 968.284 346.411 969.035 345.304 970.071C344.455 970.774 343.563 971.424 342.635 972.019C341.508 972.913 341.782 973.461 340.919 974.577C340.13 975.483 339.237 976.294 338.26 976.993C337.245 977.876 337.347 979.023 336.585 979.957C335.979 980.92 335.233 981.789 334.373 982.535C333.49 983.144 333.5 984.484 332.87 985.925C332.241 987.366 332.089 988.239 331.084 989.142C330.079 990.046 330.577 990.898 330.069 992.187C329.756 993.221 329.29 994.203 328.689 995.101C328.262 995.517 328.435 996.633 328.141 997.902C327.961 998.731 327.7 999.541 327.359 1000.32C327.198 1000.85 327.15 1001.4 327.217 1001.95C327.147 1002.56 326.986 1003.15 326.74 1003.71C326.679 1004.07 326.679 1004.45 326.74 1004.81L328.496 1000.86L332.556 992.259L338.737 979.307L347.872 970.903L350.988 967.949L355.048 964.904L358.388 961.707Z" fill="#68E1FD"/>
<path d="M325.755 1005.41C325.755 1005.41 325.278 1005.35 324.852 1004.23C324.426 1003.1 324.568 1001.96 324.04 1001.18C323.451 1000.45 323.082 999.559 322.974 998.623C323.032 997.832 322.96 997.036 322.761 996.268C322.406 994.817 322.071 994.959 322.081 994.015C322.091 993.071 322.517 991.904 322.081 990.564C321.721 989.815 321.547 988.989 321.573 988.159C321.644 987.418 322.223 985.601 321.746 984.291L322.446 982.941L322.954 986.362L323.664 996.674L325.38 1003.78L325.755 1005.41Z" fill="#68E1FD"/>
<path d="M325.065 1006.4L324.192 1005.38C323.735 1004.87 322.974 1004.63 322.558 1003.63C322.142 1002.62 322.162 1002.17 321.259 1001.6C320.355 1001.02 320.68 1000.25 319.889 999.343C319.518 998.919 319.178 998.467 318.874 997.993V998.572L321.178 1003.34L322.71 1005.08L325.065 1006.4Z" fill="#68E1FD"/>
<path d="M325.339 1007.91C325.339 1007.91 325.664 1008.29 324.618 1008.93C323.573 1009.56 323.695 1009.65 322.893 1009.79C322.656 1009.84 322.436 1009.95 322.257 1010.11C322.078 1010.27 321.947 1010.48 321.878 1010.71L321.523 1010L325.339 1007.91Z" fill="#68E1FD"/>
<path d="M326.08 1008.52C325.876 1008.68 325.742 1008.91 325.704 1009.17C325.534 1009.6 325.412 1010.06 325.339 1010.52C325.248 1011.38 324.953 1011.03 324.872 1011.74C324.791 1012.45 325.085 1012.6 324.872 1013.19C324.742 1013.56 324.543 1013.9 324.283 1014.2L324.72 1014.79L325.786 1012.67L326.801 1009.56L326.08 1008.52Z" fill="#68E1FD"/>
<path d="M326.75 1004.87C326.316 1004.85 325.889 1004.97 325.526 1005.21C325.163 1005.45 324.882 1005.79 324.72 1006.19C323.83 1006.02 322.987 1005.65 322.245 1005.13C321.504 1004.6 320.881 1003.93 320.416 1003.15C320.351 1003.06 320.257 1002.98 320.149 1002.94C320.041 1002.9 319.923 1002.9 319.812 1002.93C319.701 1002.96 319.602 1003.02 319.528 1003.11C319.455 1003.2 319.41 1003.31 319.401 1003.42C319.401 1004.31 318.995 1005.11 319.401 1005.95C319.805 1006.62 320.452 1007.11 321.208 1007.32C322.4 1007.8 323.694 1007.95 324.963 1007.77C325.176 1008.04 325.448 1008.25 325.758 1008.4C326.068 1008.54 326.407 1008.62 326.75 1008.61C327.018 1008.65 327.292 1008.63 327.552 1008.56C327.813 1008.48 328.054 1008.35 328.259 1008.17C328.465 1008 328.63 1007.78 328.742 1007.53C328.855 1007.28 328.914 1007.01 328.914 1006.74C328.914 1006.47 328.855 1006.2 328.742 1005.96C328.63 1005.71 328.465 1005.49 328.259 1005.31C328.054 1005.14 327.813 1005.01 327.552 1004.93C327.292 1004.85 327.018 1004.84 326.75 1004.88V1004.87ZM320.528 1005.1C320.456 1005.11 320.387 1005.14 320.325 1005.18C320.316 1005.08 320.316 1004.97 320.325 1004.87C320.378 1004.96 320.447 1005.04 320.528 1005.11V1005.1Z" fill="#874518"/>
<path opacity="0.19" d="M322.436 982.91C322.436 982.91 312.976 1000.38 324.608 1014.55C337.235 1029.9 362.052 1030.68 381.316 1008.26C381.326 1008.28 328.689 1024.85 322.436 982.91Z" fill="#606060"/>
</g>
<defs>
<linearGradient id="paint0_linear" x1="365.98" y1="1095.19" x2="413.106" y2="1055.77" gradientUnits="userSpaceOnUse">
<stop stop-color="white" stop-opacity="0"/>
<stop offset="0.99" stop-color="#808080"/>
</linearGradient>
<linearGradient id="paint1_linear" x1="439.283" y1="1135.73" x2="478.878" y2="1105.38" gradientUnits="userSpaceOnUse">
<stop stop-color="white" stop-opacity="0"/>
<stop offset="1" stop-color="#333333"/>
</linearGradient>
<linearGradient id="paint2_linear" x1="15155" y1="6466.15" x2="15636.5" y2="5685.41" gradientUnits="userSpaceOnUse">
<stop stop-color="white" stop-opacity="0"/>
<stop offset="0.99" stop-color="#808080"/>
</linearGradient>
<linearGradient id="paint3_linear" x1="313.118" y1="1035.98" x2="342.817" y2="1013.74" gradientUnits="userSpaceOnUse">
<stop stop-color="white" stop-opacity="0"/>
<stop offset="0.99" stop-color="#333333"/>
</linearGradient>
<clipPath id="clip0">
<rect width="2712" height="1384" fill="white"/>
</clipPath>
</defs>
</svg>
