<svg width="1026" height="878" viewBox="0 0 1026 878" fill="none" xmlns="http://www.w3.org/2000/svg">
<g id="connectme">
<g id="surface1">
<path id="Vector" d="M357.514 318.001C355.523 316.55 352.572 316.649 352.226 314.144C351.91 311.833 354.018 307.859 354.584 305.516C355.186 303.024 357.077 299.285 354.96 296.882C353.325 295.023 349.383 296.173 347.655 297.201C345.026 298.764 343.044 301.227 341.243 303.455C339.458 305.665 337.527 307.749 335.464 309.767C332.327 312.837 328.026 315.287 329.836 309.218C331.14 304.854 333.263 300.686 335.034 296.458C337.548 290.462 339.575 284.051 338.382 277.752C338.244 277.009 338.036 276.235 337.443 275.689C336.774 275.072 335.757 274.871 334.802 274.698C331.619 274.123 327.999 273.621 325.364 275.273C324.115 276.058 323.274 277.229 322.528 278.398C318.796 284.239 318.854 289.626 316.959 295.896C316.417 297.692 315.881 299.747 314.373 301.105C312.087 300.987 312.214 296.934 312.129 295.747C311.732 290.282 310.867 285.28 310.786 279.88C310.753 277.637 309.883 275.142 307.585 274.12C305.333 273.116 302.433 273.958 300.722 275.579C299.012 277.2 298.274 279.418 297.852 281.585C296.13 290.402 298.765 299.298 297.813 308.144C297.458 311.456 296.401 318.37 292.844 312.698C290.694 309.265 290.128 305.351 287.27 302.19C284.714 299.355 283.232 295.08 279.516 293.153C278.281 292.51 276.712 292.471 275.104 292.803L275.107 292.758C275.059 292.779 275.017 292.811 274.969 292.831C271.867 293.516 268.654 295.585 267.44 297.535C266.266 299.421 266.398 301.737 267.094 303.793C267.79 305.85 268.994 307.743 269.931 309.725C273.261 316.791 273.047 324.685 272.782 332.317L273.93 312.827C277.318 326.983 280.187 347.224 264.525 355.249L266.221 360.436C270.301 365.635 272.349 372.085 278.037 376.177C280.54 377.976 282.307 378.154 285.367 377.417C287.499 376.902 289.577 376.164 291.625 375.443C294.416 374.457 296.892 372.956 299.521 371.698C302.101 370.464 304.796 369.41 307.401 368.213C314.463 364.963 321.817 361.922 328.24 357.759C336.889 352.155 344.225 345.676 351.021 338.425C354.837 334.354 357.782 330.332 358.923 325.215C359.01 324.821 359.086 324.42 359.152 324.013C359.498 321.879 359.414 319.384 357.514 318.001Z" fill="white"/>
<g id="lefthand">
<path id="Vector_2" d="M316.523 355.902C315.626 355.876 314.746 355.91 313.855 355.96C313.84 355.962 313.831 355.965 313.816 355.968C313.412 356.046 313.015 356.114 312.614 356.211C312.434 356.253 311.861 356.506 311.569 356.535C311.521 356.556 311.473 356.577 311.428 356.6C311.38 356.621 311.289 356.671 311.184 356.729C310.976 356.893 310.639 357.144 310.551 357.225C307.968 359.618 303.583 359.26 300.99 357.163C298.247 354.943 298.644 351.096 301.063 348.858C304.908 345.297 311 343.992 316.457 344.159C320.248 344.274 323.07 346.719 323.253 350.001C323.428 353.081 320.061 356.012 316.523 355.902ZM357.851 321.505C356.424 321.549 354.75 322.959 353.563 323.602C351.783 324.564 350.57 325.921 349.046 327.142C347.899 328.063 346.236 329.624 344.631 329.885C340.53 330.55 343.647 324.904 344.424 323.756C346.598 320.543 349.004 317.455 351.04 314.199C351.025 314.144 351.009 314.087 350.994 314.032C350.236 312.876 349.733 310.873 350.338 309.584C351.747 306.585 352.813 303.468 353.425 300.27C353.44 300.189 353.479 300.03 353.524 299.868C353.572 299.58 353.584 299.277 353.614 298.994C353.702 298.192 353.759 297.389 353.789 296.584C353.807 296.074 353.81 295.566 353.804 295.057C351.913 294.578 349.287 295.436 347.959 296.223C345.33 297.786 343.348 300.25 341.548 302.477C336.796 308.361 333.086 314.863 326.078 319.078C326.801 318.642 327.81 314.118 327.834 313.284C327.879 311.713 327.382 310.879 327.93 309.195C328.812 306.494 329.734 303.79 330.372 301.037C331.559 295.935 332.529 290.797 332.538 285.588C332.541 282.019 332.173 277.846 330.809 274.473C329.653 271.615 327.367 272.954 325.295 274.442C321.046 277.493 320.079 283.193 319.077 287.61C318.523 290.041 317.99 292.52 317.264 294.918C316.722 296.714 316.186 298.77 314.677 300.127C312.391 300.009 312.518 295.956 312.434 294.769C312.19 291.417 312.449 288.13 311.816 284.796C311.377 282.485 311.675 276.076 308.076 275.399C306.019 275.012 304.899 277.004 303.941 278.199C302.297 280.254 301.972 281.962 301.767 284.417C301.415 288.637 301.108 293.035 301.315 297.266C301.49 300.851 301.77 303.897 300.448 307.377C298.882 311.506 297.06 315.556 295.238 319.607C294.841 320.49 293.823 321.565 292.926 321.021C292.616 320.833 292.474 320.501 292.351 320.19C289.285 312.39 287.752 303.905 282.211 297.214C281.284 296.097 280.221 295.017 278.826 294.358C274.924 292.512 270.554 295.831 270.855 299.413C271.024 301.41 271.277 303.45 271.756 305.408C272.28 307.547 273.364 309.616 274.246 311.671C276.116 316.032 277.736 320.658 278.257 325.32C278.51 327.587 278.739 329.851 278.926 332.124C279.016 333.237 278.814 334.344 278.944 335.452C279.028 336.158 279.338 336.872 279.32 337.586C279.278 339.181 278.263 340.561 277.562 341.958C276.517 344.031 275.52 345.49 273.915 347.295C271.379 350.147 268.38 352.453 264.832 354.271L266.525 359.458C270.605 364.657 272.653 371.107 278.342 375.199C280.844 376.998 282.612 377.176 285.671 376.439C287.803 375.924 289.881 375.186 291.929 374.465C294.721 373.479 297.196 371.978 299.825 370.72C302.406 369.486 305.101 368.432 307.706 367.235C314.767 363.985 322.118 360.946 328.544 356.781C337.193 351.177 344.529 344.698 351.326 337.447C355.117 333.402 358.502 329.417 359.309 324.167C359.484 323.029 359.724 321.447 357.851 321.505Z" fill="#FBCDCE"/>
</g>
<path id="Vector_3" d="M293.293 320.872C296.862 314.32 298.756 307.362 299.241 300.134C299.494 296.359 299.397 292.57 299.114 288.797C298.843 285.204 296.94 279.569 300.514 276.868C304.592 273.791 309.353 276.058 310.868 280.048C312.244 283.674 312.289 287.808 312.166 291.597C311.91 299.612 309.991 307.503 308.913 315.449C308.723 316.856 311.259 316.843 311.449 315.449C312.762 305.772 315.403 296.045 314.584 286.245C314.123 280.72 312.259 272.436 303.866 273.289C294.389 274.253 296.133 282.864 296.576 288.797C297.374 299.428 296.413 310.013 291.104 319.761C290.411 321.037 292.594 322.156 293.293 320.872Z" fill="black"/>
<path id="Vector_4" d="M311.289 316.014C316.839 308.677 320.206 299.564 322.615 291.106C323.937 286.459 323.431 270.603 332.938 273.738C339.401 275.872 336.949 287.048 335.742 291.331C332.61 302.459 327.391 313.397 321.673 323.683C320.956 324.97 323.172 326.102 323.889 324.81C329.075 315.481 333.55 305.775 336.958 295.844C338.895 290.198 340.431 284.004 339.078 278.113C337.955 273.229 333.315 269.68 327.418 271.871C320.995 274.253 321.98 282.982 320.832 287.858C318.682 297.031 315.023 307.019 309.073 314.887C308.163 316.09 310.386 317.209 311.289 316.014Z" fill="black"/>
<path id="Vector_5" d="M324.109 324.81C328.912 319.873 334.103 315.151 338.235 309.759C340.298 307.069 342.099 304.237 343.978 301.447C345.736 298.832 350.856 290.405 355.042 295.708C359.453 301.29 351.021 310.735 347.498 315.172C342.939 320.914 337.654 326.172 331.845 330.981C330.77 331.87 332.396 333.279 333.468 332.393C340.548 326.533 346.857 319.975 352.06 312.777C355.668 307.785 361.709 299.258 356.225 293.564C351.043 288.174 344.637 296.537 342.346 299.917C339.744 303.753 337.302 307.673 334.227 311.25C330.586 315.483 326.409 319.366 322.486 323.398C321.537 324.373 323.154 325.791 324.109 324.81Z" fill="black"/>
<path id="Vector_6" d="M330.701 333.046C339.882 334.903 344.933 327.467 349.865 322.119C350.504 321.429 351.175 320.545 351.988 320.001C352.711 319.076 353.735 318.982 355.06 319.714C356.99 319.374 358.017 320.014 358.134 321.636C359.219 325.573 356.102 329.412 353.473 332.33C349.856 336.346 346.203 340.363 342.391 344.24C334.082 352.694 324.777 360.805 313.738 366.555C308.555 369.256 302.701 370.281 297.479 372.781C295.157 373.892 293.396 375.523 291.387 376.998C288.743 378.938 285.777 380.492 283.271 382.576C282.088 383.556 283.883 385.112 285.063 384.131C287.09 382.447 289.442 381.156 291.637 379.652C294.022 378.021 296.091 375.971 298.759 374.682C303.408 372.435 308.751 371.554 313.436 369.256C322.766 364.677 330.896 358.339 338.211 351.593C341.957 348.136 345.511 344.525 348.914 340.812C352.057 337.384 355.671 334.022 358.258 330.249C360.363 327.179 361.878 323.176 360.065 319.714C358.803 317.308 355.846 315.514 352.807 316.702C344.655 319.889 342.623 333.196 331.375 330.923C329.788 330.602 329.111 332.725 330.701 333.046Z" fill="black"/>
<path id="Vector_7" d="M291.766 267.863C293.624 264.215 297.298 262.555 301.833 262.531C304.489 262.518 307.152 263.509 309.787 262.96C312.581 262.377 314.635 260.492 317.457 259.836C321.886 258.805 327.096 259.794 328.466 264.142C328.9 265.523 331.378 264.937 330.941 263.549C328.523 255.859 318.435 256.308 311.967 259.532C309.13 260.947 307.832 260.853 304.607 260.468C302.773 260.249 300.755 260.168 298.921 260.471C294.558 261.187 291.351 263.198 289.55 266.739C288.887 268.038 291.101 269.176 291.766 267.863Z" fill="black"/>
<path id="Vector_8" d="M292.164 257.064C295.808 254.758 299.551 253.78 304.044 253.741C305.697 253.725 305.7 251.494 304.044 251.51C299.138 251.555 294.862 252.611 290.866 255.137C289.544 255.974 290.824 257.909 292.164 257.064Z" fill="black"/>
<path id="Vector_9" d="M366.38 293.357C367.208 294.685 367.406 296.149 367.629 297.627C367.837 299.013 370.376 299.031 370.165 297.627C369.882 295.749 369.623 293.937 368.569 292.243C367.795 290.996 365.603 292.107 366.38 293.357Z" fill="black"/>
<path id="Vector_10" d="M370.18 286.386C373.83 291.516 374.845 296.605 374.637 302.571C374.586 303.989 377.124 303.989 377.172 302.571C377.395 296.228 376.242 290.719 372.369 285.275C371.514 284.069 369.319 285.175 370.18 286.386Z" fill="black"/>
<path id="Vector_11" d="M373.526 293.098C373.932 292.627 374.568 292.392 375.158 292.141C375.853 291.848 376.483 291.393 377.23 291.208C378.796 290.818 378.13 288.692 376.555 289.084C375.504 289.343 374.613 289.926 373.637 290.339C372.694 290.74 371.966 291.255 371.333 291.987C370.921 292.465 371.249 293.213 371.791 293.493C372.435 293.828 373.116 293.571 373.526 293.098Z" fill="black"/>
<path id="Vector_12" d="M268.178 355.241C269.53 351.13 274.351 348.699 276.216 344.766C277.89 341.236 278.025 337.327 277.685 333.567C276.923 325.194 275.237 316.166 271.533 308.379C270.626 306.467 269.497 304.6 268.961 302.574C268.067 299.193 270.97 294.973 275.451 296.254C281.464 297.969 283.109 304.838 284.265 309.456C285.235 313.323 286.472 316.832 289.454 319.905C293.676 324.256 298.657 327.508 299.277 333.656C299.415 335.057 301.954 335.07 301.812 333.656C301.313 328.696 298.413 324.862 294.531 321.356C291.766 318.861 289.264 316.568 287.969 313.208C287.014 310.735 286.629 308.136 285.888 305.618C284.647 301.405 282.109 296.636 277.366 294.581C273.656 292.973 269.328 294.23 267.196 297.324C264.872 300.697 266.937 304.593 268.515 307.827C271.208 313.35 272.773 319.285 273.876 325.194C274.878 330.568 276.222 336.456 274.662 341.84C273.186 346.941 267.371 349.671 265.733 354.655C265.284 356.02 267.732 356.603 268.178 355.241Z" fill="black"/>
<path id="Vector_13" d="M307.2 316.024C310.717 317.439 314.34 319.871 317.035 322.237C319.104 324.054 321.206 326.716 323.702 328.052C325.096 328.798 326.373 326.891 324.982 326.149C323.744 325.487 322.681 324.081 321.642 323.176C320.155 321.879 318.742 320.496 317.167 319.277C314.686 317.35 311.5 315.337 308.479 314.121C307.01 313.53 305.718 315.426 307.2 316.024Z" fill="black"/>
<path id="Vector_14" d="M696.955 611.802L698.798 616.004C698.349 614.543 697.717 613.146 696.955 611.802Z" fill="white"/>
<path id="Vector_15" d="M780.172 615.029C781.928 607.76 783.719 600.444 787.201 593.619C790.474 587.2 797.849 577.883 791.968 570.975C786.511 564.566 777.567 572.494 774.246 576.84C770.535 581.691 768.485 587.077 766.591 592.602C766.286 593.499 764.772 602.135 761.534 600.509C759.417 599.447 759.935 596.171 759.821 594.466C759.562 590.73 760.026 586.959 760.206 583.223C760.754 572.071 760.39 560.971 762.721 549.939C764.103 543.397 765.811 535.344 761.7 529.126C757.665 523.02 750.998 524.197 747.357 529.277C743.421 534.771 742.611 542.621 740.852 548.972C739.605 542.252 738.883 535.208 738.497 528.469C738.223 523.713 737.982 518.988 736.955 514.308C736.419 511.868 735.308 511.12 732.746 510.239C731.086 509.672 729.68 509.703 728.337 510.828C720.354 517.508 719.83 524.994 717.327 533.853C715.779 529.753 713.569 526.678 708.603 527.264C704.863 527.706 699.391 529.832 697.16 532.528C695.124 534.988 693.61 538.126 693.769 541.19C693.98 545.212 694.38 548.875 695.585 552.774C696.922 557.112 697.834 561.606 698.888 566.015C699.69 569.362 701.252 572.327 701.475 575.797C701.581 577.47 702.306 583.011 698.87 582.331C697.344 582.028 696.076 579.855 695.215 578.814C693.914 577.235 692.637 575.548 691.505 573.878C689.631 571.116 687.638 567.325 684.359 565.607C680.001 563.327 678.182 569.885 676.842 572.426C674.279 577.287 673.921 582.138 676.333 587.182C678.92 592.578 683.666 596.935 688.147 601.299C691.471 604.533 694.766 607.951 696.955 611.802L692.959 602.685C694.426 604.329 695.823 606.008 697.199 607.728C698.19 608.963 699.473 609.823 700.599 610.945C705.658 615.978 705.36 621.072 706.667 627.475C708.07 634.347 710.037 641.182 713.527 647.502C719.381 658.107 729.114 666.658 738.666 674.993C739.599 675.809 740.569 676.643 741.792 677.088C746.477 678.785 758.52 677.906 763.715 677.247C770.635 676.371 776.694 673.33 779.214 667.421C781.503 662.061 781.03 657.169 780.027 651.628C778.775 644.688 777.474 638.013 777.808 630.932C778.061 625.538 778.901 620.306 780.172 615.029Z" fill="white"/>
<g id="righthand">
<path id="Vector_16" d="M784.105 570.622C781.924 569.801 779.299 570.583 777.558 571.984C775.82 573.386 774.772 575.305 773.77 577.172C770.71 582.859 767.65 588.546 764.591 594.234C761.537 599.91 752.922 602.624 753.244 593.839C753.383 590.089 755.006 586.687 755.024 582.948C755.048 577.912 754.12 572.949 754.403 567.851C754.976 557.457 757.12 547.196 757.258 536.774C757.309 533.056 756.936 528.971 754.159 526.294C747.137 519.522 743.891 529.458 742.463 533.856C740.961 538.487 740.446 543.303 739.361 548.075C738.979 549.764 738.13 555.65 735.612 555.169C734.299 552.779 734.218 549.66 734.064 546.911C733.86 543.246 733.881 539.514 733.872 535.848C733.854 530.023 734.805 521.721 731.198 516.546C728.475 512.642 723.476 512.574 720.092 515.858C716.559 519.286 718.517 523.99 718.761 528.148C719.471 540.152 722.57 551.898 725.858 563.534C727.301 568.638 728.792 573.825 728.52 579.076C724.922 577.865 723.525 574.165 722.57 570.92C719.893 561.831 717.219 552.742 714.545 543.653C713.301 539.436 711.494 531.84 706.583 529.513C701.641 527.175 697.762 531.327 695.919 534.991C691.17 544.43 695.627 557.535 699.506 566.561C702.261 572.978 705.176 578.741 706.272 585.427C706.583 587.307 715.752 599.403 713.906 600.336C711.94 601.327 709.618 599.714 708.151 598.203C703.3 593.201 698.997 587.799 695.314 582.091C692.703 578.046 689.963 572.513 685.196 570C678.839 566.645 678.821 574.118 679.513 578.095C680.6 584.339 683.085 590.374 686.762 595.7C689.86 600.19 693.763 604.144 697.067 608.502C700.015 612.393 701.822 616.736 703.451 621.111C703.505 621.268 706.2 622.047 706.586 622.303C707.414 622.855 707.895 623.532 708.462 624.262C708.772 624.667 709.076 625.041 709.476 625.381C710.19 625.982 710.973 626.45 711.618 627.122C713.506 629.083 715.219 631.295 716.469 633.615C718.535 637.456 720.119 641.506 722.194 645.345C723.919 648.529 726.846 651.275 729.692 653.73C732.514 656.167 736.016 658.649 739.524 660.285C742.249 661.554 745.044 662.83 747.465 664.506C749.067 665.612 750.958 666.367 752.461 667.554C753.846 668.647 754.723 668.925 756.671 669.084C758.628 669.246 760.809 669.233 762.694 668.715C764.748 668.153 766.476 666.642 768.18 665.538C772.237 662.918 775.694 659.956 777.058 655.592C778.245 651.79 777.965 647.779 777.73 643.846C777.567 641.103 777.435 638.35 777.344 635.594C776.751 617.398 778.076 599.008 785.535 582.085C786.414 580.09 787.39 578.064 787.438 575.925C787.49 573.789 786.363 571.472 784.105 570.622Z" fill="#FBCDCE"/>
</g>
<path id="Vector_17" d="M709.498 591.582C706.381 582.637 705.08 573.478 703.116 564.323C702.065 559.429 700.572 554.675 698.946 549.903C697.223 544.846 695.29 538.5 698.672 533.626C701.502 529.547 708.167 526.924 712.358 531.069C715.439 534.115 715.4 538.929 716.117 542.746C717.643 550.868 719.571 558.932 721.667 566.956C723.949 575.692 726.422 584.402 729.424 592.973C730.035 594.712 733.182 593.97 732.568 592.22C726.262 574.236 721.748 555.695 718.414 537.135C717.701 533.16 716.059 528.94 711.663 526.979C707.896 525.298 703.514 526.158 700.177 528.19C689.743 534.546 694.45 546.247 697.262 554.902C701.267 567.213 702.081 580.07 706.351 592.333C706.959 594.074 710.106 593.332 709.498 591.582Z" fill="black"/>
<path id="Vector_18" d="M722.519 556.202C721.058 546.436 720.775 536.588 720.817 526.752C720.838 521.791 722.474 513.578 729.996 513.458C738.034 513.33 738.205 523.695 738.1 528.31C737.955 534.708 736.925 541.091 737.498 547.495C737.868 551.67 738.576 555.836 739.169 559.991C740.512 569.406 742 578.825 742.879 588.288C743.048 590.092 746.312 590.108 746.143 588.288C745.336 579.651 744.011 571.048 742.78 562.451C742.18 558.267 741.56 554.084 741.036 549.892C740.316 544.158 740.759 538.497 741.138 532.76C741.599 525.779 742.632 513.296 732.27 510.88C722.633 508.634 717.818 518.8 717.583 525.295C717.21 535.566 717.734 546.017 719.26 556.202C719.525 557.985 722.79 558.009 722.519 556.202Z" fill="black"/>
<path id="Vector_19" d="M742.174 559.133C742.777 554.361 744.15 549.586 745.276 544.89C746.384 540.265 747.212 534.397 750.169 530.323C753.473 525.774 760.468 526.14 761.998 531.466C762.944 534.742 761.935 538.293 761.342 541.533C757.644 561.693 755.918 582.03 757.806 602.415C757.972 604.219 761.236 604.232 761.065 602.415C759.866 589.459 760.029 576.464 761.378 563.52C762.052 557.038 763.004 550.583 764.148 544.15C764.841 540.254 766.036 536.199 765.449 532.229C764.293 524.427 754.111 521.308 748.227 527.824C744.716 531.712 743.743 537.626 742.569 542.336C741.19 547.866 739.624 553.503 738.913 559.133C738.684 560.942 741.945 560.929 742.174 559.133Z" fill="black"/>
<path id="Vector_20" d="M740.443 677.715C739.413 676.753 739.994 673.681 739.657 672.35C739.048 669.947 737.546 667.813 735.847 665.873C732.225 661.737 727.726 658.309 724.274 654.033C716.514 644.416 711.35 632.833 707.853 621.547C707.161 619.309 706.507 616.979 705.336 614.88C704.101 612.662 701.924 611.128 700.186 609.224C695.657 604.261 691.649 598.702 687.677 593.389C684.404 589.014 680.952 584.449 680.052 579.183C679.567 576.362 679.917 573.454 681.925 571.109C683.654 569.087 686.521 567.864 689.08 569.642C690.291 570.481 691.134 571.702 691.965 572.821C699.159 582.496 704.384 593.899 716.412 599.853C718.24 600.757 719.884 598.313 718.059 597.408C705.11 590.996 701.797 578.304 692.772 568.92C689.21 565.215 684.081 564.817 680.167 568.452C676.628 571.736 676.056 576.471 677.044 580.71C678.354 586.321 682.121 591.206 685.683 595.91C689.845 601.403 693.923 607.511 699.003 612.393C701.526 614.817 702.984 616.998 704.038 620.149C705.143 623.472 706.158 626.785 707.474 630.056C709.934 636.172 712.744 642.212 716.231 647.946C719.881 653.947 724.437 659.088 729.737 664.035C732.514 666.624 735.639 669.526 736.513 673.103C737.073 675.409 736.136 677.851 738.136 679.718C739.569 681.054 741.873 679.049 740.443 677.715Z" fill="black"/>
<path id="Vector_21" d="M758.755 598.898C760.218 601.573 765.181 601.482 767.009 599.204C767.945 598.038 768.036 596.558 768.262 595.201C768.749 592.262 769.8 589.365 771.065 586.606C773.14 582.091 776.185 575.261 781.364 572.774C785.668 570.714 789.552 573.075 788.7 577.279C788.143 580.007 786.556 582.569 785.128 585.014C782.331 589.809 780.479 594.207 779.774 599.586C778.937 605.961 778.946 612.393 778.232 618.776C777.82 622.465 777.208 626.142 776.438 629.787C775.926 632.211 774.977 634.718 774.968 637.192C774.944 643.517 777.546 648.971 779.792 654.86C780.452 656.58 783.602 655.843 782.936 654.107C780.443 647.567 777.281 641.339 778.726 634.302C780.048 627.854 781.337 621.49 781.852 614.94C782.364 608.4 782.12 601.537 783.822 595.112C785.246 589.726 789.257 585.247 791.209 580.025C792.518 576.519 792.696 572.162 788.564 570.008C784.981 568.141 780.59 569.448 777.63 571.621C773.312 574.793 770.812 579.988 768.617 584.394C767.283 587.072 766.09 589.935 765.41 592.796C765.22 593.596 765.142 594.398 765 595.201C764.937 595.789 764.817 596.367 764.639 596.937C763.163 598.187 762.142 598.365 761.57 597.471C760.673 595.826 757.86 597.262 758.755 598.898Z" fill="black"/>
<path id="Vector_22" d="M762.694 540.267C760.318 539.98 758.953 538.032 758.872 536.034C758.776 533.709 760.778 532.214 762.956 531.22C764.811 530.37 763.166 527.923 761.308 528.775C757.884 530.342 755.271 533.038 755.659 536.573C755.987 539.543 758.234 542.563 761.829 542.997C763.88 543.246 764.769 540.518 762.694 540.267Z" fill="black"/>
<path id="Vector_23" d="M711.783 528.621C706.001 528.877 703.978 533.613 704.375 538.058C704.833 543.198 710.004 545.136 715.313 544.997C717.406 544.943 717.415 542.111 715.313 542.166C711.859 542.257 708.122 541.575 707.637 538.058C707.266 535.393 707.971 531.623 711.783 531.453C713.873 531.361 713.885 528.53 711.783 528.621Z" fill="black"/>
<path id="Vector_24" d="M687.59 569.974C685.759 572.233 684.455 575.69 686.56 578.205C688.842 580.93 693.001 581.026 696.473 580.475C697.22 580.354 697.608 579.696 697.672 579.11C697.681 579.037 697.687 578.966 697.693 578.893C697.888 577.081 694.627 577.091 694.434 578.893C694.425 578.966 694.416 579.037 694.41 579.11C694.811 578.655 695.208 578.2 695.606 577.745C693.585 578.067 690.369 578.239 689.159 576.443C688.056 574.806 689.324 572.738 690.405 571.404C691.616 569.911 688.788 568.494 687.59 569.974Z" fill="black"/>
<path id="Vector_25" d="M785.044 584.7C783.53 583.482 782.111 581.528 782.714 579.646C783.421 577.431 785.722 576.898 788.068 576.981C790.164 577.057 790.161 574.225 788.068 574.15C784.493 574.021 781.214 575.229 779.829 578.281C778.468 581.275 780.16 584.627 782.738 586.703C784.277 587.94 786.589 585.942 785.044 584.7Z" fill="black"/>
<path id="Vector_26" d="M665.616 577.985C665.468 576.051 665.161 574.103 665.513 572.17C665.823 570.452 666.916 569.553 667.754 568.099C668.684 566.47 665.875 565.037 664.938 566.669C664.534 567.369 663.827 567.869 663.381 568.549C662.842 569.378 662.577 570.363 662.384 571.289C661.923 573.535 662.182 575.726 662.354 577.985C662.493 579.795 665.754 579.808 665.616 577.985Z" fill="black"/>
<path id="Vector_27" d="M654.211 579.717C653.133 574.236 653.275 567.694 657.5 563.084C658.795 561.672 656.5 559.656 655.193 561.081C650.155 566.577 649.767 573.849 651.067 580.47C651.417 582.263 654.561 581.502 654.211 579.717Z" fill="black"/>
<path id="Vector_28" d="M765.248 511.586C769.716 512.773 773.303 515.639 775.08 519.396C775.866 521.059 779.022 520.332 778.224 518.646C775.995 513.926 771.77 510.36 766.112 508.856C764.103 508.32 763.242 511.052 765.248 511.586Z" fill="black"/>
<path id="Vector_29" d="M771.357 500.672C779.847 501.595 785.692 509.526 789.007 515.67C789.899 517.318 792.708 515.882 791.823 514.24C787.914 506.994 781.181 498.91 771.357 497.843C769.28 497.618 769.298 500.45 771.357 500.672Z" fill="black"/>
<path id="Vector_30" d="M776.73 505.745C778.154 503.993 780.037 502.583 782.105 501.433C783.867 500.452 782.232 498 780.458 498.988C777.898 500.413 775.673 502.152 773.914 504.317C772.704 505.807 775.531 507.225 776.73 505.745Z" fill="black"/>
<path id="Vector_31" d="M781.714 511.236C785.15 510.365 787.887 508.229 791.281 507.3C793.278 506.754 792.425 504.021 790.414 504.57C787.011 505.501 784.258 507.64 780.847 508.503C778.838 509.013 779.693 511.748 781.714 511.236Z" fill="black"/>
<path id="Vector_32" d="M720.748 686.872C721.567 689.492 722.501 692.076 723.648 694.604C724.407 696.28 727.563 695.551 726.792 693.851C725.648 691.323 724.711 688.742 723.892 686.119C723.344 684.362 720.197 685.107 720.748 686.872Z" fill="black"/>
<path id="Vector_33" d="M711.582 685.204C712.708 688.243 713.593 691.336 714.638 694.395C715.725 697.572 717.068 700.647 717.55 703.955C717.812 705.738 721.074 705.762 720.812 703.955C719.857 697.407 717.053 690.727 714.726 684.451C714.087 682.723 710.937 683.463 711.582 685.204Z" fill="black"/>
<path id="Vector_34" d="M993.255 661.849C989.346 652.263 985.645 642.597 982.291 632.851C980.758 634.198 979.291 635.612 977.942 637.153C971.615 644.406 966.64 652.65 964.183 661.527C959.612 678.029 966.902 694.029 970.688 709.953C972.778 718.736 974.883 728.236 974.467 737.199C974.28 741.181 972.723 745.425 973.874 749.326C977.719 762.387 972.654 778.196 965.084 789.617C960.082 797.182 952.905 804.09 943.444 807.034C932.621 810.407 920.241 808.025 910.433 802.804C900.628 797.577 892.997 789.806 886.089 781.82C866.9 759.629 857.61 732.39 838.039 711.446C835.046 708.253 832.224 704.975 828.908 702.02C826.62 699.978 824.162 698.085 821.85 696.063C813.276 688.567 805.606 680.053 799.129 671.142C796.677 667.761 794.696 664.066 792.504 660.555C791.073 658.259 789.649 655.958 788.158 653.688C785.785 650.08 783.957 653.134 781.09 654.57C777.423 656.403 773.544 657.924 769.822 659.671C764.519 662.163 759.327 664.83 754.15 667.51C749.317 670.012 743.644 672.177 739.28 675.265C735.606 677.865 736.419 683.256 737.832 686.731C738.705 688.883 739.636 691.014 740.422 693.205C744.159 703.662 749.185 713.87 754.774 723.675C765.16 741.903 777.453 759.422 791.212 775.882C800.21 786.652 815.026 788.914 821.786 801.473C823.111 803.936 824.198 806.477 825.201 809.056C827.677 815.375 829.649 821.881 833.413 827.686C840.041 837.907 851.521 844.941 862.621 851.629C875.004 859.126 887.902 871.081 902.254 874.956C919.608 879.641 939.167 878.778 955.941 872.762C976.726 865.305 990.223 851.14 999.983 834.071C1010.95 814.879 1003.95 790.553 1010 769.601C1013.31 758.122 1019.2 747.499 1025.92 737.157C1014.58 712.202 1003.58 687.157 993.255 661.849Z" fill="#A6FEAA"/>
<path id="Vector_35" d="M735.447 516.089C729.906 517.26 727.202 519.932 727.03 524.974C726.865 529.751 732.05 531.981 736.965 531.85C739.06 531.793 739.069 528.964 736.965 529.019C733.182 529.121 729.993 527.769 730.367 524.215C730.719 520.832 732.661 519.59 736.314 518.818C738.35 518.387 737.486 515.657 735.447 516.089Z" fill="black"/>
<path id="Vector_36" d="M42.2242 22.4325C27.8599 44.8359 45.6361 74.945 32.1843 97.7719C28.0135 104.84 21.2168 110.435 15.7872 116.834C-7.70764 144.521 -2.55515 184.127 15.4108 214.783C20.1778 222.918 25.779 230.77 28.9591 239.469C43.7149 279.826 3.10325 320.407 4.0157 362.74C5.47623 430.442 102.178 476.205 172.28 468.241C184.681 466.831 199.386 463.631 209.817 457.596C223.203 449.849 233.824 436.231 245.138 426.352C246.71 424.979 248.48 423.688 249.926 422.208C251.531 420.563 253.067 419.013 254.786 417.441C260.168 412.52 265.663 407.701 270.915 402.67C273.692 400.011 276.282 397.213 279.016 394.523C281.359 392.219 283.997 390.19 286.677 388.184C288.336 386.94 289.923 385.507 291.748 384.495C292.239 384.226 292.423 384.254 292.278 383.692C291.872 383.13 291.462 382.573 291.05 382.016C290.679 381.415 290.312 380.813 289.941 380.209C288.893 378.442 288.014 376.611 286.831 374.901C284.882 372.088 282.127 369.708 279.42 367.444C279.082 367.164 278.739 366.882 278.393 366.597C276.408 364.983 274.282 363.323 272.662 361.501C271.987 360.742 271.506 359.992 271.216 359.074C270.699 357.437 269.777 356.049 268.877 354.53C266.498 350.526 265.161 350.793 261.122 353.311C258.502 354.943 255.849 356.54 253.169 358.096C241.988 364.578 230.247 370.362 217.948 375.092C153.537 399.875 71.3504 358.352 90.9486 291.825C98.3295 266.762 120.722 244.531 118.343 218.744C116.091 194.325 91.7767 174.249 91.1654 149.761C90.4306 120.296 124.315 94.3832 116.729 65.6599C113.423 53.143 101.308 45.351 96.7093 33.846C93.0294 24.6472 97.7573 11.3877 86.0008 5.9045C71.757 -0.742249 48.8854 12.0492 42.2242 22.4325Z" fill="#FBF4CD"/>
<path id="Vector_37" d="M175.496 9.1913C164.222 -7.56417 124.857 -0.433682 134.075 22.6521C138.387 33.4433 145.967 41.8969 152.233 51.65C158.488 61.3822 163.628 70.6541 172.485 78.9953C193.784 99.048 213.657 120.382 247.884 121.87C270.692 122.866 293.817 114.606 309.217 99.9605C330.222 79.9863 344.252 70.9287 376.63 68.7872C426.291 65.4926 444.465 111.928 490.852 114.961C510.661 116.253 530.648 111.264 547.729 102.458C559.398 96.4384 570.178 88.2777 575.557 77.4604C582.95 62.5876 580.104 43.2827 593.785 32.2719C597.513 29.2728 602.647 26.5011 602.75 22.09C581.58 23.5359 558.512 22.9058 537.707 26.1481C519.804 28.9381 515.708 39.0128 505.53 52.0657C500.362 58.6262 493.033 64.716 483.923 65.5344C479.364 65.9423 474.793 64.9853 470.387 63.8871C452.026 59.2956 436.566 51.9847 420.907 42.8356C388.595 23.9569 321.365 34.0526 289.42 48.6639C278.727 53.5509 268.765 59.8107 257.346 63.236C216.388 75.5281 186.503 50.1648 178.426 17.25C177.746 14.4862 177.141 11.6335 175.496 9.1913Z" fill="#FBF4CD"/>
</g>
<path id="Vector_38" d="M588.848 157.952C588.843 157.869 588.833 157.787 588.818 157.705C588.815 157.688 588.811 157.671 588.808 157.654C588.793 157.581 588.774 157.509 588.75 157.438C588.746 157.426 588.743 157.413 588.739 157.401C588.711 157.32 588.677 157.241 588.639 157.164C588.632 157.151 588.625 157.139 588.618 157.126C588.583 157.058 588.543 156.993 588.5 156.929C588.492 156.917 588.485 156.905 588.476 156.893C588.427 156.823 588.372 156.756 588.312 156.691C588.301 156.678 588.289 156.667 588.277 156.655C588.249 156.626 588.222 156.596 588.192 156.568C588.166 156.544 588.139 156.523 588.112 156.501C588.103 156.493 588.095 156.484 588.086 156.476C588.08 156.472 588.074 156.469 588.069 156.465C587.999 156.409 587.926 156.358 587.851 156.313C587.84 156.306 587.828 156.3 587.817 156.294C587.75 156.254 587.68 156.219 587.61 156.188C587.593 156.181 587.577 156.173 587.56 156.166C587.48 156.133 587.398 156.104 587.315 156.081C587.301 156.077 587.287 156.074 587.272 156.07C587.201 156.052 587.129 156.037 587.057 156.026C587.035 156.023 587.015 156.02 586.993 156.017C586.91 156.007 586.827 156.001 586.743 156C586.725 156 586.706 156.001 586.687 156.001C586.616 156.003 586.545 156.007 586.474 156.016C586.453 156.018 586.433 156.02 586.412 156.023C586.327 156.035 586.243 156.052 586.16 156.075C586.145 156.078 586.13 156.083 586.116 156.088C586.039 156.11 585.964 156.137 585.89 156.167C585.881 156.171 585.871 156.173 585.863 156.177L494.098 195.75C493.026 196.213 492.542 197.431 493.019 198.472C493.496 199.512 494.752 199.981 495.824 199.519L575.096 165.334L501.837 228.518L465.208 212.722L487.338 203.179C488.41 202.716 488.894 201.498 488.417 200.457C487.94 199.417 486.684 198.948 485.612 199.41L459.112 210.838C458.344 211.169 457.85 211.907 457.85 212.722C457.85 213.537 458.344 214.275 459.112 214.607L500.276 232.358L504.814 265.378C504.815 265.387 504.818 265.396 504.82 265.405C504.835 265.505 504.856 265.604 504.886 265.701C504.889 265.711 504.893 265.72 504.896 265.73C504.926 265.822 504.963 265.913 505.007 266.001C505.012 266.009 505.015 266.018 505.02 266.027C505.064 266.114 505.117 266.198 505.175 266.279C505.187 266.295 505.198 266.311 505.21 266.326C505.27 266.405 505.333 266.481 505.405 266.552C505.478 266.624 505.557 266.687 505.637 266.746C505.653 266.758 505.669 266.77 505.685 266.781C505.769 266.839 505.855 266.891 505.944 266.937C505.952 266.94 505.959 266.943 505.967 266.947C506.057 266.991 506.15 267.028 506.245 267.059C506.256 267.062 506.267 267.067 506.279 267.07C506.379 267.101 506.48 267.123 506.582 267.139C506.591 267.141 506.6 267.144 506.609 267.145C506.62 267.147 506.63 267.146 506.642 267.148C506.734 267.16 506.827 267.168 506.92 267.168C506.921 267.168 506.921 267.168 506.921 267.168H506.921C506.922 267.168 506.922 267.167 506.923 267.167C507.013 267.167 507.103 267.16 507.193 267.149C507.214 267.146 507.236 267.143 507.257 267.14C507.435 267.112 507.61 267.062 507.778 266.99C507.795 266.983 507.811 266.976 507.827 266.968C507.906 266.932 507.984 266.892 508.059 266.846C508.062 266.844 508.065 266.843 508.068 266.841C508.143 266.794 508.215 266.741 508.285 266.684C508.303 266.669 508.32 266.653 508.338 266.638C508.362 266.617 508.388 266.597 508.411 266.575L526.674 249.13L557.209 273.53C557.595 273.838 558.074 274 558.56 274C558.786 274 559.014 273.965 559.235 273.893C559.93 273.668 560.456 273.11 560.627 272.419L588.793 158.543C588.795 158.538 588.795 158.532 588.796 158.527C588.816 158.442 588.831 158.357 588.84 158.271C588.841 158.255 588.842 158.239 588.843 158.223C588.849 158.15 588.851 158.076 588.849 158.003C588.848 157.986 588.849 157.969 588.848 157.952ZM508.048 257.713L504.481 231.755L569.048 176.068L517.001 238.758C516.991 238.77 516.983 238.784 516.973 238.796C516.934 238.845 516.897 238.896 516.863 238.948C516.85 238.968 516.838 238.988 516.826 239.008C516.794 239.06 516.765 239.113 516.739 239.166C516.733 239.177 516.726 239.187 516.721 239.198L508.048 257.713ZM513.599 255.831L519.444 243.353L523.374 246.493L513.599 255.831ZM557.286 268.248L521.63 239.757L582.455 166.494L557.286 268.248Z" fill="#C6FFEA"/>
<path id="Vector_39" d="M469.68 250.305C468.12 248.565 465.592 248.565 464.032 250.305L429.019 289.389C427.46 291.131 427.46 293.953 429.019 295.695C429.799 296.565 430.821 297 431.843 297C432.865 297 433.888 296.564 434.667 295.695L469.68 256.611C471.239 254.869 471.239 252.047 469.68 250.305Z" fill="#C6FFEA"/>
<path id="Vector_40" d="M537.68 269.305C536.12 267.565 533.592 267.565 532.032 269.305L497.019 308.389C495.46 310.131 495.46 312.953 497.019 314.695C497.799 315.565 498.821 316 499.843 316C500.865 316 501.888 315.564 502.667 314.695L537.68 275.611C539.239 273.869 539.239 271.047 537.68 269.305Z" fill="#C6FFEA"/>
<path id="Vector_41" d="M495.085 263.251C493.118 262.251 490.347 262.789 488.896 264.453L439.677 320.925C438.227 322.59 438.646 324.749 440.614 325.749C441.598 326.249 442.783 326.364 443.903 326.147C445.022 325.929 446.078 325.379 446.803 324.547L496.022 268.075C497.472 266.41 497.053 264.251 495.085 263.251Z" fill="#C6FFEA"/>
<mask id="mask0" style="mask-type:alpha" maskUnits="userSpaceOnUse" x="276" y="412" width="397" height="134">
<g id="Group 1">
<path id="Rectangle 1" d="M672.5 412H276.5V546H672.5V412Z" fill="#C4C4C4"/>
</g>
</mask>
<g mask="url(#mask0)">
</g>
</g>
</svg>
