<svg width="512" height="512" viewBox="0 0 512 512" fill="none" xmlns="http://www.w3.org/2000/svg">
<path d="M460.104 410.43L472.246 394.097L484.597 410.237" stroke="#E7E7E7" stroke-width="4"/>
<path d="M472.264 397.1L472.655 454.865" stroke="#E7E7E7" stroke-width="4" stroke-linecap="square"/>
<path d="M487.14 7.101C487.124 6.799 487.089 6.499 487.037 6.202C487.026 6.139 487.011 6.077 486.999 6.014C486.946 5.75 486.879 5.489 486.797 5.23C486.783 5.185 486.771 5.14 486.756 5.095C486.657 4.802 486.539 4.515 486.403 4.234C486.38 4.187 486.354 4.141 486.33 4.094C486.205 3.849 486.066 3.61 485.913 3.377C485.885 3.334 485.859 3.291 485.83 3.249C485.654 2.994 485.462 2.748 485.251 2.512C485.211 2.467 485.167 2.425 485.126 2.381C485.027 2.276 484.932 2.168 484.827 2.067C484.736 1.98 484.638 1.903 484.544 1.822C484.511 1.794 484.485 1.761 484.451 1.733C484.432 1.717 484.41 1.706 484.391 1.69C484.144 1.488 483.888 1.303 483.623 1.137C483.584 1.113 483.543 1.092 483.503 1.068C483.265 0.925 483.021 0.798 482.771 0.684C482.712 0.657 482.655 0.629 482.595 0.603C482.313 0.483 482.026 0.378 481.733 0.294C481.682 0.279 481.631 0.269 481.579 0.255C481.328 0.189 481.075 0.136 480.82 0.096C480.745 0.084 480.671 0.071 480.595 0.061C480.302 0.024 480.008 0.002 479.713 0C479.648 0 479.583 0.004 479.517 0.005C479.266 0.01 479.015 0.027 478.765 0.057C478.691 0.066 478.618 0.072 478.545 0.083C478.245 0.127 477.948 0.189 477.654 0.271C477.602 0.285 477.551 0.303 477.499 0.319C477.229 0.4 476.963 0.497 476.701 0.608C476.67 0.621 476.637 0.629 476.606 0.643L152.773 144.572C148.988 146.255 147.283 150.686 148.965 154.472C150.647 158.256 155.079 159.961 158.864 158.28L438.61 33.949L180.083 263.751L50.819 206.3L128.916 171.59C132.701 169.907 134.406 165.476 132.724 161.691C131.042 157.907 126.609 156.202 122.825 157.883L29.307 199.446C26.599 200.65 24.853 203.336 24.853 206.3C24.853 209.264 26.599 211.949 29.307 213.154L174.574 277.717L190.587 397.81C190.592 397.844 190.604 397.875 190.609 397.91C190.662 398.272 190.737 398.632 190.843 398.985C190.854 399.021 190.868 399.056 190.879 399.091C190.985 399.427 191.116 399.756 191.271 400.076C191.286 400.107 191.298 400.14 191.314 400.171C191.472 400.487 191.658 400.792 191.864 401.089C191.904 401.147 191.945 401.203 191.987 401.259C192.197 401.544 192.421 401.821 192.676 402.08C192.933 402.341 193.209 402.571 193.493 402.787C193.549 402.83 193.605 402.873 193.663 402.913C193.958 403.124 194.262 403.315 194.577 403.479C194.603 403.492 194.63 403.503 194.656 403.516C194.975 403.676 195.303 403.811 195.637 403.923C195.678 403.937 195.717 403.953 195.759 403.966C196.11 404.077 196.467 404.157 196.828 404.216C196.86 404.221 196.89 404.233 196.923 404.238C196.962 404.244 196.999 404.241 197.038 404.247C197.365 404.29 197.693 404.32 198.022 404.32C198.023 404.32 198.023 404.32 198.024 404.32H198.025C198.027 404.32 198.029 404.319 198.03 404.319C198.349 404.319 198.667 404.291 198.983 404.25C199.059 404.24 199.135 404.23 199.21 404.218C199.839 404.117 200.457 403.936 201.049 403.674C201.107 403.648 201.164 403.622 201.222 403.595C201.501 403.463 201.775 403.318 202.039 403.15C202.049 403.143 202.06 403.138 202.071 403.131C202.336 402.961 202.591 402.768 202.837 402.56C202.901 402.506 202.962 402.449 203.025 402.393C203.111 402.316 203.2 402.245 203.283 402.164L267.73 338.716L375.488 427.458C376.85 428.58 378.541 429.169 380.257 429.169C381.055 429.169 381.859 429.041 382.638 428.78C385.09 427.96 386.946 425.933 387.549 423.419L486.948 9.249C486.953 9.229 486.953 9.209 486.958 9.19C487.029 8.882 487.081 8.572 487.112 8.26C487.118 8.202 487.12 8.144 487.124 8.086C487.145 7.819 487.151 7.551 487.144 7.284C487.142 7.223 487.144 7.162 487.14 7.101ZM202.002 369.932L189.414 275.524L417.269 72.988L233.596 300.994C233.561 301.037 233.533 301.086 233.499 301.131C233.36 301.311 233.229 301.494 233.109 301.683C233.063 301.756 233.021 301.83 232.977 301.904C232.866 302.092 232.764 302.283 232.671 302.478C232.652 302.518 232.627 302.555 232.609 302.595L202.002 369.932ZM221.59 363.089L242.218 317.706L256.087 329.127L221.59 363.089ZM375.762 408.25L249.932 304.626L464.582 38.166L375.762 408.25Z" fill="#34D399"/>
<path d="M253.025 399.794C250.097 396.866 245.348 396.865 242.419 399.795L176.155 466.06C173.226 468.99 173.226 473.738 176.155 476.667C177.619 478.131 179.539 478.863 181.458 478.863C183.377 478.863 185.297 478.131 186.761 476.666L253.025 410.401C255.954 407.471 255.954 402.723 253.025 399.794Z" fill="#8FE9C8"/>
<path d="M153.621 317.478C150.693 314.55 145.944 314.55 143.015 317.478L77.267 383.227C74.338 386.157 74.338 390.905 77.267 393.834C78.731 395.298 80.651 396.03 82.57 396.03C84.489 396.03 86.409 395.297 87.873 393.834L153.621 328.085C156.55 325.155 156.55 320.407 153.621 317.478Z" fill="#8FE9C8"/>
<path d="M153.621 399.796C150.693 396.868 145.944 396.868 143.015 399.796L43.616 499.198C40.687 502.128 40.687 506.876 43.616 509.805C45.08 511.269 47 512.001 48.919 512.001C50.838 512.001 52.758 511.269 54.222 509.804L153.621 410.403C156.55 407.473 156.55 402.725 153.621 399.796Z" fill="#8FE9C8"/>
</svg>
