<svg id="visual" viewBox="0 0 900 600" width="900" height="600" xmlns="http://www.w3.org/2000/svg" xmlns:xlink="http://www.w3.org/1999/xlink" version="1.1">
  <g transform="translate(435.5277698142353 348.196401686556)">
    <path d="M155.3 -197.4C204.7 -143.6 250.5 -97.9 263.5 -43.6C276.4 10.7 256.4 73.6 222.8 125.5C189.1 177.5 141.7 218.4 91.6 225C41.6 231.6 -11.3 203.9 -62.5 181.2C-113.8 158.5 -163.4 140.7 -195.1 103.9C-226.7 67.1 -240.4 11.1 -238.3 -49.2C-236.2 -109.5 -218.4 -174.3 -176 -229.3C-133.7 -284.3 -66.8 -329.7 -7 -321.4C52.9 -313.1 105.8 -251.1 155.3 -197.4" fill="#daf6a7">
      <animate attributeName="d" dur="5s" repeatCount="indefinite" values="M155.3 -197.4C204.7 -143.6 250.5 -97.9 263.5 -43.6C276.4 10.7 256.4 73.6 222.8 125.5C189.1 177.5 141.7 218.4 91.6 225C41.6 231.6 -11.3 203.9 -62.5 181.2C-113.8 158.5 -163.4 140.7 -195.1 103.9C-226.7 67.1 -240.4 11.1 -238.3 -49.2C-236.2 -109.5 -218.4 -174.3 -176 -229.3C-133.7 -284.3 -66.8 -329.7 -7 -321.4C52.9 -313.1 105.8 -251.1 155.3 -197.4; M155.3 -197.4C204.7 -143.6 200.5 -97.9 203.5 -43.6C276.4 10.7 256.4 73.6 222.8 125.5C189.1 107.5 101.7 208.4 91.6 225C41.6 231.6 -11.3 203.9 -62.5 181.2C-113.8 158.5 -163.4 140.7 -195.1 103.9C-226.7 67.1 -240.4 11.1 -208.3 -49.2C-236.2 -109.5 -218.4 -174.3 -176 -229.3C-133.7 -284.3 -66.8 -329.7 -7 -321.4C52.9 -313.1 105.8 -251.1 155.3 -197.4; M155.3 -197.4C204.7 -143.6 250.5 -97.9 263.5 -43.6C276.4 10.7 256.4 73.6 222.8 125.5C189.1 177.5 141.7 218.4 91.6 225C41.6 231.6 -11.3 203.9 -62.5 181.2C-113.8 158.5 -163.4 140.7 -195.1 103.9C-226.7 67.1 -240.4 11.1 -238.3 -49.2C-236.2 -109.5 -218.4 -174.3 -176 -229.3C-133.7 -284.3 -66.8 -329.7 -7 -321.4C52.9 -313.1 105.8 -251.1 155.3 -197.4" />
    </path>
  
  </g>
</svg>