<svg width="170" height="170" viewBox="0 0 170 170" fill="none" xmlns="http://www.w3.org/2000/svg">
<path fill-rule="evenodd" clip-rule="evenodd" d="M27.7942 124.991L87.8233 32.0251C85.9234 30.4779 84.7099 28.1201 84.7099 25.4789C84.7099 20.8188 88.4877 17.041 93.1478 17.041C97.8079 17.041 101.586 20.8188 101.586 25.4789C101.586 28.6133 99.8767 31.3485 97.3397 32.8036L142.48 136.096C143.444 135.713 144.495 135.502 145.595 135.502C150.255 135.502 154.033 139.28 154.033 143.94C154.033 148.6 150.255 152.378 145.595 152.378C141.104 152.378 137.433 148.87 137.172 144.445L32.2784 134.115C31.5346 138.014 28.1066 140.962 23.9901 140.962C19.33 140.962 15.5522 137.184 15.5522 132.524C15.5522 127.864 19.33 124.086 23.9901 124.086C25.3587 124.086 26.6511 124.412 27.7942 124.991ZM93.1478 33.9168C93.4818 33.9168 93.8112 33.8974 94.1351 33.8597L107.326 95.7386C103.989 96.8638 101.586 100.019 101.586 103.736C101.586 104.546 101.7 105.328 101.912 106.069L31.6869 129.061C31.1219 127.808 30.2597 126.717 29.1901 125.879L89.2023 32.9394C90.3797 33.5634 91.7225 33.9168 93.1478 33.9168ZM102.525 107.609L32.2144 130.629C32.3501 131.221 32.4236 131.836 32.4278 132.467L137.235 142.789C137.448 141.225 138.09 139.798 139.038 138.63L114.619 110.814C113.297 111.674 111.719 112.174 110.024 112.174C106.76 112.174 103.929 110.321 102.525 107.609ZM115.913 109.779L140.203 137.449C140.459 137.237 140.728 137.039 141.007 136.857L95.8303 33.4814C95.8042 33.4902 95.7779 33.4989 95.7517 33.5074L108.939 95.3674C109.294 95.3218 109.656 95.2983 110.024 95.2983C114.684 95.2983 118.461 99.0761 118.461 103.736C118.461 106.105 117.485 108.247 115.913 109.779Z" fill="#ADC6FF"/>
</svg>
