<svg width="406" height="306" viewBox="0 0 406 306" fill="none" xmlns="http://www.w3.org/2000/svg">
<path d="M197.194 293.912L14.7784 186.099C8.97262 182.841 3.98897 177.482 9.65267 173.98L192.728 68.42C195.479 66.7148 199.651 65.5983 202.442 67.2223L393.932 178.375C399.737 181.745 400.783 191.164 394.947 194.544L221.27 293.74C217.619 295.862 213.478 296.994 209.255 297.024C205.032 297.054 200.875 295.982 197.194 293.912Z" fill="#FFE7E7"/>
<path d="M315.574 145.895C316.67 145.114 317.797 144.363 318.954 143.672C319.175 143.532 319.333 143.312 319.395 143.057C319.457 142.803 319.419 142.534 319.288 142.308C319.157 142.081 318.943 141.914 318.692 141.841C318.441 141.768 318.171 141.795 317.939 141.916C316.455 142.795 315.019 143.751 313.635 144.779L310.915 143.195C312.072 142.739 313.209 142.251 314.325 141.683C315.442 141.115 314.467 139.338 313.31 139.927C311.906 140.658 310.455 141.295 308.966 141.835C308.89 141.87 308.818 141.915 308.753 141.967L307.423 141.196L311.707 138.648C311.927 138.508 312.086 138.287 312.148 138.033C312.21 137.779 312.172 137.51 312.041 137.284C311.91 137.057 311.696 136.89 311.445 136.817C311.193 136.744 310.924 136.771 310.692 136.892L305.505 139.937L305.444 139.998L303.637 138.983L307.91 136.314C309.017 135.623 308.002 133.867 306.895 134.558L301.638 137.775L299.425 136.537C300.724 135.735 302.044 134.974 303.394 134.284C304.561 133.695 303.536 131.939 302.379 132.528C300.688 133.395 299.041 134.347 297.446 135.38L296.228 134.669C297.715 133.471 299.336 132.449 301.059 131.624C302.237 131.066 301.211 129.32 300.044 129.868C298 130.841 296.09 132.072 294.36 133.533L292.685 132.518C294.299 131.553 295.903 130.569 297.466 129.472C298.552 128.752 297.537 126.996 296.451 127.717C294.57 128.975 292.652 130.169 290.696 131.299L289.194 130.427C290.248 129.811 291.265 129.133 292.239 128.397C293.254 127.615 292.239 125.859 291.224 126.641C289.94 127.601 288.582 128.46 287.164 129.209L285.54 128.265L289.021 125.89C290.097 125.159 289.082 123.403 288.006 124.134L283.611 127.179L281.845 126.164C283.256 125.291 284.697 124.448 286.169 123.667C287.326 123.058 286.301 121.302 285.154 121.911C283.347 122.865 281.585 123.88 279.866 124.956L278.354 124.073C279.673 123.139 280.983 122.175 282.241 121.149C283.256 120.327 281.815 118.896 280.81 119.718C279.399 120.855 277.938 121.931 276.435 122.956L274.05 121.738C275.116 120.987 276.171 120.195 277.176 119.353C278.181 118.51 276.74 117.079 275.745 117.922C274.591 118.887 273.384 119.788 272.132 120.622L270.244 119.505L273.847 116.694C274.862 115.892 273.431 114.461 272.416 115.262L268.356 118.419L266.032 117.069C267.273 116.223 268.454 115.29 269.564 114.278C270.528 113.385 269.087 111.954 268.133 112.847C266.873 114 265.515 115.039 264.073 115.953L262.631 115.11C263.466 114.389 264.37 113.754 265.331 113.212C265.552 113.072 265.71 112.851 265.773 112.597C265.835 112.343 265.796 112.074 265.665 111.848C265.534 111.621 265.321 111.454 265.069 111.381C264.818 111.308 264.548 111.335 264.316 111.456C263.048 112.178 261.869 113.047 260.804 114.044L258.561 112.735L261.89 110.796C262.111 110.656 262.269 110.436 262.332 110.181C262.394 109.927 262.356 109.659 262.225 109.432C262.094 109.205 261.88 109.038 261.629 108.965C261.377 108.892 261.107 108.919 260.875 109.041L257.039 111.274C256.891 111.363 256.769 111.489 256.683 111.639L254.562 110.37C255.43 109.802 256.347 109.313 257.303 108.909C258.5 108.401 257.465 106.655 256.288 107.153C254.991 107.703 253.765 108.405 252.634 109.244L252.512 109.172L85.2601 204.664C83.3595 205.497 81.5269 206.478 79.7791 207.597C78.6829 208.297 79.6979 210.053 80.7941 209.353C82.5699 208.216 84.4332 207.221 86.3664 206.379L88.0513 207.394L82.9053 210.439C82.6843 210.579 82.5262 210.8 82.4639 211.054C82.4016 211.308 82.44 211.577 82.571 211.804C82.702 212.03 82.9156 212.197 83.167 212.27C83.4184 212.343 83.6883 212.316 83.9203 212.195L90.0103 208.582L90.7817 209.038L86.3867 211.87C85.3007 212.581 86.3157 214.337 87.4017 213.626L92.7305 210.145L94.5169 211.16C92.7832 212.106 91.1149 213.167 89.5231 214.337C88.5081 215.098 89.5231 216.864 90.5381 216.093C92.4453 214.695 94.4614 213.453 96.5672 212.378L97.3284 212.834L92.8117 216.448C91.7967 217.26 93.238 218.691 94.2428 217.879L99.1859 213.931L101.51 215.311C99.7973 216.316 98.1497 217.428 96.5773 218.64C95.5623 219.442 96.9935 220.863 98.0085 220.071C99.6894 218.778 101.464 217.611 103.317 216.58C103.368 216.544 103.416 216.503 103.459 216.458L104.748 217.219C102.907 218.234 101.252 219.555 99.8558 221.127C99.0641 222.142 100.485 223.593 101.287 222.558C102.627 220.833 104.789 219.594 106.707 218.376L108.473 219.391C107.012 220.619 105.53 221.817 104.007 222.964C102.992 223.746 104.007 225.502 105.022 224.72C106.829 223.367 108.592 221.953 110.31 220.477L111.64 221.269C109.873 222.504 108.222 223.897 106.707 225.431C105.794 226.364 107.225 227.796 108.138 226.862C109.786 225.189 111.606 223.696 113.568 222.406L115.842 223.756C115.699 223.736 115.554 223.746 115.416 223.786C115.278 223.827 115.15 223.896 115.04 223.989L110.929 227.288C109.914 228.11 111.356 229.531 112.361 228.719L116.471 225.42C116.565 225.355 116.644 225.27 116.703 225.172C116.763 225.073 116.8 224.964 116.815 224.85C116.829 224.736 116.82 224.621 116.787 224.511C116.754 224.401 116.698 224.3 116.624 224.213L120.125 226.243C118.268 227.339 116.431 228.465 114.634 229.663C113.548 230.384 114.563 232.14 115.649 231.419C117.76 230.012 119.916 228.682 122.115 227.43L123.617 228.323C122.348 229.264 121.012 230.109 119.618 230.851C118.461 231.47 119.486 233.216 120.633 232.607C122.335 231.689 123.955 230.626 125.474 229.43L128.814 231.409L124.348 234.454C123.282 235.195 124.297 236.951 125.363 236.21L130.722 232.495L132.813 233.733L127.372 237.661C126.357 238.423 127.372 240.179 128.387 239.417L134.701 234.85L135.716 235.449C134.071 236.809 132.397 238.118 130.641 239.336C129.626 240.077 130.641 241.843 131.656 241.092C133.686 239.671 135.655 238.138 137.553 236.545L139.796 237.864C138.497 238.808 137.218 239.773 135.959 240.767C134.944 241.579 136.386 243.01 137.39 242.198C138.791 241.082 140.232 240.016 141.694 238.981L142.821 239.651C141.664 240.564 140.527 241.508 139.42 242.493C138.314 243.477 139.877 244.797 140.852 243.924C142.09 242.818 143.379 241.772 144.688 240.757L145.703 241.336C144.83 242.087 143.937 242.818 143.014 243.508C142.09 244.198 143.014 246.055 144.029 245.264C145.226 244.35 146.383 243.396 147.52 242.412L148.769 243.152C147.253 244.222 145.693 245.237 144.089 246.197C143.869 246.338 143.71 246.558 143.648 246.813C143.586 247.067 143.624 247.335 143.755 247.562C143.886 247.789 144.1 247.956 144.351 248.029C144.603 248.102 144.872 248.075 145.104 247.953C147.316 246.646 149.451 245.212 151.499 243.66L319.573 148.23L315.574 145.895Z" fill="#FFE1E1"/>
<path style="mix-blend-mode:multiply" opacity="0.32" d="M196.443 197.031L117.882 243.112L87.7671 222.619L142.212 192.291" fill="url(#paint0_linear)"/>
<path d="M137.664 193.884L132.062 204.704H127.9L131.402 211.22L139.096 208.764L148.86 197.923" fill="#32416A"/>
<path d="M129.067 223.797L141.247 218.61L139.055 206.075C139.055 206.075 136.294 211.272 130.935 206.542C129.92 205.669 124.845 188.454 114.583 193.083" fill="#3353C2"/>
<path d="M114.604 193.083C118.958 191.581 122.531 197.843 124.398 200.797C127.839 206.237 129.057 212.875 130.346 219.067C130.543 219.804 130.548 220.579 130.358 221.318C130.169 222.057 129.793 222.735 129.266 223.287C128.739 223.839 128.078 224.245 127.349 224.468C126.619 224.69 125.844 224.721 125.099 224.558C121.556 223.949 118.755 216.621 118.755 212.956C118.755 209.292 111.061 194.301 114.604 193.083Z" fill="#32416A"/>
<path d="M269.787 150.787C271.279 152.481 272.946 154.012 274.761 155.355C275.897 156.085 281.865 153.081 283.774 152.807C285.682 152.533 293.863 152.939 293.995 154.015C294.127 155.091 292.513 157.06 289.935 158.318C287.357 159.577 282.14 159.12 281.866 159.932C281.591 160.744 288.717 161.008 288.585 162.348C288.453 163.688 283.743 164.764 279.978 164.226C276.212 163.688 274.598 163.688 273.116 162.744C271.634 161.8 263.565 157.567 263.565 157.567L269.787 150.787Z" fill="#FFC99C"/>
<path d="M204.644 150.533C204.644 150.533 171.505 146.534 164.044 148.564C156.584 150.594 149.347 168.011 149.347 168.011L134.447 194.473L153.377 201.659C153.377 201.659 169.018 170.498 171.058 169.361C173.098 168.225 208.826 173.827 208.826 173.827C208.826 173.827 226.254 165.078 226.589 158.968C226.924 152.858 204.644 150.533 204.644 150.533Z" fill="#DFF8FD"/>
<path d="M233.937 155.354C233.937 155.354 240.728 170.285 230.09 179.105C219.453 187.926 181.918 203.303 181.918 203.303C181.918 203.303 139.847 221.573 139.623 220.944C139.4 220.314 133.29 213.027 134.65 205.11L199.955 172.092L233.937 155.354Z" fill="#DFF8FD"/>
<path d="M264.012 140.424C259.718 136.8 249.538 114.409 241.621 105.823C236.713 100.662 229.962 97.6553 222.843 97.459C217.96 96.3262 212.865 96.5083 208.075 97.9868C200.737 101.976 200.28 114.866 200.016 122.113C199.752 129.36 200.605 136.821 200.097 144.088C199.965 148.006 200.006 150.371 200.006 150.371L201.762 151.152C211.912 166.306 237.764 159.658 237.764 159.658L236.18 132.06C243.194 143.824 266.032 161.495 266.032 161.495L273.949 150.412C270.826 146.899 267.508 143.564 264.012 140.424Z" fill="#DFFFD0"/>
<path d="M206.045 81.3712C206.045 81.3712 204.36 98.0578 212.338 99.3266C214.46 99.7776 216.671 99.4963 218.612 98.5285C220.554 97.5607 222.109 95.9636 223.026 93.9978C223.026 93.9978 224.274 82.2238 218.722 78.7728C213.17 75.3218 206.045 81.3712 206.045 81.3712Z" fill="#FFC99C"/>
<path d="M215.058 83.777C212.87 84.5489 210.577 84.9802 208.258 85.0559C204.989 85.0559 202.777 85.5127 202.229 83.0259C201.681 80.5392 200.655 75.9209 205.274 72.8759C209.892 69.8309 223.432 66.5829 229.278 77.6769C235.125 88.7708 234.14 94.8405 231.024 98.4438C227.908 102.047 219.788 102.423 217.981 98.7483C216.175 95.074 215.058 83.777 215.058 83.777Z" fill="#FFEDBB"/>
<path d="M198.28 100.545L196.342 102.27C196.342 102.27 199.021 111.284 207.892 111.558C207.892 111.558 213.982 112.207 217.413 108.421L216.398 106.574C216.398 106.574 211.323 109.386 208.126 108.827C205.903 108.429 203.825 107.454 202.097 106.001C200.369 104.548 199.053 102.666 198.28 100.545Z" fill="#68E1FD"/>
<path opacity="0.19" d="M216.408 106.563C216.408 106.563 211.333 109.365 208.177 108.837C208.177 109.751 208.065 110.654 208.004 111.567C208.816 111.628 214.216 111.923 217.413 108.421L216.408 106.563Z" fill="#606060"/>
<path d="M208.176 108.837C205.983 108.346 203.939 107.335 202.217 105.891C200.495 104.446 199.145 102.609 198.28 100.534L197.143 101.549C197.785 103.152 198.714 104.624 199.884 105.893C201.968 108.315 204.921 109.821 208.105 110.085C208.126 109.669 208.156 109.283 208.176 108.837Z" fill="#FFE89F"/>
<path d="M216.408 106.563C216.408 106.563 211.333 109.365 208.177 108.837C208.177 109.263 208.149 109.686 208.095 110.106C208.508 110.128 208.921 110.128 209.334 110.106C211.135 110.068 212.901 109.594 214.48 108.725C215.18 108.33 215.86 107.903 216.51 107.497L216.794 107.325L216.408 106.563Z" fill="#FFEDBB"/>
<path d="M211.922 96.7387C211.592 97.0015 211.175 97.1286 210.755 97.0939C210.235 97.0464 209.75 96.8162 209.384 96.4443C209.308 96.5555 209.22 96.6577 209.12 96.7488L208.105 108.827C208.105 108.827 213.607 109.741 216.388 106.564L211.922 96.7387Z" fill="#E91837"/>
<path d="M208.38 97.0941C207.992 97.1175 207.608 97.0044 207.295 96.7746C206.981 96.5447 206.758 96.2125 206.664 95.8355C206.36 95.9093 206.039 95.8734 205.759 95.7342C205.479 95.5949 205.257 95.3612 205.132 95.0742L198.27 100.545C199.067 102.653 200.39 104.522 202.113 105.973C203.837 107.425 205.903 108.411 208.116 108.838L209.131 96.7591C208.926 96.9531 208.661 97.0712 208.38 97.0941Z" fill="#CC1B3D"/>
<path d="M205.371 97.0181C205.431 96.7731 205.356 96.5441 205.204 96.5067C205.051 96.4693 204.879 96.6376 204.819 96.8826C204.759 97.1276 204.834 97.3565 204.986 97.3939C205.139 97.4313 205.311 97.263 205.371 97.0181Z" fill="#66390C"/>
<path d="M207.641 98.5982C207.701 98.3532 207.626 98.1242 207.474 98.0868C207.322 98.0494 207.149 98.2177 207.089 98.4627C207.029 98.7077 207.104 98.9366 207.256 98.974C207.409 99.0114 207.581 98.8431 207.641 98.5982Z" fill="#66390C"/>
<path d="M207.418 101.401C207.478 101.156 207.404 100.927 207.251 100.89C207.099 100.852 206.926 101.02 206.866 101.265C206.806 101.51 206.881 101.739 207.033 101.777C207.186 101.814 207.358 101.646 207.418 101.401Z" fill="#66390C"/>
<path d="M204.578 101.425C204.638 101.18 204.563 100.951 204.411 100.914C204.259 100.877 204.086 101.045 204.026 101.29C203.966 101.535 204.041 101.764 204.193 101.801C204.346 101.839 204.518 101.67 204.578 101.425Z" fill="#66390C"/>
<path d="M206.931 105.83C206.991 105.585 206.916 105.356 206.764 105.318C206.612 105.281 206.439 105.449 206.379 105.694C206.319 105.939 206.394 106.168 206.546 106.205C206.699 106.243 206.871 106.075 206.931 105.83Z" fill="#66390C"/>
<path d="M203.312 99.3081C203.372 99.0631 203.297 98.8342 203.145 98.7968C202.993 98.7594 202.82 98.9276 202.76 99.1726C202.7 99.4176 202.775 99.6465 202.927 99.684C203.08 99.7214 203.252 99.5531 203.312 99.3081Z" fill="#66390C"/>
<path d="M200.986 100.553C201.047 100.308 200.972 100.079 200.819 100.042C200.667 100.004 200.495 100.173 200.434 100.418C200.374 100.663 200.449 100.892 200.602 100.929C200.754 100.966 200.926 100.798 200.986 100.553Z" fill="#66390C"/>
<path d="M203.914 104.143C203.974 103.898 203.899 103.669 203.747 103.632C203.595 103.594 203.422 103.763 203.362 104.008C203.302 104.253 203.377 104.482 203.529 104.519C203.682 104.556 203.854 104.388 203.914 104.143Z" fill="#66390C"/>
<path d="M212.548 103.14C212.609 102.895 212.534 102.666 212.381 102.629C212.229 102.591 212.057 102.76 211.996 103.005C211.936 103.25 212.011 103.479 212.164 103.516C212.316 103.553 212.488 103.385 212.548 103.14Z" fill="#66390C"/>
<path d="M210.476 105.1C210.536 104.855 210.461 104.626 210.309 104.589C210.156 104.551 209.984 104.72 209.924 104.965C209.864 105.21 209.939 105.439 210.091 105.476C210.244 105.513 210.416 105.345 210.476 105.1Z" fill="#66390C"/>
<path d="M213.804 106.877C213.864 106.632 213.789 106.404 213.637 106.366C213.485 106.329 213.312 106.497 213.252 106.742C213.192 106.987 213.267 107.216 213.419 107.253C213.572 107.291 213.744 107.122 213.804 106.877Z" fill="#66390C"/>
<path d="M211.545 100.756C211.606 100.511 211.531 100.282 211.378 100.245C211.226 100.208 211.054 100.376 210.993 100.621C210.933 100.866 211.008 101.095 211.161 101.132C211.313 101.17 211.485 101.001 211.545 100.756Z" fill="#66390C"/>
<path d="M196.423 113.578V108.848C196.423 108.848 195.946 102.473 196.9 102.017C197.854 101.56 198.199 106.858 198.199 106.858C198.199 106.858 200.229 102.21 201.315 101.326C202.401 100.443 206.593 103.285 207.456 105.386C208.319 107.488 204.675 113.984 204.675 113.984L203 116.186L196.423 113.578Z" fill="#FFC99C"/>
<path d="M190.221 117.719C188.259 121.89 186.603 126.198 185.268 130.609C184.192 134.284 182.071 139.866 184.253 143.48C186.77 147.54 191.754 146.433 194.565 143.317C197.001 140.617 198.23 136.293 199.64 132.995C200.168 131.777 207.04 115.222 207.09 115.242L194.119 110.736C193.865 110.604 192.14 113.527 190.221 117.719Z" fill="#EDFAE7"/>
<path d="M207.811 93.298C209.635 93.5439 211.491 93.3023 213.191 92.5977C213.191 92.5977 213.353 96.2415 211.465 96.6577C209.577 97.0738 207.953 94.2217 207.811 93.298Z" fill="#66390C"/>
<path d="M322.181 144.555L318.121 146.758C316.974 147.387 318 149.143 319.136 148.513L323.196 146.311C324.353 145.682 323.328 143.926 322.181 144.555Z" fill="#FFE1E1"/>
<path style="mix-blend-mode:multiply" opacity="0.32" d="M205.761 235.57L160.37 260.834L200.27 283.671L261.373 250.887C250.116 245.73 215.89 242.807 205.761 235.57Z" fill="url(#paint1_linear)"/>
<path d="M204.949 231.946L200.3 238.706C200.3 238.706 215.302 264.365 242.758 258.478C242.758 258.478 261.809 255.931 269.614 241.68L265.118 236.727C265.118 236.727 251.619 249.242 241.408 249.922C216.804 251.597 204.949 231.946 204.949 231.946Z" fill="#68E1FD"/>
<path opacity="0.19" d="M265.118 236.748C265.118 236.748 251.72 249.131 241.57 249.933C242.108 252.765 242.585 255.617 243.093 258.449C245.64 258.033 262.378 254.846 269.614 241.691L265.118 236.748Z" fill="#606060"/>
<path d="M241.57 249.932C217.758 250.896 204.949 231.946 204.949 231.946L202.218 235.915C205.131 240.493 209.598 244.035 213.901 247.202C222.579 253.657 232.821 255.088 242.321 253.88C242.057 252.52 241.844 251.282 241.57 249.932Z" fill="#FFE89F"/>
<path d="M265.118 236.748C265.118 236.748 251.72 249.131 241.57 249.933C241.82 251.246 242.061 252.562 242.291 253.881C243.587 253.67 244.871 253.389 246.138 253.039C251.628 251.562 256.678 248.776 260.855 244.919C262.712 243.193 264.468 241.346 266.306 239.58L267.057 238.839L265.118 236.748Z" fill="#FFEDBB"/>
<path d="M265.118 236.748L232.78 195.833L241.418 249.963C241.418 249.963 258.987 248.593 265.118 236.748Z" fill="#E91837"/>
<path d="M228.669 210.205C229.157 210.205 229.552 209.551 229.552 208.744C229.552 207.937 229.157 207.282 228.669 207.282C228.182 207.282 227.786 207.937 227.786 208.744C227.786 209.551 228.182 210.205 228.669 210.205Z" fill="#66390C"/>
<path d="M223.188 217.249C223.676 217.249 224.071 216.595 224.071 215.788C224.071 214.981 223.676 214.326 223.188 214.326C222.701 214.326 222.305 214.981 222.305 215.788C222.305 216.595 222.701 217.249 223.188 217.249Z" fill="#66390C"/>
<path d="M231.318 220.406C231.806 220.406 232.202 219.751 232.202 218.944C232.202 218.137 231.806 217.482 231.318 217.482C230.831 217.482 230.435 218.137 230.435 218.944C230.435 219.751 230.831 220.406 231.318 220.406Z" fill="#66390C"/>
<path d="M232.78 229.176C233.268 229.176 233.663 228.522 233.663 227.715C233.663 226.907 233.268 226.253 232.78 226.253C232.292 226.253 231.897 226.907 231.897 227.715C231.897 228.522 232.292 229.176 232.78 229.176Z" fill="#66390C"/>
<path d="M224.061 231.378C224.549 231.378 224.944 230.724 224.944 229.917C224.944 229.109 224.549 228.455 224.061 228.455C223.574 228.455 223.178 229.109 223.178 229.917C223.178 230.724 223.574 231.378 224.061 231.378Z" fill="#66390C"/>
<path d="M234.638 243.112C235.125 243.112 235.521 242.457 235.521 241.65C235.521 240.843 235.125 240.188 234.638 240.188C234.15 240.188 233.755 240.843 233.755 241.65C233.755 242.457 234.15 243.112 234.638 243.112Z" fill="#66390C"/>
<path d="M218.58 225.806C219.068 225.806 219.463 225.152 219.463 224.344C219.463 223.537 219.068 222.883 218.58 222.883C218.093 222.883 217.697 223.537 217.697 224.344C217.697 225.152 218.093 225.806 218.58 225.806Z" fill="#66390C"/>
<path d="M212.399 231.378C212.887 231.378 213.282 230.724 213.282 229.917C213.282 229.109 212.887 228.455 212.399 228.455C211.911 228.455 211.516 229.109 211.516 229.917C211.516 230.724 211.911 231.378 212.399 231.378Z" fill="#66390C"/>
<path d="M224.061 240.199C224.549 240.199 224.944 239.544 224.944 238.737C224.944 237.93 224.549 237.275 224.061 237.275C223.574 237.275 223.178 237.93 223.178 238.737C223.178 239.544 223.574 240.199 224.061 240.199Z" fill="#66390C"/>
<path d="M249.832 230.627C250.32 230.627 250.715 229.973 250.715 229.166C250.715 228.358 250.32 227.704 249.832 227.704C249.344 227.704 248.949 228.358 248.949 229.166C248.949 229.973 249.344 230.627 249.832 230.627Z" fill="#66390C"/>
<path d="M244.95 238.209C245.438 238.209 245.833 237.555 245.833 236.748C245.833 235.941 245.438 235.286 244.95 235.286C244.462 235.286 244.067 235.941 244.067 236.748C244.067 237.555 244.462 238.209 244.95 238.209Z" fill="#66390C"/>
<path d="M256.48 241.162C256.968 241.162 257.363 240.508 257.363 239.701C257.363 238.894 256.968 238.239 256.48 238.239C255.993 238.239 255.597 238.894 255.597 239.701C255.597 240.508 255.993 241.162 256.48 241.162Z" fill="#66390C"/>
<path d="M244.95 224.08C245.438 224.08 245.833 223.426 245.833 222.619C245.833 221.812 245.438 221.157 244.95 221.157C244.462 221.157 244.067 221.812 244.067 222.619C244.067 223.426 244.462 224.08 244.95 224.08Z" fill="#66390C"/>
<path d="M239.246 213.92C239.733 213.92 240.129 213.266 240.129 212.459C240.129 211.651 239.733 210.997 239.246 210.997C238.758 210.997 238.363 211.651 238.363 212.459C238.363 213.266 238.758 213.92 239.246 213.92Z" fill="#66390C"/>
<path style="mix-blend-mode:multiply" opacity="0.32" d="M339.995 200.938L304.53 221.736L290.94 212.479L325.287 196.432" fill="url(#paint2_linear)"/>
<path d="M319.552 183.552L322.831 198.838C322.94 199.346 323.163 199.823 323.483 200.232C323.803 200.642 324.212 200.974 324.678 201.203C326.586 202.136 330.514 203.111 337.985 201.751C338.656 201.629 339.276 201.311 339.767 200.838C340.258 200.365 340.599 199.757 340.746 199.091L344.085 183.552" fill="#68E1FD"/>
<path d="M331.824 188.576C338.601 188.576 344.095 186.326 344.095 183.552C344.095 180.777 338.601 178.527 331.824 178.527C325.047 178.527 319.552 180.777 319.552 183.552C319.552 186.326 325.047 188.576 331.824 188.576Z" fill="#124577"/>
<path d="M324.688 172.285C324.112 171.97 323.624 171.516 323.267 170.965L316.365 160.277C313.168 155.324 312.001 119.809 320.425 119.362C327.084 119.007 333.935 134.587 336.32 139.124C338.553 143.387 340.999 147.925 342.329 152.573C344.359 159.577 339.781 165.707 335.468 171.27C333.336 173.878 327.459 173.777 324.688 172.285Z" fill="#66C652"/>
<path d="M328.799 179.248C329.726 179.924 330.636 180.601 331.53 181.278C332.221 165.45 330.023 149.628 325.044 134.588C324.923 134.237 324.671 133.948 324.34 133.781C324.009 133.614 323.627 133.583 323.273 133.694C322.92 133.806 322.624 134.05 322.449 134.376C322.273 134.702 322.232 135.084 322.334 135.44C327.024 149.555 329.212 164.38 328.799 179.248Z" fill="#488FD5"/>
<path d="M338.553 169.372C338.398 168.983 338.342 168.56 338.391 168.144L339.335 160.075C339.771 156.34 353.636 138.394 357.94 141.581C361.36 144.119 358.407 154.563 357.727 157.771C357.194 160.864 356.354 163.897 355.22 166.824C353.362 171.087 348.622 172.255 344.247 173.229C342.146 173.706 339.294 171.27 338.553 169.372Z" fill="#49B230"/>
<path d="M351.312 151.407C345.133 161.843 340.194 172.965 336.594 184.546C337.299 184.934 337.977 185.368 338.624 185.846C342.197 174.189 347.145 163 353.362 152.513C354.123 151.224 352.073 150.128 351.312 151.407Z" fill="#488FD5"/>
<path style="mix-blend-mode:multiply" opacity="0.32" d="M79.2715 140.82L37.2607 166.378L67.3757 186.871L119.019 156.593C106.128 152.513 90.944 147.519 79.2715 140.82Z" fill="url(#paint3_linear)"/>
<path d="M73.4556 146.321C91.0557 141.5 120.562 116.997 128.093 110.562C126.097 108.35 123.769 106.463 121.191 104.97C120.815 104.757 120.44 104.554 120.064 104.351C79.5557 121.108 73.4556 146.321 73.4556 146.321Z" fill="#68E1FD"/>
<path d="M134.914 124.479C113.924 141.196 73.4657 146.331 73.4657 146.331C111.762 149.153 128.824 139.389 134.437 135.004C134.528 134.639 134.619 134.273 134.701 133.898C135.369 130.8 135.441 127.603 134.914 124.479Z" fill="#68E1FD"/>
<path d="M73.4556 146.321C73.4556 146.321 75.4856 115.79 105.144 100.646C100.067 100.611 95.0433 101.674 90.4162 103.762L89.6245 104.128C88.3761 104.717 87.2088 105.326 86.0822 105.955C80.4692 111.507 72.3492 123.494 73.4556 146.321Z" fill="#68E1FD"/>
<path d="M73.4556 146.321C95.5826 157.984 111.457 158.582 117.872 157.07C121.87 154.404 125.402 151.099 128.326 147.286C104.596 157.334 73.4556 146.321 73.4556 146.321Z" fill="#68E1FD"/>
<path d="M73.4555 146.321C73.4555 146.321 67.5888 134.029 69.3955 121.961C66.8799 126.656 65.6211 131.922 65.7415 137.247C67.599 140.82 70.1872 144.717 73.4555 146.321Z" fill="#68E1FD"/>
<path d="M73.4556 146.321C75.18 151.978 78.028 157.229 81.8293 161.759C88.3427 164.979 95.8099 165.701 102.82 163.789C86.204 160.014 73.4556 146.321 73.4556 146.321Z" fill="#68E1FD"/>
<path d="M68.6241 149.244L68.8982 149.752C69.702 151.094 70.6117 152.37 71.6184 153.568L73.4657 146.331L68.6241 149.244Z" fill="#68E1FD"/>
<path d="M74.9882 147.123C75.3313 147.501 75.7451 147.808 76.2062 148.026C76.8051 148.24 76.6833 147.945 77.4953 148.503C78.4364 149.155 79.4353 149.719 80.4794 150.188C81.6568 150.696 81.809 150.239 82.5094 150.889C83.5526 151.854 84.8537 152.496 86.2547 152.736C87.6656 152.858 88.0614 152.574 89.2997 153.243C90.538 153.913 91.8271 155.456 93.7556 155.537C95.6841 155.619 95.5623 155.263 97.1152 155.73C98.6682 156.197 99.7542 157.364 101.662 157.314C103.571 157.263 103.692 156.705 105.327 157.314C106.961 157.923 108.91 158.684 110.28 158.461C111.65 158.237 112.31 157.73 113.467 158.197C114.034 158.46 114.641 158.625 115.263 158.684L117.923 157.04L110.98 156.238" fill="#68E1FD"/>
<path d="M73.354 143.865C73.1512 143.474 73.0599 143.035 73.0901 142.596C73.1958 142.113 73.2401 141.618 73.2221 141.124C73.0396 140.165 73.0396 139.18 73.2221 138.221C73.453 137.141 73.5315 136.034 73.4555 134.933C73.2887 134.221 73.3382 133.475 73.5976 132.791C73.8804 132.173 74.0522 131.51 74.1051 130.832C74.2269 130.051 73.892 129.299 74.2472 128.345C74.6025 127.391 74.8461 126.813 75.0186 126.194C75.1912 125.574 74.6735 124.722 75.2622 123.149C75.8509 121.575 76.1859 121.616 76.734 120.317C77.2821 119.018 76.8964 118.287 77.4851 117.485C78.1229 116.523 78.67 115.503 79.1192 114.44C79.8399 112.999 79.9515 111.882 80.8752 111.486C81.7988 111.09 82.0932 109.395 82.8341 108.654C83.5751 107.913 84.8641 106.624 84.925 106.624L86.1126 105.944" fill="#68E1FD"/>
<g opacity="0.52">
<path opacity="0.52" d="M73.4556 146.322C91.0557 141.501 120.562 116.998 128.093 110.563C126.097 108.351 123.769 106.464 121.191 104.971C120.815 104.758 120.44 104.555 120.064 104.352C79.5557 121.109 73.4556 146.322 73.4556 146.322Z" fill="#093E3E"/>
<path opacity="0.52" d="M134.914 124.479C113.924 141.196 73.4657 146.331 73.4657 146.331C111.762 149.153 128.824 139.389 134.437 135.004C134.528 134.639 134.619 134.273 134.701 133.898C135.369 130.8 135.441 127.603 134.914 124.479Z" fill="#093E3E"/>
<path opacity="0.52" d="M73.4555 146.321C73.4555 146.321 75.4855 115.79 105.144 100.646C100.067 100.611 95.0432 101.674 90.4162 103.762L89.6245 104.128C88.376 104.717 87.2088 105.326 86.0821 105.955C80.4692 111.507 72.3492 123.494 73.4555 146.321Z" fill="#093E3E"/>
<path opacity="0.52" d="M73.4556 146.321C95.5826 157.984 111.457 158.582 117.872 157.07C121.87 154.404 125.402 151.099 128.326 147.286C104.596 157.334 73.4556 146.321 73.4556 146.321Z" fill="#093E3E"/>
<path opacity="0.52" d="M73.4555 146.321C73.4555 146.321 67.5888 134.029 69.3955 121.961C66.8799 126.656 65.6211 131.922 65.7415 137.247C67.599 140.82 70.1872 144.717 73.4555 146.321Z" fill="#093E3E"/>
<path opacity="0.52" d="M73.4556 146.321C75.18 151.978 78.028 157.229 81.8293 161.759C88.3427 164.979 95.8099 165.701 102.82 163.789C86.204 160.014 73.4556 146.321 73.4556 146.321Z" fill="#093E3E"/>
<path opacity="0.52" d="M68.6241 149.244L68.8982 149.752C69.702 151.094 70.6117 152.37 71.6184 153.568L73.4657 146.331L68.6241 149.244Z" fill="#093E3E"/>
<path opacity="0.52" d="M74.9882 147.123C75.3313 147.501 75.7451 147.808 76.2062 148.026C76.805 148.24 76.6832 147.945 77.4952 148.503C78.4363 149.155 79.4352 149.719 80.4793 150.188C81.6567 150.696 81.809 150.239 82.5093 150.889C83.5525 151.854 84.8537 152.496 86.2547 152.736C87.6655 152.858 88.0614 152.574 89.2997 153.243C90.538 153.913 91.827 155.456 93.7555 155.537C95.684 155.619 95.5622 155.263 97.1152 155.73C98.6681 156.197 99.7542 157.364 101.662 157.314C103.571 157.263 103.692 156.705 105.327 157.314C106.961 157.923 108.909 158.684 110.28 158.461C111.65 158.237 112.31 157.73 113.467 158.197C114.034 158.46 114.641 158.625 115.263 158.684L117.923 157.04L110.98 156.238" fill="#093E3E"/>
<path opacity="0.52" d="M73.354 143.865C73.1512 143.474 73.0599 143.035 73.0901 142.596C73.1958 142.113 73.2401 141.618 73.2221 141.124C73.0396 140.165 73.0396 139.18 73.2221 138.221C73.453 137.141 73.5315 136.034 73.4555 134.933C73.2887 134.221 73.3382 133.475 73.5976 132.791C73.8804 132.173 74.0522 131.51 74.1051 130.832C74.2269 130.051 73.892 129.299 74.2472 128.345C74.6025 127.391 74.8461 126.813 75.0186 126.194C75.1912 125.574 74.6735 124.722 75.2622 123.149C75.8509 121.575 76.1859 121.616 76.734 120.317C77.2821 119.018 76.8964 118.287 77.4851 117.485C78.1229 116.523 78.67 115.503 79.1192 114.44C79.8399 112.999 79.9515 111.882 80.8752 111.486C81.7988 111.09 82.0932 109.395 82.8341 108.654C83.5751 107.913 84.8641 106.624 84.925 106.624L86.1126 105.944" fill="#093E3E"/>
</g>
<path d="M73.4556 146.321C73.4556 146.321 86.204 160.024 102.809 163.81C107.16 162.703 111.334 160.995 115.213 158.735C116.113 158.22 116.999 157.672 117.872 157.09C111.467 158.582 95.5826 157.984 73.4556 146.321Z" fill="#68E1FD"/>
<path d="M65.7822 137.207C65.8093 141.382 66.7773 145.496 68.614 149.245L73.4454 146.312C70.1873 144.718 67.599 140.82 65.7822 137.207Z" fill="#68E1FD"/>
<path d="M73.4555 146.321C72.3492 123.494 80.4692 111.496 86.0821 105.995C77.6475 110.674 72.4608 116.277 69.4361 121.91C67.599 134.04 73.4555 146.321 73.4555 146.321Z" fill="#68E1FD"/>
<path d="M134.914 124.479C134.519 122.121 133.809 119.826 132.803 117.658C131.603 115.066 130.019 112.671 128.103 110.553C120.562 116.988 91.0455 141.49 73.4657 146.311C73.4556 146.321 113.903 141.185 134.914 124.479Z" fill="#68E1FD"/>
<path d="M71.6184 153.559C74.4397 156.957 77.9246 159.744 81.8598 161.75C78.0585 157.219 75.2104 151.968 73.486 146.312L71.6184 153.559Z" fill="#68E1FD"/>
<path d="M73.4556 146.321C73.4556 146.321 104.596 157.334 128.326 147.275C131.153 143.623 133.224 139.445 134.416 134.983C128.814 139.378 111.752 149.153 73.4556 146.321Z" fill="#68E1FD"/>
<path d="M73.4556 146.321C73.4556 146.321 79.5456 121.109 120.054 104.331C115.438 101.944 110.32 100.692 105.124 100.677C75.516 115.77 73.4556 146.321 73.4556 146.321Z" fill="#68E1FD"/>
<path d="M74.2371 144.058C74.6111 143.803 74.929 143.474 75.1716 143.092C75.4142 142.709 75.5763 142.282 75.648 141.835C75.922 140.302 75.5972 140.82 76.5209 139.744C77.4367 138.939 78.1822 137.959 78.7133 136.861C79.4441 135.298 79.5862 133.816 80.9057 133.055C81.89 132.563 82.7426 131.842 83.3924 130.954C84.4074 129.838 84.5597 127.98 86.072 126.661C87.5844 125.341 90.2234 123.981 91.147 122.712C92.0707 121.444 92.903 120.083 94.121 119.586C95.9666 118.593 97.673 117.361 99.196 115.922C100.53 114.518 102.164 113.436 103.977 112.755C106.078 112.024 107.803 111.537 108.412 110.542C108.905 109.718 109.658 109.082 110.554 108.736C111.569 108.228 113.142 108.411 114.167 107.924C115.192 107.436 115.284 106.269 116.461 105.975C117.639 105.681 120.521 104.574 120.521 104.574L119.222 103.904L96.4758 114.237L91.2587 118.185L88.9952 120.52L86.0822 124.458L78.9163 132.477L75.8713 136.963L74.8563 140.322L74.2371 144.058Z" fill="#68E1FD"/>
<path d="M74.9273 145.226C74.9273 145.226 76.6833 144.525 78.3174 144.048C79.9516 143.571 80.4083 143.693 81.4233 142.84C82.4383 141.988 82.2658 141.206 84.0826 140.749C85.8995 140.293 87.3002 140.029 88.5994 138.638C89.8986 137.248 88.9343 136.405 91.6444 135.38C94.3544 134.355 94.4153 135.268 96.3946 133.847C98.3738 132.426 99.1249 130.741 100.952 130.011C102.779 129.28 103.906 129.564 105.205 128.031C106.504 126.499 106.565 124.773 108.595 123.971C110.625 123.17 111.082 123.464 112.655 122.266C114.228 121.069 114.066 119.556 116.38 118.48C118.694 117.404 119.851 117.181 120.176 116.45C120.501 115.719 122.663 113.233 124.175 112.949C125.687 112.664 128.235 110.543 128.235 110.543L122.957 117.78L99.2366 134.548L86.5897 141.835L80.4489 144.312L74.9679 145.895L74.9273 145.226Z" fill="#68E1FD"/>
<path d="M75.8611 145.986C76.2326 146.101 76.6266 146.122 77.0081 146.047C77.7998 145.946 78.155 145.682 78.8757 145.6C80.4245 145.67 81.9755 145.523 83.4838 145.164C84.8785 144.68 86.3113 144.313 87.7671 144.068C89.6753 143.733 90.6598 143.885 91.9489 143.52C93.2379 143.154 94.2225 142.342 95.4303 142.2C96.6382 142.058 98.6377 142.271 100.759 141.358C102.88 140.444 104.484 139.328 105.986 139.084C108.366 138.647 110.708 138.022 112.99 137.217C116.522 136.009 115.903 134.852 119.222 134.172C122.541 133.492 124.52 133.349 126.702 131.685C128.885 130.02 128.367 129.036 130.965 128.488C132.541 128.145 133.984 127.351 135.117 126.204L134.721 123.555L100.008 137.247L74.907 145.895" fill="#75DFF8"/>
<path d="M75.5059 146.454C76.5179 146.358 77.5343 146.314 78.5509 146.322C79.7301 146.455 80.9176 146.499 82.1034 146.454C84.0207 146.295 85.9457 146.247 87.8686 146.312C91.2688 146.413 91.7053 147.093 93.8165 146.312C95.9277 145.53 95.1055 145.358 97.6532 145.429C100.434 145.641 103.231 145.47 105.966 144.921C108.514 144.231 111.041 143.449 112.523 143.49C114.963 143.246 117.355 142.655 119.628 141.734C121.049 141.095 122.537 140.615 124.063 140.303C125.525 140.049 129.047 137.461 131.047 136.75C132.391 136.222 133.611 135.42 134.63 134.396L134.122 136.233L122.277 143.338L99.2366 147.621L89.2693 148.636L75.5059 146.454Z" fill="#68E1FD"/>
<path d="M75.313 146.91C75.8444 147.288 76.4341 147.576 77.0588 147.763C78.7728 148.103 80.467 148.537 82.1338 149.062C83.2368 149.648 84.437 150.03 85.6761 150.189C87.7772 150.259 89.8655 150.545 91.9082 151.041C93.5879 151.55 95.3417 151.769 97.0949 151.691C99.201 151.493 101.325 151.606 103.398 152.026C105.281 152.491 107.25 152.491 109.133 152.026C111.368 151.432 113.671 151.136 115.984 151.143C117.596 151.342 119.233 151.107 120.724 150.463C122.125 149.884 122.947 149.092 124.368 149.092C125.594 148.941 126.777 148.548 127.849 147.935L128.357 147.336L93.5322 149.306L84.9758 148.656L75.313 146.91Z" fill="#68E1FD"/>
<path d="M74.3995 147.316C74.3995 147.316 74.2473 147.428 74.8157 148.027C75.3841 148.626 76.1047 148.819 76.7239 149.62C77.343 150.422 77.14 150.95 77.9013 151.305C78.588 151.567 79.242 151.908 79.8501 152.32C80.6012 152.868 80.8651 153.782 81.8801 154.218C82.5411 154.446 83.1691 154.76 83.7477 155.152C84.2552 155.568 84.3668 156.238 85.7777 156.878C87.1885 157.517 87.5438 157.314 88.2644 157.893C89.0283 158.831 89.9924 159.587 91.0861 160.105C92.497 160.572 92.6188 160.44 93.6744 160.857C94.73 161.273 95.3796 162.359 96.557 162.491C97.7344 162.623 98.6783 162.359 99.5106 162.887C100.401 163.335 101.341 163.676 102.312 163.902L103.175 163.709L92.1722 158.969L81.8293 153.406L77.343 149.712L75.7292 148.21L74.3995 147.316Z" fill="#68E1FD"/>
<path d="M73.8514 147.569C74.0122 147.731 74.1307 147.93 74.1965 148.148C74.3386 148.554 74.3792 148.95 74.4503 149.082C74.6548 149.318 74.807 149.595 74.8969 149.894C74.9344 150.314 75.0588 150.722 75.2623 151.091C75.4729 151.338 75.6441 151.615 75.7698 151.914C75.8288 152.218 75.9243 152.515 76.054 152.797C76.2367 153.111 76.3991 153.111 76.5615 153.446C76.7215 154.007 76.9356 154.551 77.2009 155.07C77.8421 155.723 78.4042 156.448 78.8757 157.232C79.125 158.008 79.5688 158.707 80.1647 159.262C80.8057 159.764 81.3317 160.397 81.7075 161.12C81.8116 161.321 81.8672 161.543 81.8699 161.769L80.3373 160.673L76.5412 155.375L73.8514 148.554V147.569Z" fill="#68E1FD"/>
<path d="M105.387 100.707H103.804C103.804 100.707 102.657 101.549 101.876 102.189C101.094 102.828 100.201 102.808 98.8306 103.508C97.4603 104.209 97.9374 104.605 97.0949 105.264C96.1499 105.818 95.1662 106.303 94.1514 106.716C93.1364 107.284 93.4105 108.035 92.3041 109.071C91.4546 109.774 90.5631 110.424 89.6347 111.019C88.508 111.913 88.7821 112.461 87.9193 113.577C87.1297 114.483 86.2373 115.294 85.26 115.993C84.245 116.876 84.3465 118.023 83.5853 118.957C82.9788 119.92 82.2332 120.789 81.3726 121.535C80.4895 122.144 80.4997 123.484 79.8704 124.925C79.2411 126.366 79.0888 127.239 78.084 128.142C77.0791 129.046 77.5765 129.898 77.069 131.187C76.7556 132.221 76.2904 133.203 75.6886 134.101C75.2623 134.517 75.4348 135.633 75.1405 136.902C74.9613 137.731 74.6995 138.541 74.3589 139.318C74.198 139.846 74.1496 140.403 74.2168 140.952C74.1466 141.558 73.9858 142.15 73.7398 142.708C73.6786 143.074 73.6786 143.448 73.7398 143.814L75.4957 139.856L79.5557 131.259L85.7371 118.307L94.8721 109.903L97.9881 106.949L102.048 103.904L105.387 100.707Z" fill="#68E1FD"/>
<path d="M72.7552 144.413C72.7552 144.413 72.2782 144.353 71.8519 143.226C71.4256 142.099 71.5677 140.962 71.0399 140.181C70.4514 139.445 70.0821 138.559 69.9741 137.623C70.0317 136.832 69.9597 136.036 69.761 135.268C69.4057 133.817 69.0708 133.959 69.0809 133.015C69.0911 132.071 69.5174 130.904 69.0809 129.564C68.721 128.815 68.547 127.989 68.5734 127.159C68.6445 126.418 69.223 124.601 68.746 123.291L69.4463 121.941L69.9538 125.362L70.6643 135.674L72.3797 142.779L72.7552 144.413Z" fill="#68E1FD"/>
<path d="M72.065 145.397L71.1921 144.382C70.7354 143.875 69.9741 143.631 69.558 142.626C69.1418 141.622 69.1621 141.175 68.2588 140.596C67.3554 140.018 67.6802 139.246 66.8885 138.343C66.5177 137.919 66.1784 137.467 65.8735 136.993V137.572L68.1776 142.342L69.7102 144.078L72.065 145.397Z" fill="#68E1FD"/>
<path d="M72.339 146.91C72.339 146.91 72.6638 147.286 71.6184 147.925C70.5729 148.565 70.6947 148.646 69.8929 148.788C69.6557 148.835 69.4359 148.946 69.257 149.109C69.0782 149.271 68.9471 149.48 68.8779 149.712L68.5226 149.001L72.339 146.91Z" fill="#68E1FD"/>
<path d="M73.08 147.519C72.8764 147.679 72.7421 147.912 72.7044 148.168C72.534 148.604 72.4115 149.056 72.339 149.518C72.2477 150.381 71.9533 150.026 71.8721 150.736C71.7909 151.447 72.0853 151.599 71.8721 152.188C71.7424 152.56 71.5426 152.905 71.2834 153.203L71.7199 153.791L72.7856 151.67L73.8006 148.564L73.08 147.519Z" fill="#68E1FD"/>
<path d="M73.7499 143.865C73.3162 143.853 72.889 143.973 72.526 144.211C72.163 144.449 71.8817 144.792 71.7199 145.195C70.8296 145.016 69.9866 144.653 69.2453 144.129C68.5041 143.604 67.881 142.93 67.4163 142.15C67.3507 142.055 67.2574 141.983 67.1493 141.944C67.0411 141.905 66.9234 141.899 66.8123 141.929C66.7012 141.959 66.602 142.023 66.5285 142.112C66.4549 142.2 66.4105 142.309 66.4013 142.424C66.4013 143.307 65.9953 144.109 66.4013 144.951C66.8047 145.624 67.4518 146.114 68.208 146.322C69.3996 146.795 70.6942 146.949 71.9635 146.768C72.1762 147.037 72.4481 147.253 72.758 147.399C73.0679 147.545 73.4074 147.617 73.7499 147.611C74.0183 147.65 74.292 147.632 74.5525 147.556C74.813 147.48 75.0542 147.35 75.2595 147.172C75.4649 146.995 75.6296 146.776 75.7426 146.529C75.8555 146.282 75.9139 146.014 75.9139 145.743C75.9139 145.472 75.8555 145.204 75.7426 144.957C75.6296 144.71 75.4649 144.491 75.2595 144.314C75.0542 144.137 74.813 144.006 74.5525 143.93C74.292 143.854 74.0183 143.836 73.7499 143.875V143.865ZM67.528 144.099C67.456 144.113 67.3872 144.141 67.325 144.18C67.3163 144.075 67.3163 143.97 67.325 143.865C67.3783 143.957 67.4469 144.04 67.528 144.109V144.099Z" fill="#874518"/>
<path opacity="0.19" d="M69.4362 121.91C69.4362 121.91 59.9764 139.378 71.6083 153.548C84.2349 168.905 109.052 169.676 128.316 147.265C128.326 147.275 75.6886 163.85 69.4362 121.91Z" fill="#606060"/>
<defs>
<linearGradient id="paint0_linear" x1="112.98" y1="234.19" x2="160.106" y2="194.768" gradientUnits="userSpaceOnUse">
<stop stop-color="white" stop-opacity="0"/>
<stop offset="0.99" stop-color="#808080"/>
</linearGradient>
<linearGradient id="paint1_linear" x1="186.283" y1="274.729" x2="225.878" y2="244.38" gradientUnits="userSpaceOnUse">
<stop stop-color="white" stop-opacity="0"/>
<stop offset="1" stop-color="#333333"/>
</linearGradient>
<linearGradient id="paint2_linear" x1="14902" y1="5605.15" x2="15383.5" y2="4824.41" gradientUnits="userSpaceOnUse">
<stop stop-color="white" stop-opacity="0"/>
<stop offset="0.99" stop-color="#808080"/>
</linearGradient>
<linearGradient id="paint3_linear" x1="60.1185" y1="174.975" x2="89.8174" y2="152.736" gradientUnits="userSpaceOnUse">
<stop stop-color="white" stop-opacity="0"/>
<stop offset="0.99" stop-color="#333333"/>
</linearGradient>
</defs>
</svg>
