<svg width="520" height="520" viewBox="0 0 520 520" fill="none" xmlns="http://www.w3.org/2000/svg">
<g filter="url(#filter0_d)">
<path d="M491.14 7.101C491.124 6.799 491.089 6.499 491.037 6.202C491.026 6.139 491.011 6.077 490.999 6.014C490.946 5.75 490.879 5.489 490.797 5.23C490.783 5.185 490.771 5.14 490.756 5.095C490.657 4.802 490.539 4.515 490.403 4.234C490.38 4.187 490.354 4.141 490.33 4.094C490.205 3.849 490.066 3.61 489.913 3.377C489.885 3.334 489.859 3.291 489.83 3.249C489.654 2.994 489.462 2.748 489.251 2.512C489.211 2.467 489.167 2.425 489.126 2.381C489.027 2.276 488.932 2.168 488.827 2.067C488.736 1.98 488.638 1.903 488.544 1.822C488.511 1.794 488.485 1.761 488.451 1.733C488.432 1.717 488.41 1.706 488.391 1.69C488.144 1.488 487.888 1.303 487.623 1.137C487.584 1.113 487.543 1.092 487.503 1.068C487.265 0.925 487.021 0.798 486.771 0.684C486.712 0.657 486.655 0.629 486.595 0.603C486.313 0.483 486.026 0.378 485.733 0.294C485.682 0.279 485.631 0.269 485.579 0.255C485.328 0.189 485.075 0.136 484.82 0.096C484.745 0.084 484.671 0.071 484.595 0.061C484.302 0.024 484.008 0.002 483.713 0C483.648 0 483.583 0.004 483.517 0.005C483.266 0.01 483.015 0.027 482.765 0.057C482.691 0.066 482.618 0.072 482.545 0.083C482.245 0.127 481.948 0.189 481.654 0.271C481.602 0.285 481.551 0.303 481.499 0.319C481.229 0.4 480.963 0.497 480.701 0.608C480.67 0.621 480.637 0.629 480.606 0.643L156.773 144.572C152.988 146.255 151.283 150.686 152.965 154.472C154.647 158.256 159.079 159.961 162.864 158.28L442.61 33.949L184.083 263.751L54.819 206.3L132.916 171.59C136.701 169.907 138.406 165.476 136.724 161.691C135.042 157.907 130.609 156.202 126.825 157.883L33.307 199.446C30.599 200.65 28.853 203.336 28.853 206.3C28.853 209.264 30.599 211.949 33.307 213.154L178.574 277.717L194.587 397.81C194.592 397.844 194.604 397.875 194.609 397.91C194.662 398.272 194.737 398.632 194.843 398.985C194.854 399.021 194.868 399.056 194.879 399.091C194.985 399.427 195.116 399.756 195.271 400.076C195.286 400.107 195.298 400.14 195.314 400.171C195.472 400.487 195.658 400.792 195.864 401.089C195.904 401.147 195.945 401.203 195.987 401.259C196.197 401.544 196.421 401.821 196.676 402.08C196.933 402.341 197.209 402.571 197.493 402.787C197.549 402.83 197.605 402.873 197.663 402.913C197.958 403.124 198.262 403.315 198.577 403.479C198.603 403.492 198.63 403.503 198.656 403.516C198.975 403.676 199.303 403.811 199.637 403.923C199.678 403.937 199.717 403.953 199.759 403.966C200.11 404.077 200.467 404.157 200.828 404.216C200.86 404.221 200.89 404.233 200.923 404.238C200.962 404.244 200.999 404.241 201.038 404.247C201.365 404.29 201.693 404.32 202.022 404.32C202.023 404.32 202.023 404.32 202.024 404.32H202.025C202.027 404.32 202.029 404.319 202.03 404.319C202.349 404.319 202.667 404.291 202.983 404.25C203.059 404.24 203.135 404.23 203.21 404.218C203.839 404.117 204.457 403.936 205.049 403.674C205.107 403.648 205.164 403.622 205.222 403.595C205.501 403.463 205.775 403.318 206.039 403.15C206.049 403.143 206.06 403.138 206.071 403.131C206.336 402.961 206.591 402.768 206.837 402.56C206.901 402.506 206.962 402.449 207.025 402.393C207.111 402.316 207.2 402.245 207.283 402.164L271.73 338.716L379.488 427.458C380.85 428.58 382.541 429.169 384.257 429.169C385.055 429.169 385.859 429.041 386.638 428.78C389.09 427.96 390.946 425.933 391.549 423.419L490.948 9.249C490.953 9.229 490.953 9.209 490.958 9.19C491.029 8.882 491.081 8.572 491.112 8.26C491.118 8.202 491.12 8.144 491.124 8.086C491.145 7.819 491.151 7.551 491.144 7.284C491.142 7.223 491.144 7.162 491.14 7.101ZM206.002 369.932L193.414 275.524L421.269 72.988L237.596 300.994C237.561 301.037 237.533 301.086 237.499 301.131C237.36 301.311 237.229 301.494 237.109 301.683C237.063 301.756 237.021 301.83 236.977 301.904C236.866 302.092 236.764 302.283 236.671 302.478C236.652 302.518 236.627 302.555 236.609 302.595L206.002 369.932ZM225.59 363.089L246.218 317.706L260.087 329.127L225.59 363.089ZM379.762 408.25L253.932 304.626L468.582 38.166L379.762 408.25Z" fill="#09F09C"/>
<path d="M257.025 399.794C254.097 396.866 249.348 396.865 246.419 399.795L180.155 466.06C177.226 468.99 177.226 473.738 180.155 476.667C181.619 478.131 183.539 478.863 185.458 478.863C187.377 478.863 189.297 478.131 190.761 476.666L257.025 410.401C259.954 407.471 259.954 402.723 257.025 399.794Z" fill="#8FE9C8"/>
<path d="M157.621 317.478C154.693 314.55 149.944 314.55 147.015 317.478L81.267 383.227C78.338 386.157 78.338 390.905 81.267 393.834C82.731 395.298 84.651 396.03 86.57 396.03C88.489 396.03 90.409 395.297 91.873 393.834L157.621 328.085C160.55 325.155 160.55 320.407 157.621 317.478Z" fill="#8FE9C8"/>
<path d="M157.621 399.796C154.693 396.868 149.944 396.868 147.015 399.796L47.616 499.198C44.687 502.128 44.687 506.876 47.616 509.805C49.08 511.269 51 512.001 52.919 512.001C54.838 512.001 56.758 511.269 58.222 509.804L157.621 410.403C160.55 407.473 160.55 402.725 157.621 399.796Z" fill="#8FE9C8"/>
</g>
<defs>
<filter id="filter0_d" x="0" y="0" width="520.001" height="520.001" filterUnits="userSpaceOnUse" color-interpolation-filters="sRGB">
<feFlood flood-opacity="0" result="BackgroundImageFix"/>
<feColorMatrix in="SourceAlpha" type="matrix" values="0 0 0 0 0 0 0 0 0 0 0 0 0 0 0 0 0 0 127 0" result="hardAlpha"/>
<feOffset dy="4"/>
<feGaussianBlur stdDeviation="2"/>
<feComposite in2="hardAlpha" operator="out"/>
<feColorMatrix type="matrix" values="0 0 0 0 0 0 0 0 0 0 0 0 0 0 0 0 0 0 0.25 0"/>
<feBlend mode="normal" in2="BackgroundImageFix" result="effect1_dropShadow"/>
<feBlend mode="normal" in="SourceGraphic" in2="effect1_dropShadow" result="shape"/>
</filter>
</defs>
</svg>
